{"glyphs":{"0":{"ha":865,"x_min":54,"x_max":803,"o":"m 407 -4 q 261 48 325 7 q 158 150 197 89 q 97 279 119 211 q 67 419 74 347 q 99 713 54 567 q 239 943 143 857 q 314 988 267 967 q 333 994 317 988 q 360 1007 350 1001 q 421 1016 390 1022 q 475 986 451 1010 q 507 982 497 983 q 633 942 583 968 q 779 688 740 879 q 801 449 803 575 q 714 143 799 272 q 585 26 664 67 q 407 -4 507 -17 l 407 -4 m 429 200 q 551 260 504 192 q 601 451 600 338 q 585 644 603 554 q 567 708 578 681 q 549 747 557 735 q 536 761 542 758 q 478 778 518 771 q 463 779 471 778 q 444 782 454 781 q 429 783 435 783 q 381 794 403 789 q 367 785 371 789 q 286 643 317 740 q 264 439 256 546 q 318 271 275 333 q 429 200 361 208 l 429 200 z "},"1":{"ha":585,"x_min":44,"x_max":468,"o":"m 465 89 q 435 21 464 49 q 365 -6 406 -7 q 297 25 325 -4 q 271 94 269 54 q 271 639 275 228 l 201 593 q 128 578 168 571 q 67 619 89 586 q 52 692 44 653 q 93 754 60 732 l 136 782 q 167 802 160 797 q 186 817 174 807 q 207 839 199 828 l 228 868 q 236 901 236 876 q 263 960 246 938 q 368 1008 303 1013 q 446 960 419 1004 q 456 936 451 949 q 458 919 457 929 q 461 897 460 910 q 463 839 463 876 q 465 682 464 785 q 465 89 468 182 l 465 89 z "},"2":{"ha":832,"x_min":60,"x_max":808,"o":"m 710 -8 q 644 -6 686 -7 q 569 -5 603 -6 q 506 -4 535 -4 q 390 -7 467 -4 q 211 6 276 -11 q 86 107 114 31 q 104 253 60 175 q 305 485 131 296 q 492 701 479 675 q 496 749 501 722 q 417 814 482 814 q 349 796 382 814 q 299 747 317 778 q 292 725 296 742 q 290 717 290 721 q 288 708 289 713 q 288 699 288 703 l 281 663 q 235 602 269 624 q 163 591 201 581 q 102 636 124 601 q 90 711 81 671 q 94 731 93 718 q 100 761 100 760 q 131 847 108 813 q 254 969 175 925 q 418 1013 333 1013 q 588 955 513 1011 q 686 794 663 899 q 668 615 707 700 q 365 254 638 554 l 322 214 q 303 190 311 203 q 382 190 336 188 q 506 193 464 193 q 713 189 507 193 q 781 158 753 188 q 808 88 808 129 q 778 19 807 47 q 710 -8 749 -8 l 710 -8 z "},"3":{"ha":811,"x_min":61,"x_max":767,"o":"m 154 92 q 107 167 128 119 l 94 196 q 85 217 89 210 q 79 286 68 250 q 124 340 90 322 q 194 346 158 357 q 249 300 231 335 q 264 267 256 286 l 275 240 q 288 217 282 222 q 347 186 307 197 q 435 181 386 175 q 521 206 485 186 q 571 250 557 225 q 576 314 579 265 q 410 453 569 419 q 331 472 365 442 q 297 510 308 486 q 288 561 285 535 q 323 622 293 599 q 390 642 353 646 q 403 639 396 640 q 424 644 413 642 q 440 647 435 646 q 451 649 444 647 q 465 656 458 651 q 510 707 507 679 q 479 774 511 739 q 383 826 439 817 q 268 799 328 835 l 260 789 l 247 769 q 229 743 236 753 q 167 709 206 714 q 100 728 129 704 q 66 790 71 751 q 85 857 61 828 q 94 869 89 861 l 108 892 q 165 951 135 931 q 333 1010 244 1004 q 492 985 421 1015 q 614 899 563 954 q 692 694 700 806 q 632 556 688 615 q 760 325 750 471 q 729 158 767 222 q 614 48 689 88 q 456 -1 539 8 q 291 11 372 -11 q 154 92 210 33 l 154 92 z "},"4":{"ha":818,"x_min":39,"x_max":797,"o":"m 503 0 q 435 26 464 0 q 406 97 406 51 l 407 247 q 197 256 282 249 q 83 294 126 263 q 39 382 39 325 q 51 444 39 417 q 92 504 64 472 q 389 932 279 724 q 494 1010 431 1010 q 560 984 532 1010 q 590 922 589 958 q 603 443 599 708 l 701 447 q 772 418 747 447 q 797 350 797 389 q 772 282 797 311 q 701 253 747 253 l 601 250 q 600 94 601 167 q 569 25 599 50 q 503 0 540 0 l 503 0 m 288 439 q 408 440 329 443 q 407 588 408 542 l 288 439 l 288 439 z "},"5":{"ha":801,"x_min":54,"x_max":767,"o":"m 418 -1 q 243 18 311 -6 q 204 36 225 25 l 113 82 q 66 138 78 100 q 72 210 54 175 q 126 256 89 244 q 199 251 164 268 l 246 225 q 283 207 271 213 q 307 197 294 201 q 410 188 340 185 q 471 206 439 189 q 554 293 542 243 q 536 385 565 336 q 441 472 503 442 q 319 490 379 503 q 300 482 314 490 q 250 453 253 454 q 214 443 233 444 q 179 440 197 439 q 116 476 140 446 q 96 546 92 507 q 136 892 115 701 q 150 928 139 911 q 183 977 158 958 q 240 996 208 996 q 633 997 376 997 q 702 969 674 997 q 731 900 731 940 q 702 831 731 860 q 633 803 674 803 l 314 803 q 301 679 303 692 q 531 638 422 697 q 699 481 640 579 q 738 246 767 364 q 560 39 704 115 q 418 -1 489 1 l 418 -1 z "},"6":{"ha":842,"x_min":63,"x_max":785,"o":"m 394 -3 q 235 77 303 21 q 131 208 167 133 q 78 365 94 283 q 68 529 63 447 q 97 688 72 610 q 163 835 121 765 q 274 951 204 904 q 426 1008 342 999 q 499 1008 467 1013 q 565 990 533 1006 q 613 966 597 975 q 659 934 628 957 q 693 910 690 911 q 734 847 726 888 q 719 772 742 806 q 658 729 697 738 q 585 744 618 721 l 554 767 q 531 783 538 778 l 511 796 q 495 803 499 803 q 481 808 492 804 q 465 810 469 813 q 446 810 460 808 q 341 747 389 803 q 274 601 293 692 q 306 622 289 613 q 459 651 374 658 q 611 608 544 644 q 715 518 678 572 q 769 401 753 464 q 776 272 785 338 q 740 151 769 208 q 662 52 711 94 q 545 -6 613 10 q 394 -3 478 -21 l 394 -3 m 439 192 q 539 208 500 176 q 585 297 578 238 q 558 401 592 356 q 443 451 524 446 q 397 444 414 454 q 331 390 371 431 l 285 343 q 439 192 329 219 l 439 192 z "},"7":{"ha":767,"x_min":40,"x_max":736,"o":"m 354 63 q 301 10 339 25 q 227 10 264 -6 q 175 64 190 26 q 176 138 160 101 l 218 239 q 268 356 253 322 l 314 456 q 399 636 344 521 q 460 758 454 751 q 486 813 476 796 l 386 813 q 139 811 192 813 q 70 839 99 811 q 41 907 42 867 q 68 976 40 947 q 136 1006 96 1004 q 388 1007 242 1007 q 546 1004 482 1007 q 604 1001 590 1003 q 629 997 618 1000 q 647 992 639 996 q 693 960 676 982 q 707 819 736 904 q 631 646 694 767 q 542 479 567 525 q 488 372 517 433 l 446 279 q 397 165 432 249 q 354 63 363 81 l 354 63 z "},"8":{"ha":835,"x_min":75,"x_max":776,"o":"m 421 -6 q 181 66 272 -6 q 81 253 90 138 q 98 378 75 317 q 167 486 121 439 q 106 599 122 535 q 101 729 89 663 q 212 917 122 839 q 433 994 301 994 q 624 931 543 994 q 732 774 704 868 q 736 626 754 704 q 660 493 718 549 q 757 335 738 422 q 733 167 776 247 q 607 42 692 88 q 421 -6 522 -6 l 421 -6 m 421 178 q 515 200 475 178 q 571 251 556 222 q 519 371 601 310 q 483 396 500 386 q 440 385 464 385 q 378 389 438 385 q 351 388 358 390 q 284 341 308 376 q 263 268 260 306 q 271 240 264 254 q 293 211 278 226 q 342 187 308 196 q 421 178 375 178 l 421 178 m 390 585 q 461 592 431 593 q 497 601 482 594 q 553 654 539 622 q 556 722 567 686 q 512 786 544 761 q 433 811 479 811 q 330 777 369 811 q 282 696 290 743 q 292 624 274 656 q 360 578 311 592 l 390 585 z "},"9":{"ha":814,"x_min":42,"x_max":717,"o":"m 679 92 q 645 27 676 53 q 574 5 614 1 q 509 40 535 8 q 488 111 483 71 q 504 372 497 218 q 482 365 489 367 q 394 351 433 351 q 214 393 292 353 q 92 504 136 433 q 47 649 51 569 q 69 793 42 728 q 154 921 97 867 q 293 994 213 975 q 672 903 469 1038 q 707 858 697 886 q 710 803 717 831 q 679 92 708 435 l 679 92 m 397 535 q 431 542 408 535 q 496 560 493 560 q 513 563 504 563 q 515 783 515 667 q 339 817 414 836 q 240 728 268 799 q 247 600 213 657 q 397 535 288 536 l 397 535 z "},"\r":{"ha":463,"x_min":0,"x_max":0,"o":""}," ":{"ha":375,"x_min":0,"x_max":0,"o":""}," ":{"ha":375,"x_min":0,"x_max":0,"o":""},"A":{"ha":849,"x_min":-3,"x_max":851,"o":"m 14 57 q 13 131 -3 94 l 324 932 q 358 975 335 958 q 411 993 382 992 q 472 983 442 999 q 517 938 501 967 l 619 682 l 740 383 l 836 133 q 835 59 851 96 q 781 7 819 22 q 706 8 743 -8 q 653 60 668 24 l 572 243 q 264 240 417 247 l 196 57 q 142 5 179 21 q 67 5 104 -11 q 14 57 29 21 l 14 57 m 344 439 q 497 439 397 439 l 424 639 l 344 439 l 344 439 z "},"B":{"ha":979,"x_min":101,"x_max":939,"o":"m 493 -4 q 340 -3 429 -7 q 286 -1 326 -3 q 225 3 246 1 q 214 1 219 1 q 169 13 189 1 q 129 49 144 25 q 114 101 114 72 q 117 121 114 111 q 118 353 117 186 q 117 637 119 519 q 104 872 114 754 q 124 941 101 911 q 182 978 146 971 q 229 993 203 992 q 287 994 249 993 q 340 997 325 996 q 469 996 415 1000 q 738 911 638 986 q 838 751 822 847 q 811 578 850 672 q 782 540 800 551 q 914 376 885 486 q 911 211 939 281 q 806 86 885 143 q 493 -4 689 4 l 493 -4 m 485 186 q 694 243 624 192 q 731 279 726 265 q 726 329 736 293 q 601 394 714 382 q 465 399 550 401 q 329 397 347 397 l 310 400 q 308 190 308 203 q 350 188 335 189 q 485 186 431 185 l 485 186 m 507 603 q 635 658 615 613 q 647 718 651 696 q 625 750 644 733 q 458 797 569 790 q 347 797 413 800 q 303 796 331 797 q 310 611 307 711 q 507 603 435 597 l 507 603 z "},"C":{"ha":986,"x_min":44,"x_max":946,"o":"m 533 -17 q 331 21 425 -17 q 182 122 238 58 q 86 295 128 182 q 44 494 44 408 q 113 744 44 626 q 297 935 182 863 q 543 1007 413 1007 q 704 976 625 1007 q 805 918 765 951 q 906 810 844 885 q 938 740 938 772 q 908 674 938 703 q 840 646 878 646 q 772 679 800 646 l 711 751 q 638 803 683 786 q 544 819 592 819 q 394 774 465 819 q 278 655 322 729 q 235 497 235 581 q 263 360 235 429 q 326 247 290 292 q 421 192 354 214 q 561 169 488 169 q 656 185 617 169 q 714 226 694 200 q 744 294 728 246 l 767 350 q 849 406 794 406 q 916 378 886 406 q 946 313 946 351 q 938 275 946 296 l 925 240 q 898 174 911 203 q 864 115 885 146 q 724 14 813 44 q 533 -17 635 -17 l 533 -17 z "},"D":{"ha":967,"x_min":103,"x_max":919,"o":"m 219 0 q 201 1 210 0 q 135 31 163 3 q 107 99 107 60 q 106 498 108 161 q 108 899 103 835 q 140 964 110 936 q 210 990 169 992 q 235 994 222 994 q 315 1001 289 1000 q 399 1005 340 1003 q 499 1000 458 1007 q 592 981 540 993 q 690 944 644 969 q 774 885 736 919 q 883 728 846 819 q 918 528 919 636 q 887 330 917 421 q 794 165 857 239 q 649 49 732 90 q 418 0 561 7 q 314 -1 389 -1 q 219 0 239 0 l 219 0 m 410 190 q 563 221 513 197 q 690 356 646 261 q 722 566 735 450 q 643 743 710 682 q 506 804 589 792 q 300 807 424 817 q 299 604 299 675 q 300 394 299 533 q 301 192 301 256 q 410 190 369 189 l 410 190 z "},"E":{"ha":903,"x_min":103,"x_max":864,"o":"m 768 -1 q 207 3 563 -1 q 156 19 179 3 q 122 58 133 35 q 106 113 106 83 q 104 504 107 161 q 117 897 103 754 q 125 931 118 915 q 160 976 136 958 q 214 994 183 993 q 488 995 315 996 q 761 996 660 994 q 830 968 801 996 q 858 901 858 940 q 831 833 858 861 q 764 804 804 804 q 532 805 686 804 q 300 804 378 806 q 294 604 296 719 q 706 606 361 606 q 774 578 746 606 q 803 510 803 550 q 774 442 803 471 q 706 414 746 414 q 296 413 360 414 q 297 193 299 257 q 768 190 579 190 q 836 163 808 190 q 864 94 864 135 q 836 26 864 54 q 768 -1 808 -1 l 768 -1 z "},"F":{"ha":839,"x_min":103,"x_max":817,"o":"m 113 97 q 113 290 113 126 q 113 513 114 453 q 110 688 113 572 q 104 896 108 804 q 130 965 103 936 q 197 997 157 994 l 204 997 q 721 997 396 1000 q 789 968 760 997 q 817 899 817 939 q 788 831 817 860 q 718 803 758 803 q 301 804 460 806 q 306 618 304 715 q 667 622 501 618 q 736 594 707 622 q 766 527 765 567 q 739 458 767 488 q 672 428 711 429 q 307 424 506 425 l 307 97 q 278 28 307 57 q 210 0 250 0 q 141 28 169 0 q 113 97 113 57 l 113 97 z "},"G":{"ha":1021,"x_min":43,"x_max":972,"o":"m 874 160 q 719 38 807 79 q 543 -2 632 -3 q 368 29 454 -1 q 211 122 282 60 q 99 267 140 185 q 44 478 46 368 q 83 681 43 589 q 194 846 122 774 q 358 960 268 921 q 561 996 450 1000 q 775 931 672 992 q 824 899 803 917 q 865 861 846 882 q 894 828 885 840 q 924 790 904 817 q 949 757 943 764 q 967 685 972 725 q 929 622 961 646 q 858 604 897 599 q 794 642 819 610 l 767 678 l 744 708 q 727 729 739 717 q 705 749 715 742 q 679 767 694 757 q 492 801 582 817 q 332 713 401 785 q 242 545 260 640 q 268 356 224 450 q 399 222 314 265 q 575 195 485 179 q 725 283 665 211 q 757 335 753 315 q 761 353 760 344 q 608 349 721 354 q 539 374 568 347 q 508 440 510 400 q 533 510 507 481 q 600 540 560 539 q 854 544 713 544 q 924 515 894 544 q 953 443 954 486 l 953 411 q 952 345 954 378 q 944 288 950 313 q 874 160 928 225 l 874 160 z "},"H":{"ha":1028,"x_min":100,"x_max":924,"o":"m 301 96 q 272 28 301 57 q 203 0 243 0 q 135 29 164 0 q 107 99 107 58 q 104 488 108 206 q 103 903 100 771 q 133 970 104 943 q 203 997 163 997 q 270 967 243 996 q 297 897 297 938 q 296 631 294 792 q 728 639 581 639 q 729 901 728 792 q 759 969 731 942 q 828 997 788 997 q 896 967 868 996 q 924 899 924 939 q 922 96 922 808 q 894 27 922 56 q 825 -1 865 -1 q 756 27 785 -1 q 728 96 728 56 l 728 444 q 299 436 583 446 q 301 96 301 208 l 301 96 z "},"I":{"ha":474,"x_min":58,"x_max":415,"o":"m 158 -4 q 89 23 118 -4 q 58 90 60 50 q 81 155 58 126 q 139 189 104 183 q 138 801 140 431 q 82 835 104 808 q 60 897 60 861 q 89 965 60 938 q 158 993 118 993 l 315 992 q 383 963 356 992 q 411 893 411 933 q 388 832 411 858 q 331 799 365 806 q 333 193 335 433 q 391 161 368 188 q 415 100 414 135 q 388 31 415 60 q 321 0 361 1 l 158 -4 l 158 -4 z "},"J":{"ha":754,"x_min":4,"x_max":767,"o":"m 371 4 q 265 -15 317 -15 q 160 15 213 -15 q 68 100 107 44 q 31 189 44 135 q 22 222 31 190 q 17 246 19 238 q 22 320 4 285 q 78 368 40 356 q 152 363 117 381 q 200 307 188 344 q 211 268 206 290 q 214 256 211 267 l 218 238 q 229 208 224 215 q 299 183 257 167 q 350 220 326 194 q 382 276 374 246 q 407 401 399 335 q 414 542 415 468 q 410 658 413 617 q 401 803 408 699 q 333 800 372 801 q 263 826 293 799 q 232 894 233 854 q 258 963 231 933 q 325 994 286 993 q 674 994 539 1001 q 740 962 714 992 q 765 892 767 932 q 733 825 763 851 q 663 800 703 799 q 596 803 629 803 q 607 609 604 681 q 601 439 610 538 q 568 224 593 311 q 494 90 547 150 q 371 4 440 31 l 371 4 z "},"K":{"ha":944,"x_min":100,"x_max":913,"o":"m 422 429 l 306 333 q 315 90 310 221 q 290 22 317 51 q 223 -10 263 -8 q 153 15 183 -12 q 121 82 124 42 q 106 915 100 510 q 135 983 107 956 q 204 1010 164 1011 q 272 981 244 1010 q 300 913 300 953 q 300 581 297 736 q 704 976 518 767 q 772 1007 732 1006 q 841 981 811 1008 q 872 913 871 953 q 846 843 874 874 q 568 558 710 688 l 888 147 q 907 76 913 117 q 872 11 903 36 q 800 -9 840 -14 q 735 28 760 -4 l 422 429 z "},"L":{"ha":800,"x_min":104,"x_max":793,"o":"m 219 -3 q 143 36 172 -1 q 114 104 115 64 q 108 506 113 246 l 104 896 q 132 965 104 936 q 200 994 160 993 q 269 967 240 994 q 299 899 297 939 l 303 535 l 307 185 q 505 186 375 185 q 696 188 635 188 q 765 160 736 188 q 793 94 793 133 q 765 27 793 56 q 696 -1 736 -1 q 458 -3 650 -1 q 219 -3 265 -4 l 219 -3 z "},"M":{"ha":1197,"x_min":101,"x_max":1094,"o":"m 1092 93 q 1061 25 1090 53 q 992 -1 1032 -3 q 924 29 951 0 q 897 99 896 58 q 894 632 900 189 q 692 356 792 503 q 629 315 668 322 q 557 329 590 307 q 550 335 553 332 q 524 358 535 344 l 310 628 q 310 362 311 625 q 310 97 310 99 q 281 28 310 57 q 213 0 253 0 q 144 28 172 0 q 115 97 115 57 q 116 293 115 156 q 117 506 117 431 q 114 692 117 581 q 104 896 111 790 q 128 967 101 936 q 194 1000 154 997 q 233 994 215 1001 q 296 957 272 989 l 604 569 q 910 944 754 778 q 996 993 939 994 q 1064 963 1036 992 q 1090 893 1092 933 q 1090 490 1086 761 q 1092 93 1094 218 l 1092 93 z "},"N":{"ha":1043,"x_min":101,"x_max":940,"o":"m 842 6 q 751 39 788 -4 q 517 364 658 149 q 299 660 363 582 q 306 413 300 604 q 311 96 311 222 q 283 27 311 56 q 214 -1 254 -1 q 145 27 174 -1 q 117 96 117 56 q 109 491 117 218 q 107 904 101 764 q 138 972 108 944 q 207 999 167 1000 q 244 990 226 997 q 290 960 271 982 q 367 867 314 931 q 446 772 419 804 q 676 475 524 692 l 743 379 q 744 903 747 701 q 772 972 744 943 q 840 1001 800 1000 q 909 974 881 1001 q 939 906 938 946 q 935 101 940 717 q 907 35 933 63 q 842 6 881 8 l 842 6 z "},"O":{"ha":1017,"x_min":42,"x_max":974,"o":"m 461 -12 q 278 33 358 -8 q 148 142 197 75 q 72 287 99 208 q 44 450 46 365 q 63 626 42 544 q 124 783 83 708 q 235 915 165 857 q 392 997 304 972 q 471 1006 426 1006 l 500 1006 q 532 1004 522 1006 q 553 1003 542 1003 q 624 999 597 1001 q 696 981 651 996 q 783 936 740 965 q 927 768 881 869 q 972 558 974 667 q 935 349 971 449 q 865 212 908 276 q 761 95 821 147 q 624 14 701 43 q 461 -12 546 -15 l 461 -12 m 469 178 q 634 243 557 175 q 750 415 711 311 q 770 626 793 532 q 675 771 747 721 q 645 790 657 783 q 617 801 633 796 q 585 808 601 807 q 558 810 568 810 q 533 811 549 810 q 511 815 518 813 q 485 817 504 817 q 447 813 467 819 q 292 683 349 776 q 239 457 236 589 q 303 260 242 339 q 469 178 364 181 l 469 178 z "},"P":{"ha":869,"x_min":103,"x_max":857,"o":"m 303 88 q 274 19 303 47 q 206 -10 246 -10 q 137 19 165 -10 q 108 88 108 47 q 106 492 108 128 q 107 896 103 856 q 138 963 108 936 q 207 990 167 990 q 221 989 214 990 q 228 990 224 989 q 493 1013 397 1018 q 779 881 682 1000 q 856 685 854 789 q 790 510 857 581 q 654 417 736 450 q 488 379 572 383 q 428 379 460 378 q 351 385 396 381 q 300 390 306 389 q 303 88 303 181 l 303 88 m 479 574 q 576 594 531 575 q 644 639 622 613 q 660 662 656 651 q 658 701 664 672 q 629 758 651 731 q 481 818 585 813 q 300 806 411 822 q 299 585 299 713 l 300 585 l 365 578 q 428 574 401 575 q 479 574 454 572 l 479 574 z "},"Q":{"ha":1050,"x_min":44,"x_max":1026,"o":"m 885 -12 q 744 51 803 21 q 667 19 704 32 q 485 -2 563 -11 q 313 51 407 7 q 160 169 222 97 q 71 323 97 240 q 44 497 44 406 q 72 671 44 588 q 151 829 99 754 q 276 957 204 904 q 324 985 296 971 q 381 1009 353 999 q 410 1021 408 1019 q 511 1008 465 1047 l 526 1011 q 621 1018 588 1019 q 728 993 679 1017 q 832 919 778 969 q 966 715 919 839 q 1006 457 1013 592 q 938 219 999 322 q 911 183 926 201 l 960 163 q 1010 111 994 147 q 1010 39 1026 75 q 958 -13 994 3 q 885 -12 922 -29 l 885 -12 m 511 217 q 479 282 482 242 q 503 350 476 319 q 568 383 529 381 q 638 358 607 386 q 739 279 692 313 q 774 318 763 300 q 810 558 832 415 q 703 778 788 701 q 615 828 650 826 q 553 822 597 828 q 440 808 482 813 q 407 813 424 808 q 388 801 397 807 q 289 696 328 758 q 240 563 250 631 q 243 430 231 496 q 296 310 256 364 q 397 224 336 254 q 544 188 485 182 l 511 217 z "},"R":{"ha":951,"x_min":104,"x_max":908,"o":"m 710 74 q 654 289 678 217 q 597 381 629 351 q 497 421 563 413 q 456 419 482 419 q 428 418 429 418 q 344 415 374 417 l 303 415 q 304 96 304 226 q 276 27 304 56 q 207 -1 247 -1 q 138 27 167 -1 q 110 96 110 56 q 107 513 110 253 q 104 901 104 772 q 133 970 104 942 q 201 999 161 999 l 208 999 q 578 997 407 1024 q 786 924 710 978 q 894 707 901 843 q 756 496 886 574 q 836 356 806 438 q 899 121 867 275 q 888 47 908 82 q 828 3 867 13 q 754 14 789 -7 q 710 74 719 35 l 710 74 m 304 610 q 501 615 419 624 q 521 618 513 617 q 653 660 603 632 q 700 718 699 686 q 676 764 703 746 q 547 806 635 793 q 299 813 442 822 q 300 610 299 728 l 304 610 z "},"S":{"ha":843,"x_min":50,"x_max":797,"o":"m 429 -12 q 236 21 322 -15 q 100 126 150 57 q 50 288 50 196 q 82 374 50 343 q 154 406 114 406 q 219 377 194 406 q 244 314 244 349 q 249 256 244 279 q 269 214 253 233 q 432 175 301 175 q 553 204 503 175 q 603 288 603 233 q 544 357 603 324 q 365 426 504 379 q 138 542 214 476 q 61 722 61 608 q 111 875 61 810 q 242 975 161 940 q 415 1010 324 1010 q 597 979 510 1013 q 738 884 685 946 q 792 744 792 822 q 761 673 792 703 q 690 643 731 643 q 636 660 663 643 q 603 701 610 676 q 578 753 594 735 q 536 786 563 771 q 474 814 501 806 q 394 822 446 822 q 294 799 333 822 q 254 740 254 776 q 299 665 254 694 q 426 610 344 636 q 638 528 585 557 q 761 425 725 479 q 797 289 797 371 q 744 133 797 201 q 606 26 692 64 q 429 -12 521 -12 l 429 -12 z "},"T":{"ha":790,"x_min":10,"x_max":781,"o":"m 486 96 q 456 28 485 56 q 388 1 428 0 q 319 30 347 1 q 292 99 292 58 q 290 492 293 142 q 296 806 289 679 q 108 804 185 806 q 40 832 68 804 q 10 900 11 860 q 38 969 10 940 q 106 999 65 997 q 393 1001 193 1000 q 681 1001 593 1001 q 750 974 721 1001 q 780 906 779 946 q 753 837 781 867 q 686 807 725 807 q 490 806 599 807 q 485 493 483 685 q 486 96 488 139 l 486 96 z "},"U":{"ha":989,"x_min":74,"x_max":918,"o":"m 140 163 q 83 343 96 225 q 78 549 74 426 q 90 751 81 615 q 99 900 99 865 q 128 968 100 940 q 197 995 157 996 q 265 966 238 994 q 292 897 293 938 q 283 738 292 857 q 272 543 274 593 q 276 365 268 433 q 299 274 283 296 q 407 200 338 218 q 544 204 476 182 q 653 285 614 228 q 722 558 718 379 q 718 726 724 622 q 708 896 710 865 q 735 965 708 936 q 803 995 763 994 q 872 969 843 996 q 903 901 901 942 q 911 738 903 874 q 915 553 918 625 q 814 176 910 317 q 669 51 760 97 q 484 -1 579 4 q 294 35 389 -7 q 140 163 200 76 l 140 163 z "},"V":{"ha":854,"x_min":18,"x_max":846,"o":"m 465 -1 q 390 -3 428 -18 q 338 49 353 13 q 240 293 283 175 l 132 592 q 31 868 60 790 q 35 942 18 906 q 89 992 51 979 q 163 989 126 1006 q 214 935 200 972 l 321 642 q 425 353 386 454 q 651 942 558 728 q 704 993 667 978 q 778 992 742 1008 q 831 939 815 976 q 829 864 846 901 q 718 594 765 722 l 613 303 q 524 58 554 138 q 479 7 511 24 q 465 -1 472 1 l 465 -1 z "},"W":{"ha":1283,"x_min":19,"x_max":1275,"o":"m 332 -1 q 268 15 296 -7 q 233 74 240 38 q 135 460 203 200 q 28 883 74 701 q 42 956 19 922 q 103 997 64 989 q 175 983 142 1006 q 217 922 208 961 q 351 363 258 739 q 563 936 454 643 q 599 980 574 964 q 653 996 624 996 q 714 976 686 996 q 767 842 742 956 l 865 563 l 926 353 q 988 601 938 388 q 1078 932 1039 815 q 1124 989 1089 969 q 1198 997 1160 1008 q 1256 951 1236 986 q 1264 876 1275 915 q 1185 600 1225 761 q 1132 396 1144 439 l 1078 231 l 1032 74 q 1002 25 1024 44 q 951 3 981 6 q 884 10 915 -7 q 838 64 853 26 q 706 460 769 257 q 642 638 671 568 l 432 61 q 392 12 419 29 q 332 -1 365 -6 l 332 -1 z "},"X":{"ha":824,"x_min":22,"x_max":806,"o":"m 200 39 q 137 1 176 7 q 65 19 97 -4 q 28 81 33 43 q 46 153 22 119 l 293 494 q 44 856 126 722 q 29 922 22 886 q 67 980 36 958 q 135 994 97 1001 q 193 956 172 988 q 406 644 271 844 l 617 954 q 681 992 642 986 q 752 973 721 997 q 789 910 783 949 q 771 840 794 872 l 526 489 q 785 138 678 294 q 798 70 806 106 q 759 14 790 35 q 691 1 728 -7 q 633 40 654 8 q 414 338 536 168 l 200 39 l 200 39 z "},"Y":{"ha":817,"x_min":7,"x_max":824,"o":"m 319 92 q 319 187 319 126 q 318 282 318 247 l 318 361 l 179 592 q 26 854 76 760 q 18 927 7 889 q 65 985 29 965 q 138 993 100 1004 q 196 946 176 982 q 404 594 242 864 l 479 711 l 638 950 q 697 993 658 983 q 770 981 736 1003 q 814 921 804 960 q 801 847 824 882 q 640 603 793 833 q 511 396 558 479 q 513 256 513 364 q 514 97 513 147 q 488 28 515 57 q 419 -3 460 -1 q 350 24 379 -4 q 319 92 321 51 l 319 92 z "},"Z":{"ha":856,"x_min":24,"x_max":835,"o":"m 422 0 q 113 6 233 0 q 49 36 74 7 q 25 104 24 65 q 56 171 26 143 q 186 338 96 215 q 569 801 526 724 q 128 806 268 796 q 64 838 89 808 q 42 907 39 867 q 73 973 44 947 q 139 996 101 999 q 328 989 231 990 q 553 990 426 988 q 743 993 681 993 q 808 965 781 993 q 835 899 835 938 q 814 836 835 863 q 810 828 811 832 q 697 667 765 753 q 333 225 628 582 l 306 190 q 418 188 351 190 q 738 193 683 193 q 802 165 775 193 q 829 99 829 138 q 802 33 829 61 q 738 6 775 6 q 422 0 686 6 l 422 0 z "},"a":{"ha":797,"x_min":50,"x_max":722,"o":"m 346 -1 q 238 18 296 -1 q 117 100 165 46 q 58 221 69 156 q 50 304 50 264 q 86 479 50 397 q 226 665 136 594 q 432 736 317 736 q 522 725 474 736 q 585 696 554 717 l 592 696 l 606 697 q 667 672 640 697 q 699 611 694 647 l 708 515 q 715 307 711 454 l 718 232 q 722 141 721 163 q 719 100 722 119 q 690 31 714 60 q 626 1 665 3 q 569 17 594 0 q 532 81 543 35 q 454 24 500 42 q 346 -1 400 1 l 346 -1 m 347 194 q 433 221 389 194 q 458 242 444 228 l 479 261 l 503 294 q 522 308 511 304 q 515 506 522 425 l 501 515 l 482 531 l 469 539 q 435 544 447 544 q 338 506 385 544 q 264 397 292 467 q 242 300 242 343 q 259 238 242 263 q 308 201 276 213 q 347 194 329 194 l 347 194 z "},"b":{"ha":817,"x_min":75,"x_max":788,"o":"m 171 1 q 103 33 131 3 q 76 101 75 63 q 78 900 85 347 q 106 969 78 940 q 174 998 133 997 q 242 971 214 999 q 272 903 271 943 q 273 813 272 881 q 274 714 274 744 l 293 722 q 458 743 382 754 q 597 683 533 732 q 747 446 708 600 q 728 178 788 303 q 628 60 693 106 q 471 4 563 14 q 263 38 353 -10 l 246 49 q 171 1 215 0 l 171 1 m 451 196 q 553 261 525 204 q 560 397 582 324 q 481 529 538 486 q 365 542 429 567 q 311 507 356 538 q 278 464 286 486 l 276 463 q 275 301 276 368 q 304 265 289 286 l 328 235 q 354 210 344 214 q 451 196 390 190 l 451 196 z "},"c":{"ha":760,"x_min":49,"x_max":728,"o":"m 519 6 q 394 -11 456 -17 q 276 17 333 -6 q 125 135 188 53 q 54 315 63 217 q 81 483 49 397 q 174 629 114 568 q 270 701 217 674 q 392 735 324 728 q 529 711 460 742 q 608 661 567 696 q 626 644 611 658 l 651 624 q 688 560 683 599 q 668 491 693 522 q 603 455 643 460 q 532 475 564 450 q 479 519 529 476 q 454 538 463 533 q 315 500 379 568 q 263 418 282 465 q 249 329 244 371 q 279 249 251 290 q 353 190 307 208 q 435 177 401 172 q 490 203 469 182 q 507 232 497 210 q 538 299 536 296 q 594 345 556 333 q 668 340 632 357 q 716 285 704 322 q 710 213 728 247 q 701 195 706 204 q 693 175 697 186 q 685 157 689 164 q 632 74 663 104 q 519 6 585 25 l 519 6 z "},"d":{"ha":811,"x_min":53,"x_max":735,"o":"m 372 -14 q 219 28 293 -14 q 99 149 146 69 q 53 335 53 228 q 97 538 53 444 q 222 685 142 631 q 400 740 301 740 q 536 715 471 740 q 533 899 535 878 q 563 970 533 944 q 631 996 592 996 q 697 971 668 996 q 728 901 726 946 q 735 94 735 219 q 712 17 735 44 q 647 -10 689 -10 q 585 13 610 -10 q 557 83 561 36 q 483 13 526 39 q 372 -14 439 -14 l 372 -14 m 407 171 q 481 200 451 171 q 525 281 506 225 q 542 313 535 306 q 539 488 539 432 q 523 502 536 490 q 489 529 510 514 q 399 553 453 553 q 287 493 328 553 q 246 350 246 433 q 290 222 246 272 q 407 171 335 171 l 407 171 z "},"e":{"ha":799,"x_min":56,"x_max":757,"o":"m 421 -12 q 226 35 310 -12 q 99 161 143 82 q 56 336 56 240 q 100 545 56 457 q 228 685 144 633 q 417 736 311 736 q 602 692 525 736 q 718 572 679 647 q 757 403 757 496 q 726 329 757 356 q 644 299 696 303 q 460 289 540 289 q 296 293 383 289 l 247 294 q 301 188 256 226 q 438 153 346 150 q 504 163 479 154 q 549 190 529 172 q 572 214 560 201 q 600 233 585 226 q 638 240 615 240 q 698 216 674 240 q 722 160 722 192 q 678 75 722 115 q 563 11 633 35 q 421 -12 493 -12 l 421 -12 m 250 436 q 432 428 332 425 q 572 440 528 429 q 537 536 569 500 q 419 571 504 572 q 304 539 349 569 q 250 436 260 508 l 250 436 z "},"f":{"ha":519,"x_min":17,"x_max":536,"o":"m 215 0 q 146 27 175 0 q 118 103 117 54 l 119 153 q 124 400 124 286 q 122 519 124 478 l 106 519 q 40 544 64 519 q 17 608 17 569 q 38 681 17 654 q 92 708 58 708 l 111 708 l 111 785 q 165 947 111 889 q 317 1007 219 1004 q 472 974 408 1007 q 536 878 536 942 q 514 819 536 844 q 458 793 492 793 q 410 804 440 793 q 350 818 376 818 q 301 776 306 818 q 301 751 300 767 q 303 717 303 736 l 303 714 l 372 713 q 443 683 418 711 q 468 617 468 656 q 441 548 468 576 q 367 519 414 519 l 315 519 q 318 369 318 414 q 314 142 318 267 l 313 89 q 283 24 311 47 q 215 0 254 0 l 215 0 z "},"g":{"ha":788,"x_min":50,"x_max":715,"o":"m 374 -286 q 255 -263 307 -286 q 150 -193 203 -240 q 106 -143 119 -167 q 93 -94 93 -119 q 119 -28 93 -54 q 185 -1 146 -1 q 257 -37 231 -1 q 318 -95 288 -78 q 383 -112 349 -112 q 489 -57 450 -112 q 540 83 528 -1 q 460 18 513 39 q 349 -3 408 -3 q 200 41 268 -3 q 91 165 132 85 q 50 347 50 244 q 92 549 50 461 q 210 687 133 638 q 385 736 286 736 q 539 692 457 736 q 570 723 547 711 q 626 735 593 735 q 687 709 664 735 q 711 638 710 683 q 711 94 715 376 q 674 -65 708 11 q 581 -203 640 -140 q 489 -265 539 -244 q 374 -286 439 -286 l 374 -286 m 371 178 q 479 229 428 178 q 506 265 494 244 q 525 303 518 286 q 524 510 525 478 q 461 545 492 535 q 385 556 431 556 q 270 500 307 556 q 233 347 233 444 q 271 224 233 271 q 371 178 308 178 l 371 178 z "},"h":{"ha":758,"x_min":76,"x_max":689,"o":"m 185 -6 q 117 19 146 -6 q 88 90 88 44 q 82 486 88 219 q 76 915 76 753 q 106 986 76 961 q 174 1011 135 1011 q 242 986 213 1011 q 271 915 271 961 q 272 681 271 751 q 331 717 300 701 q 432 739 375 739 q 578 697 513 739 q 668 588 644 656 q 688 458 685 538 q 689 371 689 435 l 689 317 l 681 85 q 653 21 679 43 q 590 -1 626 -1 q 524 24 551 -1 q 497 93 496 49 l 506 319 l 507 394 l 506 451 q 499 511 503 500 q 426 553 485 553 q 343 535 383 553 q 276 488 300 514 q 282 90 282 219 q 253 19 282 44 q 185 -6 224 -6 l 185 -6 z "},"i":{"ha":340,"x_min":64,"x_max":269,"o":"m 69 94 q 74 646 65 389 q 105 713 75 686 q 175 739 135 740 q 242 708 215 738 q 268 638 269 678 q 264 97 260 378 q 236 28 264 57 q 168 -1 208 0 q 99 26 128 -1 q 69 94 71 54 l 69 94 m 235 976 q 264 906 264 949 q 235 835 264 864 q 164 806 206 806 q 93 835 122 806 q 64 906 64 864 q 93 978 64 949 q 164 1007 122 1007 q 235 976 206 1007 l 235 976 z "},"j":{"ha":371,"x_min":-71,"x_max":301,"o":"m 42 -283 q -30 -264 1 -289 q -66 -199 -61 -239 q -46 -127 -71 -158 q 19 -92 -21 -96 q 93 -90 43 -89 q 100 -36 97 -68 q 108 190 108 47 q 104 365 107 267 q 98 547 101 464 q 93 639 94 629 q 119 708 92 678 q 187 739 147 738 q 256 713 226 740 q 288 644 286 685 q 291 552 288 636 q 298 368 294 468 q 301 192 301 268 q 293 -56 301 24 q 276 -156 288 -117 q 214 -253 257 -224 q 99 -283 168 -283 q 62 -283 82 -283 q 42 -283 42 -282 l 42 -283 m 242 972 q 271 904 271 944 q 242 835 271 864 q 174 807 214 807 q 105 835 133 807 q 76 904 76 864 q 105 973 76 944 q 174 1001 133 1001 q 242 972 214 1001 l 242 972 z "},"k":{"ha":728,"x_min":75,"x_max":707,"o":"m 540 28 q 346 263 425 146 l 290 210 q 285 206 288 208 l 285 93 q 255 25 283 53 q 186 -2 226 -3 q 118 27 146 -1 q 90 96 90 56 q 76 896 94 346 q 102 965 75 936 q 169 997 129 994 q 239 972 210 999 q 271 904 268 944 q 283 471 279 661 q 511 704 392 576 q 578 735 539 733 q 648 708 618 736 q 679 641 678 681 q 653 571 681 601 l 488 401 q 679 161 565 278 q 706 93 707 133 q 677 25 706 53 q 608 -2 649 -3 q 540 28 568 -1 l 540 28 z "},"l":{"ha":349,"x_min":76,"x_max":272,"o":"m 271 79 q 241 11 269 39 q 172 -16 213 -17 q 104 13 132 -15 q 76 82 76 42 q 78 482 79 82 l 76 907 q 105 976 76 947 q 174 1004 133 1004 q 242 976 214 1004 q 271 907 271 947 q 272 631 271 796 q 272 331 272 465 q 271 79 272 197 l 271 79 z "},"m":{"ha":1185,"x_min":76,"x_max":1115,"o":"m 686 88 q 657 24 685 50 q 592 -1 629 -3 q 528 28 554 0 q 503 93 501 56 q 507 175 504 117 l 510 256 q 510 342 511 290 q 504 428 508 394 q 503 439 503 433 q 492 490 499 468 q 458 534 483 517 q 396 554 433 551 q 324 545 357 558 q 276 508 292 532 q 272 493 275 504 l 272 488 q 275 97 275 235 q 247 28 275 57 q 178 0 218 0 q 109 28 138 0 q 81 97 81 57 q 76 636 81 229 q 104 705 76 676 q 172 735 132 733 q 240 708 211 735 q 411 738 321 746 q 592 661 518 728 q 706 722 642 704 q 832 735 769 740 q 989 678 918 726 q 1088 543 1060 629 q 1109 417 1103 496 q 1115 295 1115 339 q 1110 171 1114 251 q 1107 89 1107 90 q 1078 25 1106 51 q 1013 0 1050 -1 q 949 29 975 1 q 924 94 922 57 q 927 185 924 111 q 931 296 931 260 q 928 393 932 332 q 913 488 924 454 q 879 531 904 514 q 817 551 854 549 q 745 542 778 556 q 697 506 713 529 q 693 490 696 501 q 693 482 693 486 l 690 471 q 690 463 690 467 q 688 440 689 450 q 693 336 692 397 q 693 238 694 275 q 689 151 692 200 q 686 88 686 101 l 686 88 z "},"n":{"ha":775,"x_min":68,"x_max":706,"o":"m 697 88 q 668 24 696 50 q 603 -1 640 -3 q 539 28 565 0 q 514 93 513 56 q 517 185 514 108 q 522 303 521 261 q 518 399 522 344 q 503 488 514 454 q 469 531 494 514 q 407 551 444 549 q 335 542 368 556 q 288 506 303 529 q 281 481 282 488 q 281 463 281 475 q 282 288 281 414 q 283 97 283 163 q 255 28 283 57 q 186 0 226 0 q 117 28 146 0 q 89 97 89 57 q 87 336 89 156 q 75 613 85 517 q 94 692 68 663 q 163 722 121 722 q 250 650 238 718 q 426 735 314 731 q 588 681 525 733 q 678 543 650 629 q 699 424 693 496 q 705 302 706 351 q 701 171 704 253 q 697 88 697 89 l 697 88 z "},"o":{"ha":792,"x_min":43,"x_max":743,"o":"m 328 -10 q 139 101 207 14 q 56 301 69 189 q 79 510 43 406 q 196 683 115 615 q 278 726 228 711 q 307 735 279 726 q 324 740 318 738 q 401 738 363 756 q 576 694 532 717 q 664 625 628 669 q 715 531 700 581 q 736 427 729 482 q 735 328 743 372 q 704 197 728 260 q 632 76 681 133 q 518 -4 583 19 q 328 -10 439 -32 l 328 -10 m 364 179 q 454 179 424 168 q 508 234 481 189 q 542 349 535 279 q 533 463 550 418 q 493 519 517 508 q 460 531 475 528 q 416 538 444 535 q 360 549 388 542 q 335 542 336 542 l 321 536 q 261 444 282 503 q 249 324 240 386 q 285 226 256 264 q 364 179 315 189 l 364 179 z "},"p":{"ha":797,"x_min":76,"x_max":753,"o":"m 271 -183 q 241 -251 269 -224 q 172 -278 213 -279 q 104 -249 132 -278 q 76 -181 76 -221 q 81 636 81 60 q 109 705 81 676 q 178 733 138 733 q 260 688 231 733 q 546 710 410 771 q 721 513 665 654 q 748 391 743 454 q 738 260 753 328 q 679 133 724 193 q 564 39 635 74 q 350 7 444 -21 q 274 43 311 18 q 271 -183 272 -64 l 271 -183 m 406 186 q 478 204 426 179 q 550 299 532 232 q 543 443 568 367 q 465 533 513 511 q 371 538 417 556 q 275 443 325 519 l 275 283 q 338 209 303 232 q 406 186 372 186 l 406 186 z "},"q":{"ha":799,"x_min":49,"x_max":725,"o":"m 715 -186 q 685 -253 714 -226 q 615 -280 656 -281 q 548 -250 575 -279 q 521 -181 521 -221 q 525 61 524 -42 q 345 -1 433 3 q 182 54 257 -4 q 88 188 119 106 q 53 357 56 269 q 74 527 49 442 q 160 668 100 613 q 331 740 232 738 q 536 679 429 742 q 571 719 547 704 q 622 736 594 735 q 691 708 663 736 q 721 640 719 681 q 715 -186 725 279 l 715 -186 m 321 204 q 446 204 396 181 q 529 322 496 228 l 531 463 q 501 503 522 482 q 449 538 481 524 q 290 521 354 571 q 251 460 271 507 q 240 334 231 413 q 321 204 250 256 l 321 204 z "},"r":{"ha":554,"x_min":75,"x_max":558,"o":"m 108 29 q 79 96 79 57 q 78 313 78 233 q 78 344 75 329 q 76 624 76 499 q 105 706 76 678 q 174 735 133 735 q 227 719 203 735 q 263 663 251 703 q 429 732 318 693 q 499 728 465 744 q 546 676 533 713 q 542 606 558 640 q 490 560 526 572 q 272 472 363 515 q 271 346 267 428 q 274 99 272 258 q 245 29 274 58 q 177 0 217 0 q 108 29 138 0 l 108 29 z "},"s":{"ha":683,"x_min":38,"x_max":642,"o":"m 340 -10 q 222 6 279 -10 q 125 49 164 21 q 72 111 96 72 l 63 128 l 50 150 q 38 193 38 174 q 67 256 38 229 q 135 283 97 283 q 210 242 182 283 l 226 214 l 235 197 q 267 171 243 181 q 329 160 303 160 q 378 164 349 160 q 454 210 451 179 l 454 215 q 439 247 454 232 q 356 290 421 264 l 294 314 q 221 343 243 332 q 89 451 119 388 q 68 533 68 493 q 82 596 68 567 q 211 706 110 664 q 349 732 278 732 q 390 729 363 732 q 604 633 513 717 q 633 569 633 608 q 608 504 633 533 q 544 475 582 475 q 486 494 515 475 l 453 519 q 418 540 429 536 q 339 554 376 554 q 279 547 304 554 q 261 528 261 540 q 270 514 261 519 q 300 499 279 508 q 372 472 325 488 q 438 447 404 463 q 487 426 460 438 q 543 393 514 414 q 615 317 589 363 q 642 217 642 272 q 640 189 642 199 q 562 56 628 103 q 404 -6 496 8 q 340 -10 374 -10 l 340 -10 z "},"t":{"ha":464,"x_min":-14,"x_max":443,"o":"m 338 -3 q 283 15 310 -3 q 254 29 268 21 l 218 50 q 135 110 163 82 q 106 170 111 140 q 99 258 100 200 l 99 286 q 97 474 97 326 q 99 564 97 533 l 72 564 q 12 588 38 564 q -14 650 -14 613 q 13 715 -14 689 q 74 740 39 740 l 99 740 l 100 800 l 100 843 q 130 912 101 888 q 196 936 158 936 q 265 910 235 936 q 294 838 294 883 l 292 743 l 343 743 q 418 717 393 743 q 443 650 443 690 q 417 584 443 611 q 339 557 390 557 l 288 557 q 286 472 288 500 q 285 389 285 443 q 290 235 285 300 q 297 229 296 229 l 311 219 l 322 214 l 335 207 l 346 201 q 389 176 371 190 q 432 99 432 147 q 404 28 432 60 q 338 -3 376 -3 l 338 -3 z "},"u":{"ha":779,"x_min":64,"x_max":704,"o":"m 603 -14 q 524 88 524 17 q 299 0 444 -24 q 192 50 238 17 q 122 129 147 83 q 85 220 97 175 q 68 317 72 265 q 68 408 64 344 q 75 503 72 472 q 85 587 78 533 q 93 653 92 640 q 128 715 99 692 q 197 734 158 739 q 258 699 235 729 q 278 631 282 669 l 268 558 q 258 481 261 507 q 252 403 256 456 q 253 329 249 351 q 280 226 258 261 q 347 179 301 190 q 415 184 378 171 q 490 257 453 197 q 507 271 499 265 q 506 636 508 475 q 533 706 506 678 q 602 735 561 735 q 672 708 643 736 q 701 639 700 681 q 701 82 704 433 q 672 14 701 43 q 603 -14 643 -14 l 603 -14 z "},"v":{"ha":660,"x_min":1,"x_max":654,"o":"m 274 6 q 219 72 231 25 q 218 79 219 76 q 19 599 129 372 q 12 669 1 632 q 56 724 22 706 q 125 733 89 743 q 179 688 161 722 q 329 335 256 529 q 489 686 410 539 q 540 729 508 718 q 604 720 572 740 q 645 664 636 700 q 633 593 654 628 l 604 531 l 506 325 l 483 276 l 460 221 q 438 169 443 182 q 415 110 433 156 l 393 56 q 344 6 378 21 q 274 6 310 -8 l 274 6 z "},"w":{"ha":910,"x_min":13,"x_max":897,"o":"m 268 -4 q 200 24 228 -4 q 151 122 172 51 q 22 589 90 322 q 22 660 13 628 q 58 712 32 693 q 117 731 83 731 q 207 649 189 731 q 276 365 233 526 l 286 329 q 335 504 306 385 l 371 636 q 409 699 383 678 q 467 719 435 719 q 524 701 499 719 q 560 642 549 682 l 647 344 l 706 636 q 803 731 725 731 q 875 692 853 731 q 885 597 897 653 q 751 76 813 276 q 711 17 739 38 q 650 -3 683 -3 q 591 17 617 -3 q 554 71 565 38 l 456 371 l 378 100 q 268 -4 347 -4 l 268 -4 z "},"x":{"ha":611,"x_min":3,"x_max":608,"o":"m 313 197 q 217 46 260 121 q 156 1 196 11 q 82 11 117 -10 q 37 73 47 32 q 47 149 26 114 q 185 369 110 254 l 28 569 q 7 643 3 601 q 42 710 11 685 q 114 732 74 736 q 181 696 154 728 l 304 539 l 411 694 q 475 732 435 726 q 547 713 515 738 q 585 646 579 688 q 565 571 590 604 l 429 374 l 585 154 q 601 79 608 121 q 561 15 594 38 q 488 -1 528 -8 q 425 39 447 6 l 313 197 z "},"y":{"ha":636,"x_min":3,"x_max":626,"o":"m 178 -251 q 112 -276 150 -278 q 47 -248 74 -275 q 22 -183 21 -221 q 50 -118 24 -144 q 97 -77 71 -99 q 138 -40 122 -56 q 168 -7 154 -25 q 218 63 194 25 q 213 75 214 68 l 17 606 q 19 680 3 643 q 72 731 35 717 q 147 728 110 744 q 197 675 183 713 l 332 299 q 440 668 364 383 q 483 722 450 704 q 553 730 517 740 q 608 686 590 719 q 615 615 626 653 q 594 527 611 603 q 569 431 576 451 q 545 353 563 410 q 517 268 528 296 l 486 188 q 450 104 467 138 l 411 29 q 364 -51 389 -14 q 313 -121 339 -87 q 268 -168 294 -144 l 213 -218 q 178 -251 185 -243 l 178 -251 z "},"z":{"ha":681,"x_min":22,"x_max":661,"o":"m 313 0 q 256 1 278 0 l 125 3 q 65 19 88 3 q 37 53 47 33 q 26 96 26 74 q 33 127 26 111 q 60 171 40 143 q 179 314 79 197 q 268 416 221 361 q 368 535 315 471 q 293 535 332 533 q 214 538 254 536 q 119 540 150 540 q 49 568 75 542 q 22 632 22 594 q 44 696 22 668 q 108 724 67 724 q 533 717 290 724 q 601 688 574 715 q 628 624 628 660 q 613 569 628 597 q 565 503 597 542 l 403 306 q 294 183 351 243 q 564 190 426 183 q 635 165 608 193 q 661 99 661 138 q 639 36 661 63 q 575 7 617 10 q 313 0 439 0 l 313 0 z "},"Á":{"ha":849,"x_min":-3,"x_max":851,"o":"m 14 57 q 13 131 -3 94 l 324 932 q 358 975 335 958 q 411 993 382 992 q 472 983 442 999 q 517 938 501 967 l 619 682 l 740 383 l 836 133 q 835 59 851 96 q 781 7 819 22 q 706 8 743 -8 q 653 60 668 24 l 572 243 q 264 240 417 247 l 196 57 q 142 5 179 21 q 67 5 104 -11 q 14 57 29 21 l 14 57 m 344 439 q 497 439 397 439 l 424 639 l 344 439 l 344 439 m 399 1056 q 335 1094 360 1063 q 317 1166 311 1126 q 356 1229 324 1206 l 486 1324 q 558 1343 519 1349 q 622 1304 597 1336 q 640 1233 646 1272 q 601 1169 633 1193 l 471 1075 q 399 1056 439 1050 l 399 1056 z "},"Ă":{"ha":861,"x_min":-1,"x_max":864,"o":"m 589 261 q 264 254 315 256 l 193 61 q 142 8 179 24 q 68 6 106 -8 q 15 56 31 19 q 13 131 -1 93 l 318 935 q 369 988 332 972 q 443 990 406 1004 q 465 978 456 986 q 515 929 500 964 q 628 679 572 808 l 758 360 l 847 135 q 848 60 864 97 q 795 8 832 24 q 722 8 758 -8 q 669 60 685 24 l 589 261 m 339 449 q 511 453 392 450 l 422 665 l 339 449 l 339 449 m 438 1046 q 319 1072 378 1046 q 221 1144 260 1099 q 178 1246 182 1190 q 210 1305 186 1283 q 261 1326 233 1326 q 310 1307 288 1326 q 343 1253 333 1288 q 345 1244 344 1250 q 344 1242 346 1239 l 333 1275 l 343 1253 q 394 1222 376 1231 q 425 1213 411 1213 q 453 1222 439 1213 q 489 1253 468 1232 q 483 1228 486 1236 l 485 1236 q 517 1296 493 1275 q 571 1317 540 1317 q 626 1292 603 1317 q 649 1228 649 1268 q 603 1131 649 1176 q 515 1060 560 1078 q 438 1046 482 1046 l 438 1046 z "},"Â":{"ha":831,"x_min":-3,"x_max":832,"o":"m 192 63 q 140 10 176 25 q 65 10 103 -6 q 13 63 28 26 q 14 138 -3 100 l 328 915 q 359 958 338 942 q 407 976 381 974 q 418 981 413 979 q 492 972 457 992 q 538 914 526 953 q 675 526 574 789 q 821 124 781 254 q 813 51 832 86 q 756 3 794 15 q 683 10 718 -8 q 635 68 647 29 q 575 243 610 149 q 423 247 426 247 q 267 240 419 247 l 192 63 l 192 63 m 347 439 q 500 439 421 442 l 494 456 l 426 635 l 347 439 l 347 439 m 283 1058 q 228 1095 249 1065 q 216 1159 208 1125 q 253 1214 224 1193 l 386 1306 q 415 1318 400 1315 q 429 1321 422 1319 q 493 1308 465 1328 l 624 1211 q 660 1156 653 1192 q 645 1093 667 1122 q 589 1057 624 1064 q 526 1071 554 1050 l 439 1136 l 349 1072 q 283 1058 318 1051 l 283 1058 z "},"Ä":{"ha":831,"x_min":-3,"x_max":832,"o":"m 192 65 q 140 13 176 28 q 65 13 103 -3 q 13 66 28 29 q 14 140 -3 103 l 328 932 q 359 974 338 958 q 407 993 381 990 q 418 997 413 996 q 492 989 457 1008 q 538 931 526 969 q 675 529 574 806 q 821 126 781 257 q 813 53 832 89 q 756 6 794 18 q 683 13 718 -6 q 635 71 647 32 q 575 246 610 151 q 423 250 426 250 q 267 243 419 250 l 192 65 l 192 65 m 347 442 q 500 442 421 444 l 494 458 l 426 638 l 347 442 l 347 442 m 379 1247 q 408 1179 408 1219 q 380 1110 408 1139 q 297 1082 351 1082 q 215 1110 243 1082 q 186 1179 186 1139 q 215 1248 186 1219 q 297 1276 243 1276 q 379 1247 350 1275 l 379 1247 m 667 1240 q 696 1172 696 1213 q 667 1103 696 1132 q 585 1075 639 1075 q 502 1103 531 1075 q 474 1172 474 1132 q 502 1241 474 1213 q 584 1269 531 1269 q 667 1240 638 1268 l 667 1240 z "},"À":{"ha":840,"x_min":-3,"x_max":843,"o":"m 192 58 q 139 6 176 21 q 65 6 101 -10 q 13 60 28 22 q 14 133 -3 97 q 343 926 238 658 q 353 944 347 936 q 410 996 369 983 q 484 990 449 1008 q 532 935 519 972 q 826 138 703 421 q 828 63 843 100 q 776 9 813 25 q 701 8 739 -7 q 649 60 664 24 l 569 250 l 274 247 l 192 58 l 192 58 m 443 1042 q 376 1075 403 1044 l 268 1194 q 244 1265 242 1225 q 276 1331 246 1304 q 346 1356 307 1357 q 413 1322 386 1353 l 521 1203 q 545 1133 547 1172 q 513 1067 543 1093 q 443 1042 482 1040 l 443 1042 m 497 443 l 432 626 l 356 442 l 497 443 z "},"Ā":{"ha":849,"x_min":-3,"x_max":864,"o":"m 589 261 q 264 254 315 256 l 193 61 q 142 8 179 24 q 68 6 106 -8 q 14 56 31 19 q 13 131 -3 93 l 332 935 q 383 988 347 972 q 457 990 419 1003 q 479 978 469 986 q 529 929 515 965 q 628 679 576 804 l 758 360 l 847 135 q 848 60 864 97 q 795 8 832 24 q 722 8 758 -8 q 669 60 685 24 l 589 261 m 339 449 q 511 453 392 450 l 422 665 l 339 449 l 339 449 m 310 1092 q 247 1096 283 1092 q 179 1120 208 1094 q 149 1184 150 1146 q 175 1249 147 1222 q 242 1278 203 1276 q 417 1274 317 1274 q 604 1279 518 1275 q 672 1255 643 1279 q 701 1192 700 1231 q 674 1126 701 1154 q 607 1097 646 1099 q 433 1092 519 1090 l 310 1092 l 310 1092 z "},"Ą":{"ha":849,"x_min":-3,"x_max":875,"o":"m 696 -268 q 615 -251 654 -268 q 551 -207 575 -235 q 508 -96 508 -158 q 558 40 506 -21 q 633 99 589 75 q 717 126 676 122 q 818 96 793 136 q 822 46 833 71 q 786 10 811 21 q 766 3 776 6 q 746 -3 756 0 q 685 -25 708 -11 q 646 -93 642 -51 q 664 -126 647 -114 q 704 -139 681 -139 q 734 -133 722 -139 q 761 -117 746 -128 q 787 -101 775 -106 q 814 -96 799 -96 q 859 -116 843 -96 q 875 -161 875 -136 q 825 -235 875 -204 q 765 -259 794 -250 q 696 -268 736 -268 l 696 -268 m 14 57 q 13 131 -3 94 l 324 932 q 358 975 335 958 q 411 993 382 992 q 472 983 442 999 q 517 938 501 967 l 619 682 l 740 383 l 836 133 q 835 59 851 96 q 781 7 819 22 q 706 8 743 -8 q 653 60 668 24 l 572 243 q 264 240 417 247 l 196 57 q 142 5 179 21 q 67 5 104 -11 q 14 57 29 21 l 14 57 l 14 57 m 344 439 q 497 439 397 439 l 424 639 l 344 439 l 344 439 l 344 439 z "},"Å":{"ha":849,"x_min":-3,"x_max":851,"o":"m 14 57 q 13 131 -3 94 l 324 932 q 358 975 335 958 q 411 993 382 992 q 472 983 442 999 q 517 938 501 967 l 619 682 l 740 383 l 836 133 q 835 59 851 96 q 781 7 819 22 q 706 8 743 -8 q 653 60 668 24 l 572 243 q 264 240 417 247 l 196 57 q 142 5 179 21 q 67 5 104 -11 q 14 57 29 21 l 14 57 m 344 439 q 497 439 397 439 l 424 639 l 344 439 l 344 439 m 440 1028 q 371 1038 400 1029 q 308 1069 342 1047 q 263 1130 276 1090 q 251 1211 249 1169 q 270 1290 253 1253 q 321 1347 288 1328 q 331 1351 322 1349 q 347 1357 340 1354 q 368 1364 357 1361 q 379 1364 374 1364 q 389 1363 385 1364 q 414 1367 397 1365 q 463 1356 439 1363 q 509 1338 488 1349 q 549 1309 531 1326 q 579 1267 567 1292 q 599 1183 599 1226 q 581 1105 600 1140 q 527 1048 563 1069 q 440 1028 492 1026 l 440 1028 m 435 1147 q 474 1163 464 1150 q 482 1191 485 1175 q 466 1222 479 1207 q 435 1242 453 1236 q 417 1247 426 1246 q 399 1249 407 1247 q 372 1223 378 1240 q 371 1188 365 1206 q 393 1158 376 1171 q 435 1147 410 1144 l 435 1147 z "},"Ǻ":{"ha":849,"x_min":-3,"x_max":851,"o":"m 400 1399 q 340 1435 364 1406 q 323 1503 317 1465 q 360 1564 329 1542 l 483 1654 q 553 1672 515 1678 q 613 1635 589 1665 q 630 1567 636 1604 q 593 1507 624 1529 l 469 1417 q 400 1399 439 1393 l 400 1399 m 14 57 q 13 131 -3 94 l 324 932 q 358 975 335 958 q 411 993 382 992 q 472 983 442 999 q 517 938 501 967 l 619 682 l 740 383 l 836 133 q 835 59 851 96 q 781 7 819 22 q 706 8 743 -8 q 653 60 668 24 l 572 243 q 264 240 417 247 l 196 57 q 142 5 179 21 q 67 5 104 -11 q 14 57 29 21 l 14 57 l 14 57 m 344 439 q 497 439 397 439 l 424 639 l 344 439 l 344 439 l 344 439 m 440 1028 q 371 1038 400 1029 q 308 1069 342 1047 q 263 1130 276 1090 q 251 1211 249 1169 q 270 1290 253 1253 q 321 1347 288 1328 q 331 1351 322 1349 q 347 1357 340 1354 q 368 1364 357 1361 q 379 1364 374 1364 q 389 1363 385 1364 q 414 1367 397 1365 q 463 1356 439 1363 q 509 1338 488 1349 q 549 1309 531 1326 q 579 1267 567 1292 q 599 1183 599 1226 q 581 1105 600 1140 q 527 1048 563 1069 q 440 1028 492 1026 l 440 1028 m 435 1147 q 474 1163 464 1150 q 482 1191 485 1175 q 466 1222 479 1207 q 435 1242 453 1236 q 417 1247 426 1246 q 399 1249 407 1247 q 372 1223 378 1240 q 371 1188 365 1206 q 393 1158 376 1171 q 435 1147 410 1144 l 435 1147 z "},"Ã":{"ha":831,"x_min":-1,"x_max":832,"o":"m 192 65 q 140 13 176 28 q 65 13 103 -3 q 13 66 28 29 q 14 140 -1 103 l 167 506 l 328 918 q 354 959 338 944 q 383 981 371 974 q 424 986 396 988 q 494 970 461 985 q 538 917 526 956 q 675 529 574 792 q 821 126 781 257 q 813 53 832 89 q 756 6 794 18 q 683 13 718 -6 q 635 71 647 32 q 575 246 610 151 q 423 250 426 250 q 267 243 419 250 l 192 65 l 192 65 m 347 442 q 500 442 421 444 l 494 458 l 426 638 l 347 442 l 347 442 m 185 1044 q 129 1066 149 1044 q 110 1125 110 1088 q 140 1208 110 1165 q 219 1277 171 1250 q 314 1304 267 1304 q 388 1292 358 1304 q 450 1260 418 1281 q 502 1230 482 1239 q 549 1221 522 1221 q 585 1231 572 1221 q 611 1261 597 1240 q 642 1296 626 1285 q 689 1307 657 1307 q 745 1285 725 1307 q 765 1228 765 1264 q 738 1141 765 1183 q 664 1072 711 1099 q 560 1044 617 1044 q 492 1056 522 1044 q 426 1088 463 1067 q 369 1119 389 1110 q 326 1128 350 1128 q 283 1117 299 1128 q 254 1089 268 1107 q 225 1055 238 1065 q 185 1044 213 1044 l 185 1044 z "},"Æ":{"ha":1321,"x_min":-3,"x_max":1282,"o":"m 675 -10 q 606 17 635 -11 q 575 85 576 44 l 575 93 q 571 246 574 163 q 497 249 536 247 q 453 250 457 250 l 425 250 q 395 249 401 250 q 347 247 389 249 q 265 243 306 244 l 192 64 q 140 11 176 26 q 65 12 103 -4 q 13 65 28 28 q 14 139 -3 101 l 321 897 l 329 914 q 360 969 335 946 q 418 994 385 992 q 796 994 550 993 q 1156 996 1056 993 q 1225 969 1196 997 q 1256 901 1254 942 q 1229 832 1257 861 q 1161 801 1201 803 q 896 803 1031 801 q 743 803 807 803 q 750 597 746 714 q 1131 600 953 600 q 1199 572 1171 600 q 1228 503 1228 543 q 1199 434 1228 463 q 1131 406 1171 406 q 758 404 953 406 q 767 188 764 271 q 1185 193 964 193 q 1253 165 1225 193 q 1282 96 1282 136 q 1253 27 1282 56 q 1185 -1 1225 -1 l 975 -1 q 934 -2 953 -1 q 888 -3 915 -3 q 803 -6 861 -4 q 675 -10 781 -6 l 675 -10 m 344 440 q 437 444 431 444 q 563 440 443 444 q 549 806 553 688 q 493 804 519 804 l 344 440 l 344 440 z "},"Ǽ":{"ha":1419,"x_min":69,"x_max":1374,"o":"m 1272 0 q 1222 1 1265 0 q 1114 3 1178 1 q 997 6 1054 4 q 822 14 888 8 q 756 21 781 17 q 725 28 738 24 q 675 57 694 36 q 629 211 618 113 q 635 254 632 235 q 639 282 639 274 q 358 275 513 278 q 258 56 299 150 q 200 10 239 21 q 126 18 161 -1 q 81 76 92 38 q 89 150 69 115 q 231 463 157 294 q 393 861 306 632 q 392 878 392 869 q 420 947 392 918 q 489 975 449 975 q 726 976 558 975 q 1017 978 893 978 q 1254 972 1139 976 q 1321 941 1293 971 q 1347 872 1349 911 q 1316 804 1346 832 q 1246 778 1286 776 q 813 783 1049 785 l 819 632 q 1242 636 1085 631 q 1312 610 1282 638 q 1343 543 1342 583 q 1317 473 1344 503 q 1250 442 1290 443 q 828 438 1104 436 q 833 290 831 360 q 825 207 833 264 l 838 207 q 1003 199 899 201 q 1120 197 1057 197 q 1227 195 1183 196 q 1278 194 1271 194 q 1346 164 1318 193 q 1372 94 1374 135 q 1342 26 1371 54 q 1272 0 1313 -1 l 1272 0 m 446 471 q 632 475 501 472 l 631 514 q 628 535 628 524 q 629 547 628 540 l 618 782 q 569 781 593 781 q 446 471 500 597 l 446 471 m 846 1025 q 776 1050 807 1024 q 744 1116 746 1076 q 768 1186 742 1156 l 876 1306 q 943 1339 903 1336 q 1013 1314 982 1340 q 1045 1248 1043 1288 q 1021 1178 1047 1208 l 913 1058 q 846 1025 886 1028 l 846 1025 z "},"Ć":{"ha":963,"x_min":29,"x_max":928,"o":"m 504 -17 q 324 28 411 -10 q 178 135 238 65 q 101 261 140 179 q 53 400 63 343 q 74 676 29 556 q 214 888 119 796 q 349 984 275 949 q 512 1026 424 1019 q 688 994 600 1032 q 746 964 719 981 q 794 925 772 947 q 829 889 817 903 q 864 847 842 875 l 890 810 q 912 740 915 779 q 880 674 908 700 q 815 651 851 647 q 753 685 778 654 l 721 726 l 694 760 q 675 781 688 768 q 651 800 663 793 q 621 814 639 807 q 472 825 544 844 q 337 745 399 806 q 246 611 275 685 q 232 436 217 538 q 265 344 238 403 q 313 263 293 286 q 395 208 338 233 q 517 178 453 182 q 629 189 582 172 q 697 235 676 206 q 712 265 706 250 q 727 307 718 279 q 747 364 736 335 q 799 415 764 401 q 868 413 833 429 q 915 360 903 397 q 914 286 928 322 q 901 248 913 283 q 874 178 889 213 q 843 121 860 144 q 695 8 788 40 q 504 -17 603 -24 l 504 -17 m 492 1083 q 422 1108 453 1082 q 390 1174 392 1135 q 414 1244 388 1214 l 522 1364 q 589 1397 549 1394 q 658 1372 628 1399 q 691 1306 689 1346 q 667 1236 693 1267 l 558 1117 q 492 1083 532 1086 l 492 1083 z "},"Č":{"ha":986,"x_min":44,"x_max":946,"o":"m 533 -17 q 331 21 425 -17 q 182 122 238 58 q 86 295 128 182 q 44 494 44 408 q 113 744 44 626 q 297 935 182 863 q 543 1007 413 1007 q 704 976 625 1007 q 805 918 765 951 q 906 810 844 885 q 938 740 938 772 q 908 674 938 703 q 840 646 878 646 q 772 679 800 646 l 711 751 q 638 803 683 786 q 544 819 592 819 q 394 774 465 819 q 278 655 322 729 q 235 497 235 581 q 263 360 235 429 q 326 247 290 292 q 421 192 354 214 q 561 169 488 169 q 656 185 617 169 q 714 226 694 200 q 744 294 728 246 l 767 350 q 849 406 794 406 q 916 378 886 406 q 946 313 946 351 q 938 275 946 296 l 925 240 q 898 174 911 203 q 864 115 885 146 q 724 14 813 44 q 533 -17 635 -17 l 533 -17 z "},"Ç":{"ha":986,"x_min":44,"x_max":946,"o":"m 522 -342 q 412 -312 457 -342 q 367 -235 367 -282 q 383 -190 367 -207 q 422 -174 400 -174 q 451 -181 439 -174 q 476 -203 464 -189 q 499 -221 488 -215 q 531 -226 511 -226 q 560 -215 549 -226 q 572 -190 572 -204 q 565 -169 572 -178 q 544 -157 557 -160 q 513 -152 532 -153 q 476 -150 494 -151 q 433 -134 449 -147 q 417 -97 417 -121 q 446 -22 417 -64 q 513 57 475 21 q 597 24 563 50 q 553 -37 568 -11 q 538 -87 538 -62 l 514 -65 q 551 -60 526 -60 q 656 -95 613 -60 q 700 -183 700 -131 q 674 -267 700 -231 q 608 -322 649 -303 q 522 -342 567 -342 l 522 -342 m 533 -17 q 331 21 425 -17 q 182 122 238 58 q 86 295 128 182 q 44 494 44 408 q 113 744 44 626 q 297 935 182 863 q 543 1007 413 1007 q 704 976 625 1007 q 805 918 765 951 q 906 810 844 885 q 938 740 938 772 q 908 674 938 703 q 840 646 878 646 q 772 679 800 646 l 711 751 q 638 803 683 786 q 544 819 592 819 q 394 774 465 819 q 278 655 322 729 q 235 497 235 581 q 263 360 235 429 q 326 247 290 292 q 421 192 354 214 q 561 169 488 169 q 656 185 617 169 q 714 226 694 200 q 744 294 728 246 l 767 350 q 849 406 794 406 q 916 378 886 406 q 946 313 946 351 q 938 275 946 296 l 925 240 q 898 174 911 203 q 864 115 885 146 q 724 14 813 44 q 533 -17 635 -17 l 533 -17 l 533 -17 z "},"Ĉ":{"ha":986,"x_min":44,"x_max":946,"o":"m 533 -17 q 331 21 425 -17 q 182 122 238 58 q 86 295 128 182 q 44 494 44 408 q 113 744 44 626 q 297 935 182 863 q 543 1007 413 1007 q 704 976 625 1007 q 805 918 765 951 q 906 810 844 885 q 938 740 938 772 q 908 674 938 703 q 840 646 878 646 q 772 679 800 646 l 711 751 q 638 803 683 786 q 544 819 592 819 q 394 774 465 819 q 278 655 322 729 q 235 497 235 581 q 263 360 235 429 q 326 247 290 292 q 421 192 354 214 q 561 169 488 169 q 656 185 617 169 q 714 226 694 200 q 744 294 728 246 l 767 350 q 849 406 794 406 q 916 378 886 406 q 946 313 946 351 q 938 275 946 296 l 925 240 q 898 174 911 203 q 864 115 885 146 q 724 14 813 44 q 533 -17 635 -17 l 533 -17 z "},"Ċ":{"ha":986,"x_min":44,"x_max":946,"o":"m 533 -17 q 331 21 425 -17 q 182 122 238 58 q 86 295 128 182 q 44 494 44 408 q 113 744 44 626 q 297 935 182 863 q 543 1007 413 1007 q 704 976 625 1007 q 805 918 765 951 q 906 810 844 885 q 938 740 938 772 q 908 674 938 703 q 840 646 878 646 q 772 679 800 646 l 711 751 q 638 803 683 786 q 544 819 592 819 q 394 774 465 819 q 278 655 322 729 q 235 497 235 581 q 263 360 235 429 q 326 247 290 292 q 421 192 354 214 q 561 169 488 169 q 656 185 617 169 q 714 226 694 200 q 744 294 728 246 l 767 350 q 849 406 794 406 q 916 378 886 406 q 946 313 946 351 q 938 275 946 296 l 925 240 q 898 174 911 203 q 864 115 885 146 q 724 14 813 44 q 533 -17 635 -17 l 533 -17 m 656 1176 q 626 1115 650 1139 q 557 1090 601 1092 q 474 1110 513 1088 q 428 1181 436 1133 q 440 1262 421 1229 q 499 1306 460 1294 q 631 1274 586 1331 q 656 1176 667 1228 l 656 1176 l 656 1176 z "},"Ď":{"ha":1039,"x_min":103,"x_max":1004,"o":"m 225 1 q 174 15 197 0 q 125 49 143 25 q 107 103 107 72 q 106 504 108 206 q 108 907 103 803 q 139 970 110 944 q 210 996 168 996 q 242 1003 225 1003 q 263 1004 249 1003 q 362 1010 325 1008 q 467 1011 399 1013 q 583 1001 535 1010 q 692 972 632 993 q 799 919 750 951 q 957 726 910 842 q 992 481 1004 608 q 914 249 979 357 q 740 76 847 139 q 465 4 632 14 q 336 3 421 1 q 225 1 258 4 l 225 1 m 339 185 q 456 188 417 185 q 636 231 572 193 q 745 342 703 269 q 797 497 788 414 q 776 656 806 583 q 683 772 747 729 q 576 816 639 801 q 448 829 514 831 q 301 824 382 828 q 301 506 299 757 q 303 188 303 256 q 339 185 317 188 l 339 185 m 457 1061 q 443 1064 450 1063 q 414 1076 428 1068 l 281 1168 q 244 1223 251 1189 q 256 1287 236 1257 q 311 1324 276 1317 q 376 1310 346 1331 l 467 1246 l 554 1311 q 617 1324 583 1331 q 673 1289 651 1318 q 688 1226 694 1260 q 651 1171 682 1190 l 521 1074 q 457 1061 492 1054 l 457 1061 z "},"Đ":{"ha":1100,"x_min":31,"x_max":1065,"o":"m 286 1 q 235 15 258 0 q 186 49 204 25 q 168 103 168 72 q 167 432 169 192 l 128 432 q 59 460 88 432 q 31 529 31 489 q 59 598 31 569 q 128 626 88 626 l 165 626 q 169 907 165 826 q 200 970 171 944 q 271 996 229 996 q 303 1003 286 1003 q 324 1004 310 1003 q 423 1010 386 1008 q 528 1011 460 1013 q 644 1001 596 1010 q 753 972 693 993 q 860 919 811 951 q 1018 726 971 842 q 1053 481 1065 608 q 975 249 1040 357 q 801 76 908 139 q 526 4 693 14 q 397 3 482 1 q 286 1 319 4 l 286 1 m 400 185 q 517 188 478 185 q 697 231 633 193 q 806 342 764 269 q 858 497 849 414 q 838 656 867 583 q 744 772 808 729 q 638 816 700 801 q 509 829 575 831 q 363 824 443 828 q 361 626 360 778 q 428 597 400 625 q 457 529 457 569 q 428 460 457 489 q 363 432 400 432 q 364 188 364 244 q 400 185 378 188 l 400 185 z "},"Ð":{"ha":967,"x_min":13,"x_max":919,"o":"m 97 456 q 38 480 63 456 q 13 539 13 504 q 38 599 13 575 q 97 622 63 622 l 472 622 q 531 600 508 622 q 554 539 554 578 q 531 478 554 501 q 472 456 507 456 l 97 456 l 97 456 m 219 0 q 201 1 210 0 q 135 31 163 3 q 107 99 107 60 q 106 498 108 161 q 108 899 103 835 q 140 964 110 936 q 210 990 169 992 q 235 994 222 994 q 315 1001 289 1000 q 399 1005 340 1003 q 499 1000 458 1007 q 592 981 540 993 q 690 944 644 969 q 774 885 736 919 q 883 728 846 819 q 918 528 919 636 q 887 330 917 421 q 794 165 857 239 q 649 49 732 90 q 418 0 561 7 q 314 -1 389 -1 q 219 0 239 0 l 219 0 l 219 0 m 410 190 q 563 221 513 197 q 690 356 646 261 q 722 566 735 450 q 643 743 710 682 q 506 804 589 792 q 300 807 424 817 q 299 604 299 675 q 300 394 299 533 q 301 192 301 256 q 410 190 369 189 l 410 190 l 410 190 z "},"É":{"ha":932,"x_min":104,"x_max":890,"o":"m 206 0 q 136 26 165 -1 q 104 93 107 53 q 108 125 104 110 q 117 460 110 199 q 119 879 125 722 q 138 940 118 913 q 188 976 157 967 q 229 988 207 986 q 794 994 474 999 q 863 965 835 993 q 890 896 890 936 q 860 828 889 856 q 792 800 832 800 q 315 797 521 804 q 314 596 317 700 q 447 598 363 597 q 602 601 532 599 q 735 606 672 603 q 804 580 775 607 q 835 513 833 553 q 810 443 838 472 q 743 411 783 414 q 497 406 658 408 q 308 401 336 403 q 303 199 304 269 q 793 201 519 204 q 861 172 833 200 q 888 103 889 143 q 859 35 888 63 q 790 7 831 7 q 206 0 508 11 l 206 0 m 482 1038 q 413 1063 443 1036 q 380 1128 382 1089 q 404 1199 378 1168 l 513 1318 q 579 1351 539 1349 q 649 1326 618 1353 q 681 1260 679 1300 q 657 1190 683 1221 l 549 1071 q 482 1038 522 1040 l 482 1038 z "},"Ĕ":{"ha":938,"x_min":103,"x_max":896,"o":"m 799 -8 q 210 -4 582 -8 q 144 23 172 -3 q 114 86 117 49 q 106 128 106 107 q 104 515 107 179 q 117 899 103 750 q 136 950 118 928 q 181 982 154 972 q 240 1003 207 1003 q 531 999 343 1003 q 794 994 719 994 q 863 965 835 994 q 890 896 890 936 q 861 828 890 856 q 792 800 832 800 q 550 805 713 801 q 303 808 388 808 q 297 596 297 711 q 742 597 347 597 q 810 569 782 597 q 839 500 839 540 q 810 431 839 460 q 742 403 782 403 q 604 403 701 403 q 436 404 507 404 q 299 401 365 404 q 300 189 301 263 q 799 186 599 186 q 867 158 839 186 q 896 89 896 129 q 867 20 896 49 q 799 -8 839 -8 l 799 -8 m 526 1051 q 408 1078 467 1051 q 310 1150 349 1104 q 267 1251 271 1196 q 299 1310 275 1289 q 350 1332 322 1332 q 399 1313 376 1332 q 432 1258 422 1293 q 434 1250 433 1256 q 433 1247 435 1244 l 422 1281 l 432 1258 q 483 1227 465 1236 q 514 1218 500 1218 q 542 1228 528 1218 q 578 1258 557 1238 q 572 1233 575 1242 l 574 1242 q 606 1301 582 1281 q 660 1322 629 1322 q 715 1298 692 1322 q 738 1233 738 1274 q 692 1136 738 1182 q 604 1065 649 1083 q 526 1051 571 1051 l 526 1051 z "},"Ě":{"ha":938,"x_min":103,"x_max":896,"o":"m 799 -8 q 210 -4 582 -8 q 144 23 172 -3 q 114 86 117 49 q 106 128 106 107 q 104 515 107 179 q 117 899 103 750 q 136 950 118 928 q 181 982 154 972 q 240 1003 207 1003 q 531 999 343 1003 q 794 994 719 994 q 863 965 835 994 q 890 896 890 936 q 861 828 890 856 q 792 800 832 800 q 550 805 713 801 q 303 808 388 808 q 297 596 297 711 q 742 597 347 597 q 810 569 782 597 q 839 500 839 540 q 810 431 839 460 q 742 403 782 403 q 604 403 701 403 q 436 404 507 404 q 299 401 365 404 q 300 189 301 263 q 799 186 599 186 q 867 158 839 186 q 896 89 896 129 q 867 20 896 49 q 799 -8 839 -8 l 799 -8 m 496 1063 q 482 1065 489 1064 q 453 1078 467 1069 l 319 1169 q 283 1224 290 1190 q 295 1288 275 1258 q 350 1325 315 1318 q 415 1311 385 1332 l 506 1247 l 593 1313 q 656 1326 622 1332 q 712 1290 690 1319 q 726 1228 733 1261 q 690 1172 721 1192 l 560 1075 q 496 1063 531 1056 l 496 1063 z "},"Ê":{"ha":932,"x_min":104,"x_max":890,"o":"m 206 0 q 136 26 165 -1 q 104 93 107 53 q 108 125 104 110 q 117 460 110 199 q 119 865 125 722 q 138 926 118 899 q 188 963 157 953 q 229 974 207 972 q 356 978 290 976 l 417 982 l 414 979 q 692 982 543 982 q 749 981 690 982 l 794 981 q 863 951 835 979 q 890 882 890 922 q 860 814 889 842 q 792 786 832 786 q 315 783 521 790 q 314 596 317 700 q 447 598 363 597 q 602 601 532 599 q 735 606 672 603 q 804 580 775 607 q 835 513 833 553 q 810 443 838 472 q 743 411 783 414 q 497 406 658 408 q 308 401 336 403 q 303 199 304 269 q 793 201 519 204 q 861 172 833 200 q 888 103 889 143 q 859 35 888 63 q 790 7 831 7 q 206 0 508 11 l 206 0 m 369 1063 q 315 1099 335 1069 q 302 1163 294 1129 q 339 1218 310 1197 l 458 1296 q 488 1308 472 1304 q 501 1311 494 1310 q 565 1299 536 1318 l 682 1215 q 718 1160 713 1196 q 703 1097 725 1126 q 648 1062 682 1068 q 585 1075 614 1056 l 511 1126 l 435 1076 q 369 1063 404 1056 l 369 1063 z "},"Ë":{"ha":932,"x_min":104,"x_max":890,"o":"m 206 -3 q 136 23 165 -4 q 104 90 107 50 q 108 122 104 107 q 117 458 110 196 q 119 863 125 719 q 138 923 118 896 q 188 960 157 950 q 229 971 207 969 q 794 978 474 982 q 863 948 835 976 q 890 879 890 919 q 860 811 889 839 q 792 783 832 783 q 315 781 521 788 q 314 593 317 697 q 447 595 363 594 q 602 598 532 596 q 735 603 672 600 q 804 577 775 604 q 835 510 833 550 q 810 440 838 469 q 743 408 783 411 q 497 403 658 406 q 308 399 336 400 q 303 196 304 267 q 793 199 519 201 q 861 169 833 197 q 888 100 889 140 q 859 32 888 60 q 790 4 831 4 q 206 -3 508 8 l 206 -3 m 443 1240 q 472 1172 472 1213 q 444 1103 472 1132 q 361 1075 415 1075 q 278 1103 307 1075 q 250 1172 250 1132 q 278 1241 250 1213 q 360 1269 307 1269 q 443 1240 414 1268 l 443 1240 m 731 1233 q 760 1165 760 1206 q 731 1097 760 1125 q 649 1068 703 1068 q 566 1097 594 1068 q 538 1165 538 1125 q 566 1234 538 1206 q 648 1262 594 1263 q 731 1233 701 1261 l 731 1233 z "},"Ė":{"ha":903,"x_min":103,"x_max":864,"o":"m 768 -1 q 207 3 563 -1 q 156 19 179 3 q 122 58 133 35 q 106 113 106 83 q 104 504 107 161 q 117 897 103 754 q 125 931 118 915 q 160 976 136 958 q 214 994 183 993 q 488 995 315 996 q 761 996 660 994 q 830 968 801 996 q 858 901 858 940 q 831 833 858 861 q 764 804 804 804 q 532 805 686 804 q 300 804 378 806 q 294 604 296 719 q 706 606 361 606 q 774 578 746 606 q 803 510 803 550 q 774 442 803 471 q 706 414 746 414 q 296 413 360 414 q 297 193 299 257 q 768 190 579 190 q 836 163 808 190 q 864 94 864 135 q 836 26 864 54 q 768 -1 808 -1 l 768 -1 m 629 1176 q 599 1115 624 1139 q 531 1090 575 1092 q 448 1110 486 1088 q 402 1181 410 1133 q 414 1262 394 1229 q 472 1306 433 1294 q 604 1274 560 1331 q 629 1176 640 1228 l 629 1176 l 629 1176 z "},"È":{"ha":932,"x_min":104,"x_max":890,"o":"m 206 -3 q 136 23 165 -4 q 104 90 107 50 q 108 122 104 107 q 117 458 110 196 q 119 863 125 719 q 138 923 118 896 q 188 960 157 950 q 229 971 207 969 q 794 978 474 982 q 863 948 835 976 q 890 879 890 919 q 860 811 889 839 q 792 783 832 783 q 315 781 521 788 q 314 593 317 697 q 447 595 363 594 q 602 598 532 596 q 735 603 672 600 q 804 577 775 604 q 835 510 833 550 q 810 440 838 469 q 743 408 783 411 q 497 403 658 406 q 308 399 336 400 q 303 196 304 267 q 793 199 519 201 q 861 169 833 197 q 888 100 889 140 q 859 32 888 60 q 790 4 831 4 q 206 -3 508 8 l 206 -3 m 528 1042 q 461 1075 488 1044 l 353 1194 q 328 1265 326 1225 q 361 1331 331 1304 q 431 1356 392 1357 q 497 1322 471 1353 l 606 1203 q 630 1133 632 1172 q 597 1067 628 1093 q 528 1042 567 1040 l 528 1042 z "},"Ē":{"ha":938,"x_min":103,"x_max":896,"o":"m 799 6 q 210 10 582 6 q 144 37 172 11 q 114 100 117 63 q 106 142 106 121 q 104 529 107 193 q 117 899 103 750 q 136 950 118 928 q 181 982 154 972 q 240 1003 207 1003 q 531 999 343 1003 q 794 994 719 994 q 863 965 835 994 q 890 896 890 936 q 861 828 890 856 q 792 800 832 800 q 550 805 713 801 q 303 808 388 808 q 297 610 297 725 q 742 611 347 611 q 810 583 782 611 q 839 514 839 554 q 810 445 839 474 q 742 417 782 417 q 604 417 701 417 q 436 418 507 418 q 299 415 365 418 q 300 203 301 276 q 799 200 599 200 q 867 172 839 200 q 896 103 896 143 q 867 34 896 63 q 799 6 839 6 l 799 6 m 363 1082 q 303 1110 328 1082 q 277 1177 278 1138 q 301 1245 276 1217 q 360 1275 325 1274 q 682 1279 510 1278 q 742 1251 717 1279 q 768 1183 768 1222 q 743 1115 768 1144 q 682 1086 718 1086 q 363 1082 513 1085 l 363 1082 z "},"Ę":{"ha":938,"x_min":103,"x_max":896,"o":"m 606 -317 q 564 -311 581 -317 q 431 -235 472 -287 q 390 -117 390 -183 q 415 -6 390 -58 q 210 -4 319 -6 q 144 23 172 -3 q 114 86 117 49 q 106 128 106 107 q 104 515 107 179 q 117 899 103 750 q 136 950 118 928 q 181 982 154 972 q 240 1003 207 1003 q 531 999 343 1003 q 794 994 719 994 q 863 965 835 994 q 890 896 890 936 q 861 828 890 856 q 792 800 832 800 q 550 805 713 801 q 303 808 388 808 q 297 596 297 711 q 742 597 347 597 q 810 569 782 597 q 839 500 839 540 q 810 431 839 460 q 742 403 782 403 q 604 403 701 403 q 436 404 507 404 q 299 401 365 404 q 300 189 301 263 q 799 186 599 186 q 867 158 839 186 q 896 89 896 129 q 867 20 896 49 q 799 -8 839 -8 l 676 -8 q 553 -68 565 -40 q 554 -131 539 -100 q 596 -172 571 -169 q 735 -125 626 -178 q 789 -135 764 -119 q 821 -180 814 -151 q 811 -233 828 -208 q 768 -269 794 -258 q 687 -303 731 -289 q 606 -317 643 -317 l 606 -317 z "},"Ğ":{"ha":1090,"x_min":25,"x_max":1043,"o":"m 390 28 q 174 169 265 74 q 54 389 81 265 q 81 667 25 532 q 250 893 136 803 q 420 985 328 956 q 621 1005 513 1014 q 831 940 729 996 q 885 906 861 922 q 931 868 910 890 q 962 835 951 846 q 992 795 972 824 q 1021 760 1013 767 q 1037 690 1043 728 q 997 631 1031 653 q 922 616 963 610 q 857 651 882 622 l 826 692 q 803 722 810 714 q 784 742 797 729 q 760 763 771 756 q 728 782 749 771 q 542 822 629 831 q 380 753 454 813 q 269 605 306 694 q 251 424 232 515 q 324 289 267 350 q 464 197 382 228 q 621 178 542 167 q 760 244 700 189 q 804 303 797 279 q 815 372 814 329 q 790 374 807 372 q 674 369 743 374 q 589 365 626 368 q 517 389 547 364 q 484 452 486 414 q 509 518 482 490 q 578 549 536 546 q 646 552 608 550 q 694 555 683 554 q 721 556 706 556 q 750 557 736 557 l 921 557 q 992 529 963 557 q 1022 464 1022 501 q 1021 456 1022 460 q 1021 435 1022 446 q 1019 390 1021 429 q 1010 314 1017 351 q 996 247 1004 276 q 903 115 974 181 q 740 17 831 47 q 561 -8 649 -12 q 390 28 474 -4 l 390 28 m 568 1058 q 453 1084 513 1057 q 353 1157 394 1111 q 313 1258 313 1203 q 340 1317 313 1296 q 396 1339 368 1339 q 431 1334 422 1339 q 450 1321 440 1329 q 468 1288 460 1313 q 485 1258 475 1268 q 524 1233 501 1240 q 560 1225 546 1225 q 588 1233 574 1225 q 622 1261 603 1242 q 635 1291 629 1278 q 658 1317 642 1304 q 706 1329 675 1329 q 760 1305 738 1329 q 783 1240 783 1281 q 738 1143 782 1196 q 650 1076 696 1100 q 568 1058 618 1060 l 568 1058 z "},"Ǧ":{"ha":1021,"x_min":43,"x_max":972,"o":"m 874 160 q 719 38 807 79 q 543 -2 632 -3 q 368 29 454 -1 q 211 122 282 60 q 99 267 140 185 q 44 478 46 368 q 83 681 43 589 q 194 846 122 774 q 358 960 268 921 q 561 996 450 1000 q 775 931 672 992 q 824 899 803 917 q 865 861 846 882 q 894 828 885 840 q 924 790 904 817 q 949 757 943 764 q 967 685 972 725 q 929 622 961 646 q 858 604 897 599 q 794 642 819 610 l 767 678 l 744 708 q 727 729 739 717 q 705 749 715 742 q 679 767 694 757 q 492 801 582 817 q 332 713 401 785 q 242 545 260 640 q 268 356 224 450 q 399 222 314 265 q 575 195 485 179 q 725 283 665 211 q 757 335 753 315 q 761 353 760 344 q 608 349 721 354 q 539 374 568 347 q 508 440 510 400 q 533 510 507 481 q 600 540 560 539 q 854 544 713 544 q 924 515 894 544 q 953 443 954 486 l 953 411 q 952 345 954 378 q 944 288 950 313 q 874 160 928 225 l 874 160 z "},"Ĝ":{"ha":1060,"x_min":26,"x_max":1013,"o":"m 379 22 q 169 167 258 69 q 54 392 79 265 q 80 676 26 538 q 244 906 133 814 q 409 999 319 968 q 603 1019 499 1029 q 807 954 708 1010 q 860 919 836 936 q 903 881 883 903 q 933 847 924 858 q 963 806 943 835 q 990 769 983 778 q 1006 699 1013 738 q 967 639 1000 661 q 895 623 935 617 q 832 660 856 629 l 803 700 q 780 731 786 724 q 761 752 774 739 q 738 774 749 765 q 707 793 726 782 q 526 833 611 842 q 369 763 442 824 q 262 612 297 703 q 246 426 226 521 q 316 289 260 351 q 451 196 372 226 q 603 176 526 165 q 738 244 681 188 q 781 303 774 279 q 792 375 790 331 q 768 376 783 375 q 654 372 722 376 q 572 367 608 369 q 502 391 532 365 q 470 456 472 417 q 494 523 468 494 q 561 554 521 551 q 628 558 592 556 q 674 560 664 560 q 700 562 685 561 q 728 563 715 563 l 894 563 q 963 535 935 563 q 992 468 992 507 q 990 460 992 464 q 990 439 992 450 q 988 392 990 432 q 981 315 986 353 q 967 247 975 276 q 876 113 944 179 q 719 13 807 43 q 546 -14 631 -18 q 379 22 461 -10 l 379 22 m 421 1078 q 366 1115 386 1085 q 353 1178 346 1144 q 390 1233 361 1213 l 524 1325 q 553 1338 538 1333 q 567 1340 560 1339 q 631 1328 601 1347 l 761 1231 q 797 1175 792 1211 q 783 1113 804 1142 q 727 1077 761 1083 q 664 1090 693 1071 l 576 1156 l 486 1092 q 421 1078 456 1071 l 421 1078 z "},"Ģ":{"ha":1060,"x_min":26,"x_max":1013,"o":"m 379 19 q 169 163 258 65 q 54 385 79 260 q 80 665 26 528 q 244 892 133 801 q 409 984 319 954 q 603 1005 499 1014 q 807 939 708 996 q 860 906 836 922 q 903 867 883 889 q 933 833 924 846 q 963 793 943 821 q 990 758 983 765 q 1006 688 1013 726 q 967 628 1000 650 q 895 613 935 607 q 832 649 856 618 l 803 689 q 780 720 786 713 q 761 741 774 728 q 738 762 749 754 q 707 781 726 769 q 526 820 611 829 q 369 751 442 811 q 262 602 297 692 q 246 419 226 513 q 316 283 260 344 q 451 190 372 221 q 603 172 526 160 q 738 239 681 183 q 781 297 774 274 q 792 367 790 324 q 768 368 783 367 q 654 365 722 368 q 572 360 608 363 q 502 383 532 358 q 470 447 472 408 q 494 515 468 486 q 561 546 521 543 q 628 549 592 547 q 674 551 664 550 q 700 552 685 551 q 728 553 715 553 l 894 553 q 963 526 935 553 q 992 460 992 499 q 990 451 992 456 q 990 431 992 442 q 988 385 990 425 q 981 308 986 346 q 967 242 975 271 q 876 108 944 175 q 719 10 807 40 q 546 -17 631 -21 q 379 19 461 -12 l 379 19 m 569 -371 q 527 -397 551 -390 q 483 -385 503 -404 q 462 -340 464 -365 q 479 -293 460 -315 q 525 -225 497 -275 q 486 -208 501 -221 q 465 -181 472 -197 q 457 -142 457 -165 q 468 -100 457 -118 q 503 -69 479 -82 l 526 -60 q 556 -58 547 -57 q 578 -61 564 -58 q 640 -104 617 -69 q 661 -201 667 -140 q 631 -285 651 -246 q 569 -371 607 -336 l 569 -371 z "},"Ġ":{"ha":1057,"x_min":24,"x_max":1000,"o":"m 376 36 q 167 181 256 83 q 51 406 76 279 q 77 690 24 551 q 242 919 131 828 q 406 1013 317 982 q 601 1033 496 1043 q 804 968 706 1024 q 857 933 833 950 q 901 894 881 917 q 931 860 921 872 q 953 831 940 849 q 981 788 967 813 q 992 717 1000 754 q 951 657 983 679 q 883 640 918 635 q 824 681 847 646 l 800 714 q 776 746 782 739 q 758 766 771 753 q 735 788 746 779 q 704 807 724 796 q 524 847 608 856 q 367 777 439 838 q 259 626 294 717 q 243 440 224 535 q 313 303 257 365 q 449 210 369 240 q 601 190 524 178 q 735 258 678 201 q 778 317 771 293 q 789 388 788 344 q 765 389 781 388 q 651 386 719 389 q 569 381 606 383 q 499 404 529 379 q 467 469 469 429 q 492 537 465 508 q 558 568 518 565 q 625 572 589 569 q 672 574 661 574 q 697 576 682 575 q 725 576 713 576 l 892 576 q 960 549 932 576 q 989 482 989 521 q 988 472 989 478 q 988 453 989 464 q 985 406 988 446 q 978 328 983 367 q 964 261 972 290 q 874 126 942 193 q 716 26 804 57 q 543 0 628 -4 q 376 36 458 4 l 376 36 m 649 1176 q 619 1115 643 1139 q 550 1090 594 1092 q 467 1110 506 1088 q 422 1181 429 1133 q 433 1262 414 1229 q 492 1306 453 1294 q 624 1274 579 1331 q 649 1176 660 1228 l 649 1176 z "},"Ħ":{"ha":1028,"x_min":3,"x_max":1006,"o":"m 918 701 q 729 699 838 699 q 610 698 669 699 q 497 694 551 697 l 97 679 q 31 701 57 678 q 4 763 6 724 q 27 825 3 801 q 94 850 51 849 l 499 864 q 918 872 765 874 q 981 847 957 872 q 1004 788 1004 821 q 983 728 1006 753 q 918 701 961 703 l 918 701 m 301 96 q 272 28 301 57 q 203 0 243 0 q 135 29 164 0 q 107 99 107 58 q 104 488 108 206 q 103 903 100 771 q 133 970 104 943 q 203 997 163 997 q 270 967 243 996 q 297 897 297 938 q 296 631 294 792 q 728 639 581 639 q 729 901 728 792 q 759 969 731 942 q 828 997 788 997 q 896 967 868 996 q 924 899 924 939 q 922 96 922 808 q 894 27 922 56 q 825 -1 865 -1 q 756 27 785 -1 q 728 96 728 56 l 728 444 q 299 436 583 446 q 301 96 301 208 l 301 96 l 301 96 z "},"Ĥ":{"ha":1039,"x_min":100,"x_max":935,"o":"m 111 93 q 106 506 113 182 q 108 917 100 829 q 140 984 111 957 q 210 1009 169 1011 q 277 978 250 1007 q 303 908 304 949 q 299 594 297 753 q 738 604 590 604 q 740 906 738 772 q 771 973 742 946 q 840 999 800 1000 q 908 969 881 999 q 935 900 935 940 q 931 639 932 775 q 932 340 931 503 q 933 93 933 178 q 905 24 933 53 q 836 -4 876 -4 q 767 24 796 -4 q 739 93 739 53 q 738 410 739 149 q 301 401 594 411 q 306 93 306 203 q 276 24 306 53 q 208 -4 247 -4 q 140 25 168 -4 q 111 93 111 54 l 111 93 m 364 1050 q 309 1087 329 1057 q 297 1151 289 1117 q 333 1206 304 1185 l 467 1297 q 496 1310 481 1306 q 510 1313 503 1311 q 574 1300 544 1319 l 704 1203 q 740 1147 735 1183 q 726 1085 747 1114 q 670 1049 704 1056 q 607 1063 636 1043 l 519 1128 l 429 1064 q 364 1050 399 1043 l 364 1050 z "},"Í":{"ha":404,"x_min":89,"x_max":424,"o":"m 299 90 q 269 22 299 50 q 200 -6 240 -6 q 132 24 160 -6 q 104 93 104 53 q 106 494 106 224 q 106 896 106 764 q 135 964 106 936 q 204 992 164 992 q 272 963 244 992 q 300 893 300 933 q 300 492 300 763 q 299 90 300 222 l 299 90 m 176 1056 q 113 1094 138 1063 q 95 1166 89 1126 q 133 1229 101 1206 l 264 1324 q 336 1343 297 1349 q 399 1304 375 1336 q 417 1233 424 1272 q 379 1169 411 1193 l 249 1075 q 176 1056 217 1050 l 176 1056 z "},"Ĭ":{"ha":404,"x_min":-33,"x_max":440,"o":"m 299 90 q 269 22 299 50 q 200 -6 240 -6 q 132 24 160 -6 q 104 93 104 53 q 106 494 106 224 q 106 896 106 764 q 135 964 106 936 q 204 992 164 992 q 272 963 244 992 q 300 893 300 933 q 300 492 300 763 q 299 90 300 222 l 299 90 m 222 1058 q 108 1084 167 1057 q 8 1157 49 1111 q -33 1258 -33 1203 q -6 1317 -33 1296 q 50 1339 22 1339 q 85 1334 76 1339 q 104 1321 94 1329 q 122 1288 114 1313 q 139 1258 129 1268 q 178 1233 156 1240 q 214 1225 200 1225 q 242 1233 228 1225 q 276 1261 257 1242 q 290 1291 283 1278 q 313 1317 296 1304 q 360 1329 329 1329 q 413 1305 392 1329 q 438 1240 435 1281 q 392 1143 440 1193 q 304 1076 350 1100 q 222 1058 272 1060 l 222 1058 z "},"Î":{"ha":404,"x_min":-26,"x_max":432,"o":"m 299 90 q 269 22 299 50 q 200 -6 240 -6 q 132 24 160 -6 q 104 93 104 53 q 106 494 106 224 q 106 896 106 764 q 135 964 106 936 q 204 992 164 992 q 272 963 244 992 q 300 893 300 933 q 300 492 300 763 q 299 90 300 222 l 299 90 z "},"Ï":{"ha":404,"x_min":-35,"x_max":442,"o":"m 299 90 q 269 22 299 50 q 200 -6 240 -6 q 132 24 160 -6 q 104 93 104 53 q 106 494 106 224 q 106 896 106 764 q 135 964 106 936 q 204 992 164 992 q 272 963 244 992 q 300 893 300 933 q 300 492 300 763 q 299 90 300 222 l 299 90 z "},"İ":{"ha":404,"x_min":82,"x_max":328,"o":"m 299 90 q 269 22 299 50 q 200 -6 240 -6 q 132 24 160 -6 q 104 93 104 53 q 106 494 106 224 q 106 896 106 764 q 135 964 106 936 q 204 992 164 992 q 272 963 244 992 q 300 893 300 933 q 300 492 300 763 q 299 90 300 222 l 299 90 m 317 1176 q 287 1115 311 1139 q 218 1090 263 1092 q 135 1110 174 1088 q 90 1181 97 1133 q 101 1262 82 1229 q 160 1306 121 1294 q 292 1274 247 1331 q 317 1176 328 1228 l 317 1176 l 317 1176 z "},"Ì":{"ha":404,"x_min":-11,"x_max":324,"o":"m 299 90 q 269 22 299 50 q 200 -6 240 -6 q 132 24 160 -6 q 104 93 104 53 q 106 494 106 224 q 106 896 106 764 q 135 964 106 936 q 204 992 164 992 q 272 963 244 992 q 300 893 300 933 q 300 492 300 763 q 299 90 300 222 l 299 90 m 236 1056 q 164 1075 197 1050 l 33 1169 q -5 1233 1 1193 q 13 1305 -11 1272 q 76 1343 38 1338 q 149 1324 115 1349 l 279 1229 q 317 1166 311 1206 q 299 1094 324 1126 q 236 1056 275 1061 l 236 1056 z "},"Ī":{"ha":404,"x_min":-49,"x_max":454,"o":"m 99 1110 q 42 1114 75 1110 q -19 1135 7 1113 q -47 1193 -46 1158 q -24 1253 -49 1228 q 38 1278 1 1278 q 197 1276 106 1275 q 367 1279 288 1276 q 427 1258 401 1279 q 453 1201 453 1236 q 429 1141 454 1167 q 368 1115 404 1115 q 211 1110 289 1108 l 99 1110 l 99 1110 m 299 90 q 269 22 299 50 q 200 -6 240 -6 q 132 24 160 -6 q 104 93 104 53 q 106 494 106 224 q 106 896 106 764 q 135 964 106 936 q 204 992 164 992 q 272 963 244 992 q 300 893 300 933 q 300 492 300 763 q 299 90 300 222 l 299 90 z "},"Į":{"ha":404,"x_min":-32,"x_max":338,"o":"m 158 -276 q 77 -260 117 -276 q 14 -215 38 -243 q -29 -104 -29 -167 q 21 32 -32 -29 q 95 90 51 67 q 179 118 139 114 q 281 88 256 128 q 285 38 296 63 q 249 1 274 13 q 228 -6 239 -3 q 208 -11 218 -8 q 147 -33 171 -19 q 108 -101 104 -60 q 126 -135 110 -122 q 167 -147 143 -147 q 197 -142 185 -147 q 224 -125 208 -136 q 249 -109 238 -114 q 276 -104 261 -104 q 322 -124 306 -104 q 338 -169 338 -144 q 288 -243 338 -212 q 228 -267 257 -258 q 158 -276 199 -276 l 158 -276 m 299 90 q 269 22 299 50 q 200 -6 240 -6 q 132 24 160 -6 q 104 93 104 53 q 106 494 106 224 q 106 896 106 764 q 135 964 106 936 q 204 992 164 992 q 272 963 244 992 q 300 893 300 933 q 300 492 300 763 q 299 90 300 222 l 299 90 z "},"Ĩ":{"ha":404,"x_min":-94,"x_max":464,"o":"m 299 90 q 269 22 299 50 q 200 -6 240 -6 q 132 24 160 -6 q 104 93 104 53 q 106 494 106 224 q 106 896 106 764 q 135 964 106 936 q 204 992 164 992 q 272 963 244 992 q 300 893 300 933 q 300 492 300 763 q 299 90 300 222 l 299 90 z "},"Ĵ":{"ha":754,"x_min":4,"x_max":767,"o":"m 371 4 q 265 -15 317 -15 q 160 15 213 -15 q 68 100 107 44 q 31 189 44 135 q 22 222 31 190 q 17 246 19 238 q 22 320 4 285 q 78 368 40 356 q 152 363 117 381 q 200 307 188 344 q 211 268 206 290 q 214 256 211 267 l 218 238 q 229 208 224 215 q 299 183 257 167 q 350 220 326 194 q 382 276 374 246 q 407 401 399 335 q 414 542 415 468 q 410 658 413 617 q 401 803 408 699 q 333 800 372 801 q 263 826 293 799 q 232 894 233 854 q 258 963 231 933 q 325 994 286 993 q 674 994 539 1001 q 740 962 714 992 q 765 892 767 932 q 733 825 763 851 q 663 800 703 799 q 596 803 629 803 q 607 609 604 681 q 601 439 610 538 q 568 224 593 311 q 494 90 547 150 q 371 4 440 31 l 371 4 z "},"Ķ":{"ha":944,"x_min":108,"x_max":910,"o":"m 435 471 l 307 356 q 313 97 311 140 q 285 28 313 57 q 217 -1 257 0 q 148 26 176 -1 q 118 94 119 54 q 114 305 117 154 q 110 537 111 456 q 108 741 108 618 q 111 910 108 864 q 142 978 113 950 q 211 1004 171 1006 q 279 974 251 1003 q 306 904 307 944 q 303 613 300 800 l 500 797 l 692 982 q 762 1006 722 1008 q 828 974 801 1004 q 852 903 854 943 q 819 838 850 864 l 578 604 l 885 156 q 906 85 910 125 q 872 19 903 44 q 800 -2 840 -6 q 735 33 760 1 l 435 471 m 532 -371 q 490 -397 514 -390 q 446 -385 465 -404 q 424 -340 426 -365 q 442 -293 422 -315 q 488 -225 460 -275 q 449 -208 464 -221 q 427 -181 435 -197 q 419 -142 419 -165 q 431 -100 419 -118 q 465 -69 442 -82 l 489 -60 q 518 -58 510 -57 q 540 -61 526 -58 q 603 -104 579 -69 q 624 -201 629 -140 q 593 -285 614 -246 q 532 -371 569 -336 l 532 -371 z "},"Ĺ":{"ha":800,"x_min":92,"x_max":793,"o":"m 219 -3 q 143 36 172 -1 q 114 104 115 64 q 108 506 113 246 l 104 896 q 132 965 104 936 q 200 994 160 993 q 269 967 240 994 q 299 899 297 939 l 303 535 l 307 185 q 505 186 375 185 q 696 188 635 188 q 765 160 736 188 q 793 94 793 133 q 765 27 793 56 q 696 -1 736 -1 q 458 -3 650 -1 q 219 -3 265 -4 l 219 -3 m 179 1056 q 116 1094 140 1063 q 98 1166 92 1126 q 136 1229 104 1206 l 267 1324 q 339 1343 300 1349 q 402 1304 378 1336 q 420 1233 426 1272 q 382 1169 414 1193 l 251 1075 q 179 1056 219 1050 l 179 1056 z "},"Ľ":{"ha":800,"x_min":104,"x_max":793,"o":"m 219 -3 q 143 36 172 -1 q 114 104 115 64 q 108 506 113 246 l 104 896 q 132 965 104 936 q 200 994 160 993 q 269 967 240 994 q 299 899 297 939 l 303 535 l 307 185 q 505 186 375 185 q 696 188 635 188 q 765 160 736 188 q 793 94 793 133 q 765 27 793 56 q 696 -1 736 -1 q 458 -3 650 -1 q 219 -3 265 -4 l 219 -3 m 708 704 q 666 661 699 674 q 600 658 633 649 q 553 697 567 668 q 550 756 539 725 q 567 839 565 804 q 556 926 569 875 q 555 986 542 958 q 601 1025 568 1014 q 667 1024 635 1036 q 714 981 700 1013 q 737 881 735 925 q 733 802 739 838 q 708 704 728 767 l 708 704 z "},"Ļ":{"ha":800,"x_min":104,"x_max":793,"o":"m 219 -3 q 143 36 172 -1 q 114 104 115 64 q 108 506 113 246 l 104 896 q 132 965 104 936 q 200 994 160 993 q 269 967 240 994 q 299 899 297 939 l 303 535 l 307 185 q 505 186 375 185 q 696 188 635 188 q 765 160 736 188 q 793 94 793 133 q 765 27 793 56 q 696 -1 736 -1 q 458 -3 650 -1 q 219 -3 265 -4 l 219 -3 m 465 -371 q 423 -397 447 -390 q 379 -385 399 -404 q 358 -340 360 -365 q 375 -293 356 -315 q 421 -225 393 -275 q 382 -208 397 -221 q 360 -181 368 -197 q 353 -142 353 -165 q 364 -100 353 -118 q 399 -69 375 -82 l 422 -60 q 451 -58 443 -57 q 474 -61 460 -58 q 536 -104 513 -69 q 557 -201 563 -140 q 526 -285 547 -246 q 465 -371 503 -336 l 465 -371 z "},"Ŀ":{"ha":800,"x_min":104,"x_max":793,"o":"m 219 -3 q 143 36 172 -1 q 114 104 115 64 q 108 506 113 246 l 104 896 q 132 965 104 936 q 200 994 160 993 q 269 967 240 994 q 299 899 297 939 l 303 535 l 307 185 q 505 186 375 185 q 696 188 635 188 q 765 160 736 188 q 793 94 793 133 q 765 27 793 56 q 696 -1 736 -1 q 458 -3 650 -1 q 219 -3 265 -4 l 219 -3 m 644 632 q 678 553 678 600 q 645 473 678 506 q 565 440 613 440 q 485 473 518 440 q 453 553 453 506 q 485 633 453 600 q 565 665 518 665 q 644 632 613 665 l 644 632 z "},"Ł":{"ha":800,"x_min":-36,"x_max":793,"o":"m 49 332 q -11 358 14 332 q -36 417 -36 383 q -4 481 -36 457 q 308 694 67 531 q 325 706 317 700 q 342 718 333 713 q 400 736 365 736 q 456 710 432 736 q 481 650 481 683 q 447 589 481 614 q 310 497 371 539 l 100 350 q 49 332 76 332 l 49 332 m 219 -3 q 143 36 172 -1 q 114 104 115 64 q 108 506 113 246 l 104 896 q 132 965 104 936 q 200 994 160 993 q 269 967 240 994 q 299 899 297 939 l 303 535 l 307 185 q 505 186 375 185 q 696 188 635 188 q 765 160 736 188 q 793 94 793 133 q 765 27 793 56 q 696 -1 736 -1 q 458 -3 650 -1 q 219 -3 265 -4 l 219 -3 l 219 -3 z "},"Ń":{"ha":1043,"x_min":101,"x_max":940,"o":"m 842 6 q 751 39 788 -4 q 517 364 658 149 q 299 660 363 582 q 306 413 300 604 q 311 96 311 222 q 283 27 311 56 q 214 -1 254 -1 q 145 27 174 -1 q 117 96 117 56 q 109 491 117 218 q 107 904 101 764 q 138 972 108 944 q 207 999 167 1000 q 244 990 226 997 q 290 960 271 982 q 367 867 314 931 q 446 772 419 804 q 676 475 524 692 l 743 379 q 744 903 747 701 q 772 972 744 943 q 840 1001 800 1000 q 909 974 881 1001 q 939 906 938 946 q 935 101 940 717 q 907 35 933 63 q 842 6 881 8 l 842 6 m 496 1056 q 433 1094 457 1063 q 415 1166 408 1126 q 453 1229 421 1206 l 583 1324 q 656 1343 617 1349 q 719 1304 694 1336 q 737 1233 743 1272 q 699 1169 731 1193 l 568 1075 q 496 1056 536 1050 l 496 1056 z "},"Ň":{"ha":1074,"x_min":103,"x_max":985,"o":"m 783 -10 q 668 54 722 -1 q 613 129 640 82 l 596 156 l 590 164 q 500 297 544 225 l 408 458 q 336 586 361 544 l 313 625 q 299 76 311 257 q 266 10 296 36 q 196 -15 236 -17 q 129 17 156 -12 q 104 88 103 47 q 111 210 108 158 q 115 321 114 261 q 117 474 117 381 q 118 613 118 567 l 118 910 q 147 978 118 950 q 215 1007 175 1007 q 244 1003 231 1007 q 303 965 281 996 q 347 908 318 947 l 389 854 l 422 808 q 463 750 444 779 l 503 686 l 664 401 q 746 281 703 338 l 761 257 q 758 308 760 281 q 756 353 757 336 q 754 375 754 371 q 788 944 746 601 q 824 1010 792 985 q 895 1030 856 1035 q 960 993 935 1025 q 979 922 985 961 q 949 381 940 593 q 949 358 949 378 q 952 306 950 338 q 956 249 954 275 q 958 161 958 193 l 958 126 q 957 108 958 117 l 954 94 q 935 57 949 74 q 783 -10 869 -22 l 783 -10 m 543 1024 q 454 1072 503 1028 q 376 1139 408 1113 q 344 1197 349 1161 q 363 1261 340 1233 q 424 1292 386 1289 q 489 1274 461 1296 q 556 1217 524 1246 q 613 1261 586 1242 q 679 1278 642 1283 q 739 1246 717 1274 q 756 1182 761 1218 q 724 1125 751 1146 l 647 1064 q 543 1024 593 1017 l 543 1024 z "},"Ņ":{"ha":1043,"x_min":101,"x_max":940,"o":"m 842 6 q 751 39 788 -4 q 517 364 658 149 q 299 660 363 582 q 306 413 300 604 q 311 96 311 222 q 283 27 311 56 q 214 -1 254 -1 q 145 27 174 -1 q 117 96 117 56 q 109 491 117 218 q 107 904 101 764 q 138 972 108 944 q 207 999 167 1000 q 244 990 226 997 q 290 960 271 982 q 367 867 314 931 q 446 772 419 804 q 676 475 524 692 l 743 379 q 744 903 747 701 q 772 972 744 943 q 840 1001 800 1000 q 909 974 881 1001 q 939 906 938 946 q 935 101 940 717 q 907 35 933 63 q 842 6 881 8 l 842 6 m 532 -371 q 490 -397 514 -390 q 446 -385 465 -404 q 424 -340 426 -365 q 442 -293 422 -315 q 488 -225 460 -275 q 449 -208 464 -221 q 427 -181 435 -197 q 419 -142 419 -165 q 431 -100 419 -118 q 465 -69 442 -82 l 489 -60 q 518 -58 510 -57 q 540 -61 526 -58 q 603 -104 579 -69 q 624 -201 629 -140 q 593 -285 614 -246 q 532 -371 569 -336 l 532 -371 z "},"Ñ":{"ha":1043,"x_min":101,"x_max":940,"o":"m 842 -8 q 751 25 788 -18 q 517 336 658 135 q 299 632 363 554 q 306 385 300 576 q 311 90 311 194 q 283 22 311 50 q 214 -7 254 -7 q 145 22 174 -7 q 117 90 117 50 q 109 463 117 190 q 106 897 101 736 q 136 965 107 938 q 206 992 165 993 q 243 983 225 990 q 289 953 269 975 q 366 857 313 924 q 446 758 419 790 q 676 447 524 664 l 743 351 q 744 889 747 674 q 772 958 744 929 q 840 987 800 986 q 909 960 881 988 q 939 892 938 932 q 935 88 940 689 q 907 22 933 49 q 842 -8 881 -6 l 842 -8 m 283 1044 q 228 1066 247 1044 q 208 1125 208 1088 q 239 1208 208 1165 q 317 1277 269 1250 q 413 1304 365 1304 q 487 1292 457 1304 q 549 1260 517 1281 q 601 1230 581 1239 q 647 1221 621 1221 q 683 1231 671 1221 q 710 1261 696 1240 q 740 1296 725 1285 q 788 1307 756 1307 q 844 1285 824 1307 q 864 1228 864 1264 q 837 1141 864 1183 q 763 1072 810 1099 q 658 1044 715 1044 q 591 1056 621 1044 q 525 1088 561 1067 q 468 1119 488 1110 q 425 1128 449 1128 q 382 1117 397 1128 q 353 1089 367 1107 q 324 1055 336 1065 q 283 1044 311 1044 l 283 1044 z "},"Ŋ":{"ha":1061,"x_min":104,"x_max":968,"o":"m 815 -307 q 756 -350 794 -340 q 683 -338 717 -360 q 639 -278 649 -317 q 651 -204 629 -239 q 721 -106 653 -201 q 760 -33 751 -62 q 764 -17 763 -25 q 738 7 749 -7 q 389 489 511 288 l 297 642 q 300 453 297 550 q 308 254 303 357 q 314 99 313 151 q 288 29 315 58 q 219 -1 260 0 q 150 25 179 -3 q 119 93 121 53 q 113 272 119 121 q 106 491 107 422 q 104 693 104 560 q 110 933 104 826 q 136 993 113 968 q 160 1018 144 1008 q 231 1036 192 1042 q 294 997 271 1031 q 349 922 322 961 l 406 835 l 453 758 l 506 669 q 556 589 542 610 q 751 303 636 456 q 754 606 753 406 q 757 922 756 806 q 786 990 757 963 q 856 1018 815 1018 q 924 989 896 1018 q 951 919 951 960 q 947 575 950 804 q 944 214 944 346 q 946 -92 968 -21 q 879 -218 928 -150 q 852 -254 876 -221 q 815 -307 828 -287 l 815 -307 z "},"Ó":{"ha":1025,"x_min":43,"x_max":986,"o":"m 365 7 q 81 250 156 67 q 44 443 47 333 q 71 653 43 551 q 169 854 101 767 q 349 972 239 943 q 413 985 376 981 q 488 990 450 989 q 533 992 526 992 q 572 989 553 994 q 628 975 601 990 l 690 936 q 747 899 708 925 q 803 855 785 872 q 851 808 822 838 q 897 749 881 778 q 932 680 914 719 q 961 596 950 640 q 979 415 986 504 q 938 252 972 325 q 847 119 904 179 q 715 26 790 58 q 551 -14 640 -6 q 365 7 463 -22 l 365 7 m 418 193 q 553 181 488 174 q 665 220 618 189 q 745 301 713 251 q 784 413 778 350 q 775 546 790 475 q 744 626 761 593 q 695 690 726 660 q 633 741 664 719 q 544 799 603 763 q 486 795 517 796 q 437 793 456 794 q 399 786 418 792 q 315 726 353 774 q 257 601 278 678 q 239 447 238 522 q 261 322 240 372 q 418 193 300 226 l 418 193 m 444 1028 q 375 1053 406 1026 q 342 1119 344 1079 q 367 1189 340 1158 l 475 1308 q 542 1342 501 1339 q 611 1317 581 1343 q 644 1251 642 1290 q 619 1181 646 1211 l 511 1061 q 444 1028 485 1031 l 444 1028 z "},"Ŏ":{"ha":1017,"x_min":42,"x_max":974,"o":"m 461 -12 q 278 33 358 -8 q 148 142 197 75 q 72 287 99 208 q 44 450 46 365 q 63 626 42 544 q 124 783 83 708 q 235 915 165 857 q 392 997 304 972 q 471 1006 426 1006 l 500 1006 q 532 1004 522 1006 q 553 1003 542 1003 q 624 999 597 1001 q 696 981 651 996 q 783 936 740 965 q 927 768 881 869 q 972 558 974 667 q 935 349 971 449 q 865 212 908 276 q 761 95 821 147 q 624 14 701 43 q 461 -12 546 -15 l 461 -12 m 469 178 q 634 243 557 175 q 750 415 711 311 q 770 626 793 532 q 675 771 747 721 q 645 790 657 783 q 617 801 633 796 q 585 808 601 807 q 558 810 568 810 q 533 811 549 810 q 511 815 518 813 q 485 817 504 817 q 447 813 467 819 q 292 683 349 776 q 239 457 236 589 q 303 260 242 339 q 469 178 364 181 l 469 178 m 538 1058 q 423 1084 482 1057 q 323 1157 364 1111 q 282 1258 282 1203 q 310 1317 282 1296 q 365 1339 338 1339 q 401 1334 392 1339 q 419 1321 410 1329 q 438 1288 429 1313 q 454 1258 444 1268 q 493 1233 471 1240 q 529 1225 515 1225 q 558 1233 543 1225 q 592 1261 572 1242 q 605 1291 599 1278 q 628 1317 611 1304 q 675 1329 644 1329 q 728 1305 707 1329 q 753 1240 750 1281 q 707 1143 756 1193 q 619 1076 665 1100 q 538 1058 588 1060 l 538 1058 z "},"Ô":{"ha":1025,"x_min":43,"x_max":986,"o":"m 365 7 q 81 250 156 67 q 44 443 47 333 q 71 653 43 551 q 169 854 101 767 q 349 972 239 943 q 413 985 376 981 q 488 990 450 989 q 533 992 526 992 q 572 989 553 994 q 628 975 601 990 l 690 936 q 747 899 708 925 q 803 855 785 872 q 851 808 822 838 q 897 749 881 778 q 932 680 914 719 q 961 596 950 640 q 979 415 986 504 q 938 252 972 325 q 847 119 904 179 q 715 26 790 58 q 551 -14 640 -6 q 365 7 463 -22 l 365 7 m 418 193 q 553 181 488 174 q 665 220 618 189 q 745 301 713 251 q 784 413 778 350 q 775 546 790 475 q 744 626 761 593 q 695 690 726 660 q 633 741 664 719 q 544 799 603 763 q 486 795 517 796 q 437 793 456 794 q 399 786 418 792 q 315 726 353 774 q 257 601 278 678 q 239 447 238 522 q 261 322 240 372 q 418 193 300 226 l 418 193 m 338 1022 q 283 1059 303 1029 q 270 1123 263 1089 q 307 1178 278 1157 l 440 1269 q 469 1282 454 1278 q 483 1285 476 1283 q 547 1272 518 1292 l 678 1175 q 714 1119 708 1156 q 699 1057 721 1086 q 644 1022 678 1028 q 581 1035 610 1015 l 493 1100 l 403 1036 q 338 1022 372 1015 l 338 1022 z "},"Ö":{"ha":1025,"x_min":43,"x_max":986,"o":"m 365 7 q 81 263 156 69 q 44 465 47 350 q 71 686 43 579 q 169 899 101 806 q 349 1022 239 992 q 413 1035 376 1031 q 488 1042 450 1040 q 533 1043 526 1043 q 572 1040 553 1046 q 628 1025 601 1042 l 690 985 q 747 944 708 972 q 803 899 785 917 q 851 849 822 881 q 897 788 881 818 q 932 715 914 757 q 961 626 950 674 q 979 435 986 529 q 938 265 972 342 q 847 124 904 188 q 715 27 790 61 q 551 -15 640 -7 q 365 7 463 -24 l 365 7 m 418 203 q 553 190 488 182 q 665 231 618 199 q 745 316 713 264 q 784 433 778 368 q 775 574 790 499 q 744 658 761 624 q 695 725 726 693 q 633 779 664 757 q 544 840 603 801 q 486 835 517 836 q 437 833 456 835 q 399 826 418 832 q 315 763 353 814 q 257 632 278 713 q 239 470 238 549 q 261 339 240 392 q 418 203 300 238 l 418 203 m 451 1239 q 488 1169 488 1210 q 453 1100 488 1129 q 369 1071 418 1071 q 285 1100 319 1071 q 250 1169 250 1129 q 285 1239 250 1210 q 369 1268 319 1268 q 451 1239 418 1268 l 451 1239 m 717 1232 q 753 1163 753 1203 q 718 1093 753 1122 q 634 1064 683 1064 q 550 1093 585 1064 q 515 1163 515 1122 q 550 1232 515 1203 q 634 1261 585 1261 q 717 1232 683 1261 l 717 1232 z "},"Ò":{"ha":1025,"x_min":43,"x_max":986,"o":"m 365 7 q 81 250 156 67 q 44 443 47 333 q 71 653 43 551 q 169 854 101 767 q 349 972 239 943 q 413 985 376 981 q 488 990 450 989 q 533 992 526 992 q 572 989 553 994 q 628 975 601 990 l 690 936 q 747 899 708 925 q 803 855 785 872 q 851 808 822 838 q 897 749 881 778 q 932 680 914 719 q 961 596 950 640 q 979 415 986 504 q 938 252 972 325 q 847 119 904 179 q 715 26 790 58 q 551 -14 640 -6 q 365 7 463 -22 l 365 7 m 418 193 q 553 181 488 174 q 665 220 618 189 q 745 301 713 251 q 784 413 778 350 q 775 546 790 475 q 744 626 761 593 q 695 690 726 660 q 633 741 664 719 q 544 799 603 763 q 486 795 517 796 q 437 793 456 794 q 399 786 418 792 q 315 726 353 774 q 257 601 278 678 q 239 447 238 522 q 261 322 240 372 q 418 193 300 226 l 418 193 m 544 1017 q 478 1050 504 1019 l 369 1169 q 345 1240 343 1200 q 378 1306 347 1279 q 447 1331 408 1332 q 514 1297 488 1328 l 622 1178 q 647 1108 649 1147 q 614 1042 644 1068 q 544 1017 583 1015 l 544 1017 z "},"Ő":{"ha":1050,"x_min":39,"x_max":1008,"o":"m 594 -22 q 371 10 478 -26 q 192 124 264 46 q 79 306 119 201 q 44 524 39 411 q 55 624 49 581 q 77 724 61 668 q 126 828 93 779 q 208 917 160 878 q 308 971 247 947 q 503 978 417 1013 l 524 976 q 557 974 542 975 q 575 975 547 979 q 629 963 603 971 q 742 912 692 946 q 850 813 792 878 q 971 625 938 718 q 1005 458 1001 546 q 983 288 1008 371 q 910 138 958 206 q 779 26 861 69 q 594 -22 697 -17 l 594 -22 m 586 172 q 701 208 650 175 q 780 296 753 242 q 813 418 807 350 q 790 558 818 486 q 708 682 768 615 q 637 749 664 731 q 585 772 610 767 q 507 783 563 778 q 394 799 443 792 q 358 782 389 799 q 331 767 340 774 q 263 669 282 728 q 239 513 243 611 q 278 333 233 417 q 406 208 324 249 q 586 172 489 168 l 586 172 m 411 1088 q 353 1046 392 1054 q 283 1058 315 1038 q 242 1116 250 1078 q 254 1186 233 1154 l 343 1328 q 401 1369 363 1361 q 472 1356 439 1376 q 513 1299 504 1336 q 500 1229 521 1261 l 411 1088 l 411 1088 m 697 1076 q 635 1041 674 1046 q 567 1060 597 1036 q 531 1123 536 1085 q 551 1192 526 1161 l 639 1303 q 701 1338 663 1333 q 769 1319 739 1343 q 805 1258 800 1296 q 786 1189 810 1219 l 697 1076 l 697 1076 z "},"Ō":{"ha":1126,"x_min":31,"x_max":1096,"o":"m 717 -8 q 480 4 603 -24 q 249 108 357 32 q 88 290 140 183 q 49 533 31 408 q 132 760 68 657 q 285 932 194 864 q 313 950 297 942 q 471 1007 375 992 q 688 986 567 1022 l 700 983 q 972 811 851 951 q 1072 588 1047 721 q 1065 342 1096 456 q 1022 224 1050 281 q 953 118 994 167 q 850 35 911 69 q 717 -8 789 1 l 717 -8 m 689 178 q 806 241 757 188 q 876 383 856 294 q 881 556 896 472 q 822 690 865 640 q 740 767 778 743 q 657 800 701 790 q 469 814 613 810 q 404 785 421 796 q 261 588 304 708 q 263 371 218 468 q 438 217 310 275 q 689 178 567 160 l 689 178 m 368 1078 q 308 1106 333 1078 q 283 1173 283 1133 q 306 1241 282 1213 q 365 1271 331 1269 q 688 1275 515 1274 q 748 1247 722 1275 q 774 1179 774 1218 q 749 1111 774 1140 q 688 1082 724 1082 q 368 1078 518 1081 l 368 1078 z "},"Ǫ":{"ha":1017,"x_min":42,"x_max":974,"o":"m 542 -261 q 460 -244 500 -261 q 397 -200 421 -228 q 354 -89 354 -151 q 404 47 351 -14 q 478 106 435 82 q 563 133 522 129 q 664 103 639 143 q 668 53 679 78 q 632 17 657 28 q 612 10 622 13 q 592 4 601 7 q 531 -18 554 -4 q 492 -86 488 -44 q 510 -119 493 -107 q 550 -132 526 -132 q 580 -126 568 -132 q 607 -110 592 -121 q 633 -94 621 -99 q 660 -89 644 -89 q 705 -109 689 -89 q 721 -154 721 -129 q 671 -228 721 -197 q 611 -252 640 -243 q 542 -261 582 -261 l 542 -261 m 461 -12 q 278 33 358 -8 q 148 142 197 75 q 72 287 99 208 q 44 450 46 365 q 63 626 42 544 q 124 783 83 708 q 235 915 165 857 q 392 997 304 972 q 471 1006 426 1006 l 500 1006 q 532 1004 522 1006 q 553 1003 542 1003 q 624 999 597 1001 q 696 981 651 996 q 783 936 740 965 q 927 768 881 869 q 972 558 974 667 q 935 349 971 449 q 865 212 908 276 q 761 95 821 147 q 624 14 701 43 q 461 -12 546 -15 l 461 -12 l 461 -12 m 469 178 q 634 243 557 175 q 750 415 711 311 q 770 626 793 532 q 675 771 747 721 q 645 790 657 783 q 617 801 633 796 q 585 808 601 807 q 558 810 568 810 q 533 811 549 810 q 511 815 518 813 q 485 817 504 817 q 447 813 467 819 q 292 683 349 776 q 239 457 236 589 q 303 260 242 339 q 469 178 364 181 l 469 178 l 469 178 z "},"Ø":{"ha":1047,"x_min":0,"x_max":1007,"o":"m 79 -61 q 24 -38 49 -61 q 0 15 0 -15 q 19 61 0 40 l 104 150 l 447 536 l 878 999 q 931 1022 900 1022 q 984 999 961 1022 q 1007 944 1007 976 q 989 894 1007 914 l 558 440 l 208 44 l 135 -36 q 79 -61 114 -61 l 79 -61 m 376 7 q 194 103 268 38 l 119 194 q 92 250 104 221 q 56 443 57 335 q 82 653 54 546 q 181 854 113 767 q 360 972 250 943 q 449 987 390 982 q 544 992 508 992 q 583 989 568 994 q 685 949 636 990 q 785 888 747 919 l 857 818 q 972 596 942 729 q 990 415 997 507 q 858 119 976 244 q 726 26 801 58 q 558 -15 647 -8 q 376 7 469 -21 l 376 7 m 429 182 q 561 176 496 164 q 676 221 626 188 q 757 301 724 251 q 786 546 819 396 q 717 679 764 628 l 626 754 q 556 799 592 776 q 410 786 467 803 q 324 726 363 774 q 265 607 285 678 q 250 360 225 464 l 296 258 q 347 212 311 229 q 429 182 382 194 l 429 182 z "},"Ǿ":{"ha":1047,"x_min":0,"x_max":1007,"o":"m 79 -61 q 24 -38 49 -61 q 0 15 0 -15 q 19 61 0 40 l 104 150 l 447 536 l 878 999 q 931 1022 900 1022 q 984 999 961 1022 q 1007 944 1007 976 q 989 894 1007 914 l 558 440 l 208 44 l 135 -36 q 79 -61 114 -61 l 79 -61 m 376 7 q 194 103 268 38 l 119 194 q 92 250 104 221 q 56 443 57 335 q 82 653 54 546 q 181 854 113 767 q 360 972 250 943 q 449 987 390 982 q 544 992 508 992 q 583 989 568 994 q 685 949 636 990 q 785 888 747 919 l 857 818 q 972 596 942 729 q 990 415 997 507 q 858 119 976 244 q 726 26 801 58 q 558 -15 647 -8 q 376 7 469 -21 l 376 7 m 429 182 q 561 176 496 164 q 676 221 626 188 q 757 301 724 251 q 786 546 819 396 q 717 679 764 628 l 626 754 q 556 799 592 776 q 410 786 467 803 q 324 726 363 774 q 265 607 285 678 q 250 360 225 464 l 296 258 q 347 212 311 229 q 429 182 382 194 l 429 182 m 497 1056 q 434 1094 458 1063 q 416 1166 410 1126 q 454 1229 422 1206 l 585 1324 q 657 1343 618 1349 q 720 1304 696 1336 q 738 1233 744 1272 q 700 1169 732 1193 l 569 1075 q 497 1056 538 1050 l 497 1056 z "},"Õ":{"ha":1025,"x_min":43,"x_max":986,"o":"m 365 7 q 81 250 156 67 q 44 443 47 333 q 71 653 43 551 q 169 854 101 767 q 349 972 239 943 q 413 985 376 981 q 488 990 450 989 q 533 992 526 992 q 572 989 553 994 q 628 975 601 990 l 690 936 q 747 899 708 925 q 803 855 785 872 q 851 808 822 838 q 897 749 881 778 q 932 680 914 719 q 961 596 950 640 q 979 415 986 504 q 938 252 972 325 q 847 119 904 179 q 715 26 790 58 q 551 -14 640 -6 q 365 7 463 -22 l 365 7 m 418 193 q 553 181 488 174 q 665 220 618 189 q 745 301 713 251 q 784 413 778 350 q 775 546 790 475 q 744 626 761 593 q 695 690 726 660 q 633 741 664 719 q 544 799 603 763 q 486 795 517 796 q 437 793 456 794 q 399 786 418 792 q 315 726 353 774 q 257 601 278 678 q 239 447 238 522 q 261 322 240 372 q 418 193 300 226 l 418 193 m 285 1044 q 231 1065 250 1044 q 213 1122 213 1086 q 242 1201 213 1161 q 317 1268 271 1242 q 408 1294 364 1294 q 480 1283 451 1294 q 539 1251 508 1271 q 590 1223 571 1232 q 635 1214 608 1214 q 669 1224 657 1214 q 694 1253 681 1233 q 724 1286 710 1275 q 769 1297 739 1297 q 824 1276 804 1297 q 843 1221 843 1256 q 817 1137 843 1178 q 745 1070 790 1096 q 644 1044 700 1044 q 580 1055 608 1044 q 517 1086 551 1065 q 462 1116 481 1107 q 421 1125 443 1125 q 380 1115 394 1125 q 351 1088 365 1104 q 323 1054 335 1064 q 285 1044 311 1044 l 285 1044 z "},"Œ":{"ha":1501,"x_min":28,"x_max":1471,"o":"m 901 -14 q 847 -6 872 -18 q 807 29 822 6 q 782 65 790 44 q 634 -12 717 6 q 469 -13 551 -29 q 317 44 386 3 q 144 195 210 108 q 51 422 78 282 q 83 706 28 571 q 246 936 138 842 q 393 1026 314 994 q 565 1057 472 1058 q 747 1014 657 1056 l 753 1019 q 838 1072 779 1071 q 908 1043 879 1072 q 1299 1058 1081 1046 q 1369 1033 1339 1060 q 1401 967 1399 1007 q 1376 897 1403 926 q 1310 864 1350 867 q 942 850 1108 853 q 962 789 963 824 q 940 729 961 754 q 942 644 942 689 q 1251 656 971 646 q 1321 629 1292 657 q 1351 561 1350 601 q 1325 492 1353 521 q 1257 461 1297 463 q 950 451 992 453 q 971 197 957 321 q 1151 200 1006 197 q 1374 203 1296 203 q 1442 174 1414 203 q 1471 106 1471 146 q 1442 37 1471 65 q 1374 8 1414 8 q 1145 6 1293 8 q 944 3 997 4 q 901 -14 925 -11 l 901 -14 m 417 210 q 674 232 567 119 q 688 265 681 240 q 692 276 690 271 q 694 289 693 282 l 699 299 q 713 342 706 324 q 760 392 726 376 q 753 497 756 435 q 742 539 743 517 q 750 582 742 561 q 746 779 747 667 q 706 817 724 806 q 586 861 644 854 q 472 850 525 868 q 374 790 419 831 q 264 644 300 726 q 243 453 228 550 q 303 310 265 364 q 417 210 342 256 l 417 210 z "},"Ŕ":{"ha":951,"x_min":104,"x_max":908,"o":"m 710 74 q 654 289 678 217 q 597 381 629 351 q 497 421 563 413 q 456 419 482 419 q 428 418 429 418 q 344 415 374 417 l 303 415 q 304 96 304 226 q 276 27 304 56 q 207 -1 247 -1 q 138 27 167 -1 q 110 96 110 56 q 107 513 110 253 q 104 901 104 772 q 133 970 104 942 q 201 999 161 999 l 208 999 q 578 997 407 1024 q 786 924 710 978 q 894 707 901 843 q 756 496 886 574 q 836 356 806 438 q 899 121 867 275 q 888 47 908 82 q 828 3 867 13 q 754 14 789 -7 q 710 74 719 35 l 710 74 m 304 610 q 501 615 419 624 q 521 618 513 617 q 653 660 603 632 q 700 718 699 686 q 676 764 703 746 q 547 806 635 793 q 299 813 442 822 q 300 610 299 728 l 304 610 m 465 1046 q 396 1071 426 1044 q 363 1137 365 1097 q 388 1207 361 1176 l 496 1326 q 563 1360 522 1357 q 632 1335 601 1361 q 665 1269 663 1308 q 640 1199 667 1229 l 532 1079 q 465 1046 506 1049 l 465 1046 z "},"Ř":{"ha":951,"x_min":104,"x_max":908,"o":"m 710 74 q 654 289 678 217 q 597 381 629 351 q 497 421 563 413 q 456 419 482 419 q 428 418 429 418 q 344 415 374 417 l 303 415 q 304 96 304 226 q 276 27 304 56 q 207 -1 247 -1 q 138 27 167 -1 q 110 96 110 56 q 107 513 110 253 q 104 901 104 772 q 133 970 104 942 q 201 999 161 999 l 208 999 q 578 997 407 1024 q 786 924 710 978 q 894 707 901 843 q 756 496 886 574 q 836 356 806 438 q 899 121 867 275 q 888 47 908 82 q 828 3 867 13 q 754 14 789 -7 q 710 74 719 35 l 710 74 m 304 610 q 501 615 419 624 q 521 618 513 617 q 653 660 603 632 q 700 718 699 686 q 676 764 703 746 q 547 806 635 793 q 299 813 442 822 q 300 610 299 728 l 304 610 m 429 1046 q 415 1049 422 1047 q 386 1061 400 1053 l 253 1153 q 216 1208 224 1174 q 228 1272 208 1242 q 283 1308 249 1301 q 349 1294 318 1315 l 439 1231 l 526 1296 q 590 1309 556 1315 q 645 1274 624 1303 q 660 1211 667 1244 q 624 1156 654 1175 l 493 1058 q 429 1046 464 1039 l 429 1046 z "},"Ŗ":{"ha":951,"x_min":104,"x_max":908,"o":"m 710 74 q 654 289 678 217 q 597 381 629 351 q 497 421 563 413 q 456 419 482 419 q 428 418 429 418 q 344 415 374 417 l 303 415 q 304 96 304 226 q 276 27 304 56 q 207 -1 247 -1 q 138 27 167 -1 q 110 96 110 56 q 107 513 110 253 q 104 901 104 772 q 133 970 104 942 q 201 999 161 999 l 208 999 q 578 997 407 1024 q 786 924 710 978 q 894 707 901 843 q 756 496 886 574 q 836 356 806 438 q 899 121 867 275 q 888 47 908 82 q 828 3 867 13 q 754 14 789 -7 q 710 74 719 35 l 710 74 m 304 610 q 501 615 419 624 q 521 618 513 617 q 653 660 603 632 q 700 718 699 686 q 676 764 703 746 q 547 806 635 793 q 299 813 442 822 q 300 610 299 728 l 304 610 m 542 -371 q 499 -397 524 -390 q 456 -385 475 -404 q 434 -340 436 -365 q 451 -293 432 -315 q 497 -225 469 -275 q 458 -208 474 -221 q 437 -181 444 -197 q 429 -142 429 -165 q 440 -100 429 -118 q 475 -69 451 -82 l 499 -60 q 528 -58 519 -57 q 550 -61 536 -58 q 613 -104 589 -69 q 633 -201 639 -140 q 603 -285 624 -246 q 542 -371 579 -336 l 542 -371 z "},"Ś":{"ha":843,"x_min":50,"x_max":797,"o":"m 429 -12 q 236 21 322 -15 q 100 126 150 57 q 50 288 50 196 q 82 374 50 343 q 154 406 114 406 q 219 377 194 406 q 244 314 244 349 q 249 256 244 279 q 269 214 253 233 q 432 175 301 175 q 553 204 503 175 q 603 288 603 233 q 544 357 603 324 q 365 426 504 379 q 138 542 214 476 q 61 722 61 608 q 111 875 61 810 q 242 975 161 940 q 415 1010 324 1010 q 597 979 510 1013 q 738 884 685 946 q 792 744 792 822 q 761 673 792 703 q 690 643 731 643 q 636 660 663 643 q 603 701 610 676 q 578 753 594 735 q 536 786 563 771 q 474 814 501 806 q 394 822 446 822 q 294 799 333 822 q 254 740 254 776 q 299 665 254 694 q 426 610 344 636 q 638 528 585 557 q 761 425 725 479 q 797 289 797 371 q 744 133 797 201 q 606 26 692 64 q 429 -12 521 -12 l 429 -12 m 393 1056 q 330 1094 354 1063 q 312 1166 306 1126 q 350 1229 318 1206 l 481 1324 q 553 1343 514 1349 q 616 1304 592 1336 q 634 1233 640 1272 q 596 1169 628 1193 l 465 1075 q 393 1056 433 1050 l 393 1056 z "},"Š":{"ha":843,"x_min":50,"x_max":797,"o":"m 429 -12 q 236 21 322 -15 q 100 126 150 57 q 50 288 50 196 q 82 374 50 343 q 154 406 114 406 q 219 377 194 406 q 244 314 244 349 q 249 256 244 279 q 269 214 253 233 q 432 175 301 175 q 553 204 503 175 q 603 288 603 233 q 544 357 603 324 q 365 426 504 379 q 138 542 214 476 q 61 722 61 608 q 111 875 61 810 q 242 975 161 940 q 415 1010 324 1010 q 597 979 510 1013 q 738 884 685 946 q 792 744 792 822 q 761 673 792 703 q 690 643 731 643 q 636 660 663 643 q 603 701 610 676 q 578 753 594 735 q 536 786 563 771 q 474 814 501 806 q 394 822 446 822 q 294 799 333 822 q 254 740 254 776 q 299 665 254 694 q 426 610 344 636 q 638 528 585 557 q 761 425 725 479 q 797 289 797 371 q 744 133 797 201 q 606 26 692 64 q 429 -12 521 -12 l 429 -12 z "},"Ş":{"ha":843,"x_min":50,"x_max":797,"o":"m 435 -342 q 324 -312 369 -342 q 279 -235 279 -282 q 296 -190 279 -207 q 335 -174 313 -174 q 364 -181 351 -174 q 389 -203 376 -189 q 412 -221 400 -215 q 443 -226 424 -226 q 473 -215 461 -226 q 485 -190 485 -204 q 477 -169 485 -178 q 457 -157 469 -160 q 426 -152 444 -153 q 389 -150 407 -151 q 345 -134 361 -147 q 329 -97 329 -121 q 358 -22 329 -64 q 425 57 388 21 q 510 24 475 50 q 465 -37 481 -11 q 450 -87 450 -62 l 426 -65 q 464 -60 439 -60 q 569 -95 525 -60 q 613 -183 613 -131 q 587 -267 613 -231 q 520 -322 561 -303 q 435 -342 479 -342 l 435 -342 m 429 -12 q 236 21 322 -15 q 100 126 150 57 q 50 288 50 196 q 82 374 50 343 q 154 406 114 406 q 219 377 194 406 q 244 314 244 349 q 249 256 244 279 q 269 214 253 233 q 432 175 301 175 q 553 204 503 175 q 603 288 603 233 q 544 357 603 324 q 365 426 504 379 q 138 542 214 476 q 61 722 61 608 q 111 875 61 810 q 242 975 161 940 q 415 1010 324 1010 q 597 979 510 1013 q 738 884 685 946 q 792 744 792 822 q 761 673 792 703 q 690 643 731 643 q 636 660 663 643 q 603 701 610 676 q 578 753 594 735 q 536 786 563 771 q 474 814 501 806 q 394 822 446 822 q 294 799 333 822 q 254 740 254 776 q 299 665 254 694 q 426 610 344 636 q 638 528 585 557 q 761 425 725 479 q 797 289 797 371 q 744 133 797 201 q 606 26 692 64 q 429 -12 521 -12 l 429 -12 l 429 -12 z "},"Ŝ":{"ha":843,"x_min":33,"x_max":806,"o":"m 413 -12 q 300 -3 357 -14 q 192 40 243 8 q 110 124 142 72 q 75 218 88 161 q 68 254 75 219 q 63 281 65 271 q 71 354 51 319 q 129 400 90 389 q 203 392 168 411 q 249 333 238 372 q 258 292 254 315 q 261 278 258 290 q 265 258 264 265 q 276 224 269 233 q 343 186 292 199 q 476 189 394 174 q 578 236 549 206 q 603 296 607 267 q 544 357 597 328 q 365 426 504 379 q 156 524 217 476 q 56 767 33 618 q 97 881 65 832 q 176 958 129 931 q 272 997 222 985 q 372 1010 321 1010 q 574 965 475 1010 q 724 840 672 921 q 756 765 744 811 q 760 747 757 763 q 767 722 764 732 q 761 649 779 685 q 706 600 743 613 q 632 606 668 588 q 583 661 596 624 q 568 717 582 664 q 563 735 564 731 q 487 791 540 767 q 371 817 433 815 q 247 739 258 817 q 250 705 244 718 q 274 678 256 692 q 426 610 311 649 q 638 528 585 557 q 794 326 774 453 q 783 198 806 257 q 717 100 761 139 q 624 38 672 61 q 521 0 574 13 q 413 -12 468 -12 l 413 -12 m 533 1060 q 510 1063 522 1060 q 489 1075 499 1067 l 401 1140 l 311 1076 q 263 1061 290 1061 q 199 1088 222 1061 q 176 1147 176 1114 q 215 1218 176 1190 l 349 1310 q 378 1322 363 1318 l 392 1325 q 408 1326 397 1326 q 456 1313 433 1326 l 586 1215 q 614 1185 604 1204 q 624 1143 624 1165 q 595 1084 624 1108 q 533 1060 567 1060 l 533 1060 z "},"Ș":{"ha":843,"x_min":50,"x_max":797,"o":"m 429 -12 q 236 21 322 -15 q 100 126 150 57 q 50 288 50 196 q 82 374 50 343 q 154 406 114 406 q 219 377 194 406 q 244 314 244 349 q 249 256 244 279 q 269 214 253 233 q 432 175 301 175 q 553 204 503 175 q 603 288 603 233 q 544 357 603 324 q 365 426 504 379 q 138 542 214 476 q 61 722 61 608 q 111 875 61 810 q 242 975 161 940 q 415 1010 324 1010 q 597 979 510 1013 q 738 884 685 946 q 792 744 792 822 q 761 673 792 703 q 690 643 731 643 q 636 660 663 643 q 603 701 610 676 q 578 753 594 735 q 536 786 563 771 q 474 814 501 806 q 394 822 446 822 q 294 799 333 822 q 254 740 254 776 q 299 665 254 694 q 426 610 344 636 q 638 528 585 557 q 761 425 725 479 q 797 289 797 371 q 744 133 797 201 q 606 26 692 64 q 429 -12 521 -12 l 429 -12 m 457 -371 q 415 -397 439 -390 q 371 -385 390 -404 q 349 -340 351 -365 q 367 -293 347 -315 q 413 -225 385 -275 q 374 -208 389 -221 q 352 -181 360 -197 q 344 -142 344 -165 q 356 -100 344 -118 q 390 -69 367 -82 l 414 -60 q 443 -58 435 -57 q 465 -61 451 -58 q 528 -104 504 -69 q 549 -201 554 -140 q 518 -285 539 -246 q 457 -371 494 -336 l 457 -371 z "},"Ŧ":{"ha":790,"x_min":10,"x_max":781,"o":"m 208 414 q 149 438 174 414 q 124 497 124 463 q 149 557 124 533 q 208 581 174 581 l 583 581 q 642 558 619 581 q 665 497 665 536 q 642 437 665 460 q 583 414 618 414 l 208 414 l 208 414 m 486 96 q 456 28 485 56 q 388 1 428 0 q 319 30 347 1 q 292 99 292 58 q 290 492 293 142 q 296 806 289 679 q 108 804 185 806 q 40 832 68 804 q 10 900 11 860 q 38 969 10 940 q 106 999 65 997 q 393 1001 193 1000 q 681 1001 593 1001 q 750 974 721 1001 q 780 906 779 946 q 753 837 781 867 q 686 807 725 807 q 490 806 599 807 q 485 493 483 685 q 486 96 488 139 l 486 96 l 486 96 z "},"Ť":{"ha":899,"x_min":8,"x_max":889,"o":"m 358 88 q 356 313 358 196 q 350 584 354 429 q 344 808 346 739 q 104 814 218 811 q 36 844 64 815 q 10 914 8 874 q 40 982 11 954 q 110 1008 69 1010 q 792 997 342 1000 q 860 968 832 997 q 889 899 889 939 q 860 831 889 860 q 792 803 831 803 q 539 806 619 804 q 544 583 540 739 q 551 310 549 426 q 553 88 553 194 q 524 19 553 47 q 456 -10 496 -10 q 387 19 415 -10 q 358 88 358 47 l 358 88 m 425 1060 q 411 1063 418 1061 q 382 1075 396 1067 l 249 1167 q 212 1222 219 1188 q 224 1285 204 1256 q 279 1322 244 1315 q 344 1308 314 1329 l 435 1244 l 522 1310 q 585 1323 551 1329 q 641 1288 619 1317 q 656 1225 663 1258 q 619 1169 650 1189 l 489 1072 q 425 1060 460 1053 l 425 1060 z "},"Ţ":{"ha":790,"x_min":10,"x_max":781,"o":"m 376 -342 q 266 -312 311 -342 q 221 -235 221 -282 q 238 -190 221 -207 q 276 -174 254 -174 q 306 -181 293 -174 q 331 -203 318 -189 q 353 -221 342 -215 q 385 -226 365 -226 q 415 -215 403 -226 q 426 -190 426 -204 q 419 -169 426 -178 q 399 -157 411 -160 q 367 -152 386 -153 q 331 -150 349 -151 q 287 -134 303 -147 q 271 -97 271 -121 q 300 -22 271 -64 q 367 57 329 21 q 451 24 417 50 q 407 -37 422 -11 q 392 -87 392 -62 l 368 -65 q 406 -60 381 -60 q 510 -95 467 -60 q 554 -183 554 -131 q 528 -267 554 -231 q 462 -322 503 -303 q 376 -342 421 -342 l 376 -342 m 486 96 q 456 28 485 56 q 388 1 428 0 q 319 30 347 1 q 292 99 292 58 q 290 492 293 142 q 296 806 289 679 q 108 804 185 806 q 40 832 68 804 q 10 900 11 860 q 38 969 10 940 q 106 999 65 997 q 393 1001 193 1000 q 681 1001 593 1001 q 750 974 721 1001 q 780 906 779 946 q 753 837 781 867 q 686 807 725 807 q 490 806 599 807 q 485 493 483 685 q 486 96 488 139 l 486 96 l 486 96 z "},"Ț":{"ha":790,"x_min":10,"x_max":781,"o":"m 486 96 q 456 28 485 56 q 388 1 428 0 q 319 30 347 1 q 292 99 292 58 q 290 492 293 142 q 296 806 289 679 q 108 804 185 806 q 40 832 68 804 q 10 900 11 860 q 38 969 10 940 q 106 999 65 997 q 393 1001 193 1000 q 681 1001 593 1001 q 750 974 721 1001 q 780 906 779 946 q 753 837 781 867 q 686 807 725 807 q 490 806 599 807 q 485 493 483 685 q 486 96 488 139 l 486 96 m 399 -371 q 356 -397 381 -390 q 313 -385 332 -404 q 291 -340 293 -365 q 308 -293 289 -315 q 354 -225 326 -275 q 315 -208 331 -221 q 294 -181 301 -197 q 286 -142 286 -165 q 297 -100 286 -118 q 332 -69 308 -82 l 356 -60 q 385 -58 376 -57 q 407 -61 393 -58 q 469 -104 446 -69 q 490 -201 496 -140 q 460 -285 481 -246 q 399 -371 436 -336 l 399 -371 z "},"Þ":{"ha":899,"x_min":100,"x_max":890,"o":"m 111 90 q 106 890 100 569 q 135 972 107 944 q 204 999 164 1000 q 272 970 244 999 q 300 888 300 942 l 300 881 q 667 843 554 888 q 797 756 743 813 q 869 628 850 700 q 865 474 890 550 q 776 336 842 399 q 522 240 689 254 q 403 236 478 236 q 308 233 332 236 l 303 233 q 306 96 304 175 q 278 26 306 56 q 211 -3 251 -3 q 142 23 171 -4 q 111 90 113 50 l 111 90 m 299 428 q 401 429 328 429 q 507 433 469 431 q 643 475 607 442 q 682 578 696 526 q 594 663 667 633 q 458 687 544 683 q 297 686 372 690 q 299 428 297 564 l 299 428 z "},"Ú":{"ha":989,"x_min":74,"x_max":918,"o":"m 140 153 q 83 333 96 215 q 78 539 74 417 q 90 742 81 606 q 99 904 99 869 q 128 972 100 944 q 197 999 157 1000 q 265 970 238 999 q 292 901 293 942 q 283 728 292 861 q 272 533 274 583 q 276 355 268 424 q 299 264 283 286 q 407 190 338 208 q 544 194 476 172 q 653 275 614 218 q 722 549 718 369 q 718 717 724 613 q 708 900 710 869 q 735 969 708 940 q 803 999 763 999 q 872 973 843 1000 q 903 906 901 946 q 911 728 903 878 q 915 543 918 615 q 814 167 910 307 q 669 41 760 88 q 484 -11 579 -6 q 294 25 389 -17 q 140 153 200 67 l 140 153 m 468 1017 q 399 1042 429 1015 q 366 1108 368 1068 q 390 1178 364 1147 l 499 1297 q 565 1331 525 1328 q 635 1306 604 1332 q 667 1240 665 1279 q 643 1169 669 1200 l 535 1050 q 468 1017 508 1019 l 468 1017 z "},"Ŭ":{"ha":1013,"x_min":75,"x_max":951,"o":"m 607 17 q 471 2 531 -1 q 358 35 411 6 q 267 103 306 64 q 200 192 229 142 q 82 525 106 349 q 76 598 78 561 q 78 682 75 635 q 82 749 81 729 q 90 829 83 769 q 97 893 96 889 q 131 958 100 933 q 203 980 163 983 q 268 945 243 976 q 289 874 293 914 q 283 816 288 858 q 278 756 279 774 l 274 704 q 271 648 271 669 q 272 598 271 626 q 274 544 272 569 q 365 292 293 411 q 447 207 403 229 q 551 203 492 185 q 731 503 689 243 q 740 915 757 610 q 766 985 739 956 q 833 1017 793 1015 q 902 992 872 1019 q 935 926 932 965 q 922 472 951 597 q 607 17 861 92 l 607 17 m 536 1026 q 422 1052 481 1025 q 322 1125 363 1079 q 281 1226 281 1171 q 308 1285 281 1264 q 364 1307 336 1307 q 399 1302 390 1307 q 418 1289 408 1297 q 436 1256 428 1281 q 453 1226 443 1236 q 492 1201 469 1208 q 528 1193 514 1193 q 556 1201 542 1193 q 590 1229 571 1210 q 603 1259 597 1246 q 626 1285 610 1272 q 674 1297 643 1297 q 727 1273 706 1297 q 751 1208 749 1249 q 706 1111 754 1161 q 618 1044 664 1068 q 536 1026 586 1028 l 536 1026 z "},"Û":{"ha":989,"x_min":74,"x_max":918,"o":"m 140 153 q 83 333 96 215 q 78 539 74 417 q 90 742 81 606 q 99 890 99 856 q 128 958 100 931 q 197 985 157 986 q 265 956 238 985 q 292 888 293 928 q 283 728 292 847 q 272 533 274 583 q 276 355 268 424 q 299 264 283 286 q 407 190 338 208 q 544 194 476 172 q 653 275 614 218 q 722 549 718 369 q 718 717 724 613 q 708 900 710 869 q 735 969 708 940 q 803 999 763 999 q 872 973 843 1000 q 903 906 901 946 q 911 728 903 878 q 915 543 918 615 q 814 167 910 307 q 669 41 760 88 q 484 -11 579 -6 q 294 25 389 -17 q 140 153 200 67 l 140 153 m 354 1051 q 299 1088 319 1058 q 287 1152 279 1118 q 324 1207 294 1186 l 457 1299 q 486 1311 471 1307 q 500 1314 493 1313 q 564 1301 535 1321 l 694 1204 q 731 1149 725 1185 q 716 1086 738 1115 q 660 1051 694 1057 q 597 1064 626 1044 l 510 1129 l 419 1065 q 354 1051 389 1044 l 354 1051 z "},"Ü":{"ha":989,"x_min":74,"x_max":918,"o":"m 140 139 q 83 319 96 201 q 78 525 74 403 q 90 728 81 592 q 99 918 99 883 q 128 986 100 958 q 197 1013 157 1014 q 265 984 238 1013 q 292 894 293 956 q 283 714 292 833 q 272 519 274 569 q 276 341 268 410 q 299 250 283 272 q 407 176 338 194 q 544 181 476 158 q 653 261 614 204 q 722 535 718 356 q 718 703 724 599 q 708 914 710 883 q 735 983 708 954 q 803 1013 763 1013 q 872 987 843 1014 q 903 919 901 960 q 911 714 903 892 q 915 529 918 601 q 814 153 910 293 q 669 27 760 74 q 484 -25 579 -19 q 294 11 389 -31 q 140 139 200 53 l 140 139 m 460 1217 q 489 1149 489 1189 q 460 1080 489 1108 q 392 1051 432 1051 q 323 1080 351 1051 q 294 1149 294 1108 q 323 1217 294 1189 q 391 1245 351 1246 q 460 1217 431 1244 l 460 1217 m 706 1210 q 735 1142 735 1182 q 706 1073 735 1101 q 638 1044 678 1044 q 569 1073 597 1044 q 540 1142 540 1101 q 569 1210 540 1182 q 637 1238 597 1239 q 706 1210 676 1238 l 706 1210 z "},"Ù":{"ha":989,"x_min":74,"x_max":918,"o":"m 140 153 q 83 333 96 215 q 78 539 74 417 q 90 742 81 606 q 99 904 99 869 q 128 972 100 944 q 197 999 157 1000 q 265 970 238 999 q 292 901 293 942 q 283 728 292 861 q 272 533 274 583 q 276 355 268 424 q 299 264 283 286 q 407 190 338 208 q 544 194 476 172 q 653 275 614 218 q 722 549 718 369 q 718 717 724 613 q 708 900 710 869 q 735 969 708 940 q 803 999 763 999 q 872 973 843 1000 q 903 906 901 946 q 911 728 903 878 q 915 543 918 615 q 814 167 910 307 q 669 41 760 88 q 484 -11 579 -6 q 294 25 389 -17 q 140 153 200 67 l 140 153 m 533 1014 q 467 1047 493 1017 l 358 1167 q 334 1237 332 1197 q 367 1303 336 1276 q 436 1328 397 1329 q 503 1294 476 1325 l 611 1175 q 635 1105 638 1144 q 603 1039 633 1065 q 533 1014 572 1013 l 533 1014 z "},"Ű":{"ha":992,"x_min":75,"x_max":931,"o":"m 586 17 q 450 2 510 -1 q 338 35 390 6 q 247 103 285 64 q 179 192 208 142 q 80 626 85 349 q 76 907 75 903 q 110 972 79 947 q 182 994 142 997 q 247 959 222 990 q 268 888 272 928 q 269 642 267 872 q 344 292 272 411 q 426 207 382 229 q 531 203 471 185 q 710 503 668 243 q 719 903 736 665 q 745 973 718 943 q 812 1005 772 1003 q 881 980 851 1007 q 914 914 911 953 q 901 472 931 653 q 586 17 840 92 l 586 17 m 404 1085 q 349 1045 385 1053 q 283 1056 314 1038 q 244 1111 251 1075 q 256 1178 236 1147 l 340 1311 q 394 1349 358 1342 q 461 1338 431 1357 q 499 1283 492 1319 q 489 1218 507 1247 l 404 1085 l 404 1085 m 678 1074 q 619 1041 654 1046 q 554 1059 583 1036 q 521 1118 525 1082 q 539 1182 517 1154 l 622 1288 q 681 1322 644 1317 q 745 1303 717 1326 q 778 1244 774 1281 q 760 1181 783 1208 l 678 1074 l 678 1074 z "},"Ū":{"ha":992,"x_min":75,"x_max":931,"o":"m 586 17 q 450 2 510 -1 q 338 35 390 6 q 247 103 285 64 q 179 192 208 142 q 80 612 85 349 q 76 879 75 875 q 110 944 79 919 q 182 966 142 969 q 247 931 222 963 q 268 860 272 900 q 269 628 267 844 q 344 292 272 411 q 426 207 382 229 q 531 203 471 185 q 710 433 668 243 q 719 901 736 596 q 747 977 721 953 q 812 1003 772 1001 q 881 978 851 1006 q 914 913 911 951 q 901 403 931 583 q 586 17 840 92 l 586 17 m 331 1107 q 271 1135 296 1107 q 245 1202 246 1163 q 269 1270 244 1242 q 328 1300 293 1299 q 650 1304 478 1303 q 710 1269 685 1304 q 736 1201 736 1233 q 711 1140 736 1169 q 650 1111 686 1111 q 331 1107 481 1110 l 331 1107 z "},"Ų":{"ha":1013,"x_min":75,"x_max":951,"o":"m 681 -321 q 422 -314 507 -339 q 328 -251 360 -296 q 304 -136 292 -201 q 379 -3 317 -76 q 200 164 272 43 q 82 553 106 321 q 76 626 78 589 q 78 710 75 663 q 82 777 81 757 q 90 848 83 797 q 97 903 96 899 q 131 968 100 943 q 203 990 163 993 q 268 955 243 986 q 289 883 293 924 q 283 835 288 868 q 278 783 279 801 l 274 732 q 271 676 271 697 q 272 626 271 654 q 274 572 272 597 q 365 264 293 383 q 447 179 403 201 q 551 175 492 157 q 731 475 689 215 q 740 897 757 638 q 766 967 739 938 q 833 999 793 997 q 902 974 872 1001 q 935 908 932 947 q 922 444 951 625 q 674 17 869 118 q 671 13 672 14 q 540 -112 582 -67 q 522 -135 531 -124 q 661 -129 575 -137 q 732 -150 701 -125 q 767 -215 763 -175 q 746 -286 771 -256 q 681 -321 721 -317 l 681 -321 z "},"Ů":{"ha":1014,"x_min":74,"x_max":953,"o":"m 608 14 q 472 -1 532 -4 q 360 32 413 3 q 269 100 307 61 q 201 189 231 139 q 83 578 107 346 q 76 765 79 614 q 105 942 74 917 q 176 963 136 967 q 242 928 217 960 q 269 788 267 897 q 273 651 272 679 q 275 597 274 622 q 367 289 294 408 q 449 204 404 226 q 553 200 493 182 q 732 500 690 240 q 742 899 758 663 q 767 969 740 939 q 834 1001 794 999 q 903 976 874 1003 q 936 910 933 949 q 924 469 953 650 q 608 14 863 89 l 608 14 m 493 1028 q 424 1038 453 1029 q 361 1069 394 1047 q 315 1130 329 1090 q 303 1211 301 1169 q 323 1290 306 1253 q 374 1347 340 1328 q 384 1351 375 1349 q 400 1357 393 1354 q 421 1364 410 1361 q 432 1364 426 1364 q 442 1363 438 1364 q 467 1367 450 1365 q 516 1356 492 1363 q 562 1338 540 1349 q 601 1309 583 1326 q 632 1267 619 1292 q 652 1183 651 1226 q 634 1105 653 1140 q 580 1048 615 1069 q 493 1028 544 1026 l 493 1028 m 488 1147 q 527 1163 517 1150 q 535 1191 538 1175 q 519 1222 532 1207 q 488 1242 506 1236 q 469 1247 479 1246 q 451 1249 460 1247 q 424 1223 431 1240 q 424 1188 418 1206 q 446 1158 429 1171 q 488 1147 463 1144 l 488 1147 z "},"Ũ":{"ha":989,"x_min":74,"x_max":918,"o":"m 140 139 q 83 319 96 201 q 78 525 74 403 q 90 728 81 592 q 99 918 99 883 q 128 986 100 958 q 197 1013 157 1014 q 265 984 238 1013 q 292 915 293 956 q 283 714 292 875 q 272 519 274 569 q 276 341 268 410 q 299 250 283 272 q 407 176 338 194 q 544 181 476 158 q 653 261 614 204 q 722 535 718 356 q 718 703 724 599 q 708 914 710 883 q 735 983 708 954 q 803 1013 763 1013 q 872 987 843 1014 q 903 919 901 960 q 911 714 903 892 q 915 529 918 601 q 814 153 910 293 q 669 27 760 74 q 484 -25 579 -19 q 294 11 389 -31 q 140 139 200 53 l 140 139 m 268 1079 q 217 1100 235 1079 q 199 1156 199 1121 q 227 1233 199 1193 q 301 1299 256 1274 q 390 1325 346 1325 q 460 1314 432 1325 q 518 1283 489 1303 q 567 1254 549 1263 q 611 1246 586 1246 q 646 1255 633 1246 q 671 1283 658 1264 q 699 1317 685 1306 q 744 1328 714 1328 q 797 1307 778 1328 q 815 1253 815 1286 q 790 1171 815 1211 q 721 1105 765 1131 q 622 1079 676 1079 q 558 1090 586 1079 q 496 1121 531 1100 q 443 1149 461 1140 q 403 1158 425 1158 q 361 1149 376 1158 q 335 1122 346 1139 q 306 1089 318 1099 q 268 1079 294 1079 l 268 1079 z "},"Ŵ":{"ha":1367,"x_min":18,"x_max":1358,"o":"m 1046 0 q 906 53 974 -19 q 840 181 867 108 q 808 289 824 226 q 803 315 806 300 q 798 338 800 329 q 793 354 796 347 q 758 469 782 390 q 725 575 733 547 q 718 600 722 589 l 713 581 q 663 353 663 354 q 619 210 640 282 q 586 104 600 151 q 550 36 569 60 q 457 1 514 0 q 336 58 399 -3 q 276 144 300 96 q 238 239 251 193 q 225 286 225 285 q 32 861 167 465 q 35 935 18 899 q 89 985 51 972 q 163 982 126 999 q 213 928 200 965 q 408 344 350 528 q 428 275 415 315 q 439 243 432 260 q 476 408 458 328 q 485 442 479 415 q 504 517 492 468 l 525 600 l 563 751 q 575 796 571 782 q 583 817 578 806 q 601 846 589 828 q 638 879 611 860 q 767 890 704 917 q 847 814 824 868 q 890 676 869 778 q 908 608 907 614 q 936 529 918 581 q 965 447 954 478 q 997 333 976 410 l 1010 260 q 1018 346 1013 297 l 1057 517 l 1114 725 l 1161 924 q 1208 981 1172 963 q 1282 989 1243 1000 q 1340 942 1321 978 q 1347 868 1358 907 q 1299 672 1322 758 l 1244 465 l 1199 296 q 1178 231 1193 275 q 1161 167 1171 196 l 1151 129 q 1132 71 1146 96 q 1046 0 1107 13 l 1046 0 m 565 1022 q 510 1059 531 1029 q 498 1123 490 1089 q 535 1178 506 1157 l 668 1269 q 697 1282 682 1278 q 711 1285 704 1283 q 775 1272 746 1292 l 906 1175 q 942 1119 936 1156 q 927 1057 949 1086 q 872 1022 906 1028 q 808 1035 838 1015 l 721 1100 l 631 1036 q 565 1022 600 1015 l 565 1022 z "},"Ý":{"ha":817,"x_min":7,"x_max":824,"o":"m 319 92 q 319 187 319 126 q 318 282 318 247 l 318 361 l 179 592 q 26 854 76 760 q 18 927 7 889 q 65 985 29 965 q 138 993 100 1004 q 196 946 176 982 q 404 594 242 864 l 479 711 l 638 950 q 697 993 658 983 q 770 981 736 1003 q 814 921 804 960 q 801 847 824 882 q 640 603 793 833 q 511 396 558 479 q 513 256 513 364 q 514 97 513 147 q 488 28 515 57 q 419 -3 460 -1 q 350 24 379 -4 q 319 92 321 51 l 319 92 m 382 1056 q 319 1094 343 1063 q 301 1166 294 1126 q 339 1229 307 1206 l 469 1324 q 542 1343 503 1349 q 605 1304 581 1336 q 623 1233 629 1272 q 585 1169 617 1193 l 454 1075 q 382 1056 422 1050 l 382 1056 z "},"Ŷ":{"ha":817,"x_min":7,"x_max":824,"o":"m 319 92 q 319 187 319 126 q 318 282 318 247 l 318 361 l 179 592 q 26 854 76 760 q 18 927 7 889 q 65 985 29 965 q 138 993 100 1004 q 196 946 176 982 q 404 594 242 864 l 479 711 l 638 950 q 697 993 658 983 q 770 981 736 1003 q 814 921 804 960 q 801 847 824 882 q 640 603 793 833 q 511 396 558 479 q 513 256 513 364 q 514 97 513 147 q 488 28 515 57 q 419 -3 460 -1 q 350 24 379 -4 q 319 92 321 51 l 319 92 z "},"Ÿ":{"ha":817,"x_min":7,"x_max":824,"o":"m 319 92 q 319 187 319 126 q 318 282 318 247 l 318 361 l 179 592 q 26 854 76 760 q 18 927 7 889 q 65 985 29 965 q 138 993 100 1004 q 196 946 176 982 q 404 594 242 864 l 479 711 l 638 950 q 697 993 658 983 q 770 981 736 1003 q 814 921 804 960 q 801 847 824 882 q 640 603 793 833 q 511 396 558 479 q 513 256 513 364 q 514 97 513 147 q 488 28 515 57 q 419 -3 460 -1 q 350 24 379 -4 q 319 92 321 51 l 319 92 z "},"Ź":{"ha":932,"x_min":25,"x_max":939,"o":"m 279 -18 q 161 -11 211 -31 q 74 60 108 10 q 42 168 39 111 q 53 210 43 189 q 61 225 57 217 q 79 249 68 235 q 125 306 94 271 l 261 460 l 472 692 l 579 814 q 431 811 553 814 q 121 804 126 804 q 53 834 81 806 q 26 903 25 863 q 55 971 26 943 q 124 999 83 999 q 367 1004 126 999 l 514 1007 q 619 1008 578 1008 q 685 1010 663 1010 q 707 1008 699 1010 l 718 1008 q 731 1006 725 1007 q 775 982 756 1001 q 813 833 839 924 q 760 732 800 788 q 617 564 731 690 l 404 329 l 272 181 l 272 179 q 322 188 303 186 q 843 194 531 200 q 911 165 883 193 q 938 96 939 136 q 909 28 938 56 q 840 0 881 0 q 333 -7 535 7 q 322 -8 328 -7 q 305 -12 317 -8 q 279 -18 293 -15 l 279 -18 m 401 1051 q 332 1076 363 1050 q 299 1142 301 1103 q 324 1213 297 1182 l 432 1332 q 499 1365 458 1363 q 568 1340 538 1367 q 601 1274 599 1314 q 576 1204 603 1235 l 468 1085 q 401 1051 442 1054 l 401 1051 z "},"Ž":{"ha":856,"x_min":24,"x_max":835,"o":"m 422 0 q 113 6 233 0 q 49 36 74 7 q 25 104 24 65 q 56 171 26 143 q 186 338 96 215 q 569 801 526 724 q 128 806 268 796 q 64 838 89 808 q 42 907 39 867 q 73 973 44 947 q 139 996 101 999 q 328 989 231 990 q 553 990 426 988 q 743 993 681 993 q 808 965 781 993 q 835 899 835 938 q 814 836 835 863 q 810 828 811 832 q 697 667 765 753 q 333 225 628 582 l 306 190 q 418 188 351 190 q 738 193 683 193 q 802 165 775 193 q 829 99 829 138 q 802 33 829 61 q 738 6 775 6 q 422 0 686 6 l 422 0 z "},"Ż":{"ha":996,"x_min":14,"x_max":1008,"o":"m 246 -33 q 210 -29 240 -32 q 156 -21 175 -26 q 26 101 40 4 q 93 263 14 188 q 131 296 113 281 q 157 321 150 311 l 275 465 l 401 613 l 525 753 l 542 769 q 567 797 551 779 l 596 826 q 488 824 489 824 q 133 824 314 821 q 65 853 93 825 q 38 922 38 882 q 67 990 39 963 q 136 1018 96 1018 q 358 1017 249 1015 l 515 1019 q 565 1019 535 1019 q 636 1022 606 1021 l 739 1025 l 774 1026 l 796 1026 l 804 1025 q 811 1024 808 1025 q 881 958 864 1007 q 874 871 894 917 q 849 826 865 850 q 782 744 825 793 q 717 673 757 715 q 672 625 676 631 l 576 514 l 428 344 l 310 201 q 269 160 296 185 q 276 158 274 158 q 367 163 307 153 q 497 182 481 181 q 911 194 668 194 q 980 166 951 194 q 1008 97 1008 138 q 980 28 1008 57 q 911 0 951 0 q 511 -12 675 0 q 397 -29 504 -12 q 246 -33 308 -43 l 246 -33 m 811 1024 q 803 1026 807 1025 q 811 1024 819 1024 l 811 1024 m 568 1176 q 538 1115 563 1139 q 469 1090 514 1092 q 387 1110 425 1088 q 341 1181 349 1133 q 353 1262 333 1229 q 411 1306 372 1294 q 543 1274 499 1331 q 568 1176 579 1228 l 568 1176 z "},"á":{"ha":797,"x_min":50,"x_max":722,"o":"m 346 -1 q 238 18 296 -1 q 117 100 165 46 q 58 221 69 156 q 50 304 50 264 q 86 479 50 397 q 226 665 136 594 q 432 736 317 736 q 522 725 474 736 q 585 696 554 717 l 592 696 l 606 697 q 667 672 640 697 q 699 611 694 647 l 708 515 q 715 307 711 454 l 718 232 q 722 141 721 163 q 719 100 722 119 q 690 31 714 60 q 626 1 665 3 q 569 17 594 0 q 532 81 543 35 q 454 24 500 42 q 346 -1 400 1 l 346 -1 m 347 194 q 433 221 389 194 q 458 242 444 228 l 479 261 l 503 294 q 522 308 511 304 q 515 506 522 425 l 501 515 l 482 531 l 469 539 q 435 544 447 544 q 338 506 385 544 q 264 397 292 467 q 242 300 242 343 q 259 238 242 263 q 308 201 276 213 q 347 194 329 194 l 347 194 z "},"ă":{"ha":797,"x_min":50,"x_max":722,"o":"m 346 -1 q 238 18 296 -1 q 117 100 165 46 q 58 221 69 156 q 50 304 50 264 q 86 479 50 397 q 226 665 136 594 q 432 736 317 736 q 522 725 474 736 q 585 696 554 717 l 592 696 l 606 697 q 667 672 640 697 q 699 611 694 647 l 708 515 q 715 307 711 454 l 718 232 q 722 141 721 163 q 719 100 722 119 q 690 31 714 60 q 626 1 665 3 q 569 17 594 0 q 532 81 543 35 q 454 24 500 42 q 346 -1 400 1 l 346 -1 m 347 194 q 433 221 389 194 q 458 242 444 228 l 479 261 l 503 294 q 522 308 511 304 q 515 506 522 425 l 501 515 l 482 531 l 469 539 q 435 544 447 544 q 338 506 385 544 q 264 397 292 467 q 242 300 242 343 q 259 238 242 263 q 308 201 276 213 q 347 194 329 194 l 347 194 z "},"â":{"ha":797,"x_min":50,"x_max":722,"o":"m 346 -1 q 238 18 296 -1 q 117 100 165 46 q 58 221 69 156 q 50 304 50 264 q 86 479 50 397 q 226 665 136 594 q 432 736 317 736 q 522 725 474 736 q 585 696 554 717 l 592 696 l 606 697 q 667 672 640 697 q 699 611 694 647 l 708 515 q 715 307 711 454 l 718 232 q 722 141 721 163 q 719 100 722 119 q 690 31 714 60 q 626 1 665 3 q 569 17 594 0 q 532 81 543 35 q 454 24 500 42 q 346 -1 400 1 l 346 -1 m 347 194 q 433 221 389 194 q 458 242 444 228 l 479 261 l 503 294 q 522 308 511 304 q 515 506 522 425 l 501 515 l 482 531 l 469 539 q 435 544 447 544 q 338 506 385 544 q 264 397 292 467 q 242 300 242 343 q 259 238 242 263 q 308 201 276 213 q 347 194 329 194 l 347 194 z "},"ä":{"ha":797,"x_min":50,"x_max":722,"o":"m 346 -1 q 238 18 296 -1 q 117 100 165 46 q 58 221 69 156 q 50 304 50 264 q 86 479 50 397 q 226 665 136 594 q 432 736 317 736 q 522 725 474 736 q 585 696 554 717 l 592 696 l 606 697 q 667 672 640 697 q 699 611 694 647 l 708 515 q 715 307 711 454 l 718 232 q 722 141 721 163 q 719 100 722 119 q 690 31 714 60 q 626 1 665 3 q 569 17 594 0 q 532 81 543 35 q 454 24 500 42 q 346 -1 400 1 l 346 -1 m 347 194 q 433 221 389 194 q 458 242 444 228 l 479 261 l 503 294 q 522 308 511 304 q 515 506 522 425 l 501 515 l 482 531 l 469 539 q 435 544 447 544 q 338 506 385 544 q 264 397 292 467 q 242 300 242 343 q 259 238 242 263 q 308 201 276 213 q 347 194 329 194 l 347 194 z "},"à":{"ha":797,"x_min":50,"x_max":722,"o":"m 346 -1 q 238 18 296 -1 q 117 100 165 46 q 58 221 69 156 q 50 304 50 264 q 86 479 50 397 q 226 665 136 594 q 432 736 317 736 q 522 725 474 736 q 585 696 554 717 l 592 696 l 606 697 q 667 672 640 697 q 699 611 694 647 l 708 515 q 715 307 711 454 l 718 232 q 722 141 721 163 q 719 100 722 119 q 690 31 714 60 q 626 1 665 3 q 569 17 594 0 q 532 81 543 35 q 454 24 500 42 q 346 -1 400 1 l 346 -1 m 347 194 q 433 221 389 194 q 458 242 444 228 l 479 261 l 503 294 q 522 308 511 304 q 515 506 522 425 l 501 515 l 482 531 l 469 539 q 435 544 447 544 q 338 506 385 544 q 264 397 292 467 q 242 300 242 343 q 259 238 242 263 q 308 201 276 213 q 347 194 329 194 l 347 194 z "},"ā":{"ha":797,"x_min":50,"x_max":722,"o":"m 346 -1 q 238 18 296 -1 q 117 100 165 46 q 58 221 69 156 q 50 304 50 264 q 86 479 50 397 q 226 665 136 594 q 432 736 317 736 q 522 725 474 736 q 585 696 554 717 l 592 696 l 606 697 q 667 672 640 697 q 699 611 694 647 l 708 515 q 715 307 711 454 l 718 232 q 722 141 721 163 q 719 100 722 119 q 690 31 714 60 q 626 1 665 3 q 569 17 594 0 q 532 81 543 35 q 454 24 500 42 q 346 -1 400 1 l 346 -1 m 347 194 q 433 221 389 194 q 458 242 444 228 l 479 261 l 503 294 q 522 308 511 304 q 515 506 522 425 l 501 515 l 482 531 l 469 539 q 435 544 447 544 q 338 506 385 544 q 264 397 292 467 q 242 300 242 343 q 259 238 242 263 q 308 201 276 213 q 347 194 329 194 l 347 194 z "},"ą":{"ha":801,"x_min":49,"x_max":733,"o":"m 574 -387 q 518 -372 535 -378 q 472 -351 501 -367 q 389 -261 417 -325 q 426 -54 346 -160 q 499 13 450 -24 q 546 46 524 31 q 543 56 544 50 q 247 10 399 -44 q 119 92 168 38 q 60 213 72 147 q 56 342 49 278 q 88 465 63 407 q 154 575 114 524 q 252 667 194 626 q 378 719 310 707 q 525 711 446 731 q 588 682 557 703 l 594 682 q 666 663 635 688 q 701 597 697 638 q 711 501 707 550 q 718 393 715 453 q 722 299 721 333 l 726 190 q 731 94 729 117 l 731 83 q 730 -5 733 35 q 696 -71 726 -44 q 662 -93 681 -83 q 630 -109 643 -103 q 599 -128 617 -115 q 578 -168 576 -143 q 635 -211 579 -197 q 698 -261 688 -224 q 691 -335 708 -299 q 642 -383 674 -371 q 574 -387 610 -396 l 574 -387 m 311 193 q 426 199 372 172 q 471 231 451 213 q 503 263 494 251 q 529 306 522 288 q 518 492 525 411 l 504 501 l 485 517 l 472 525 q 358 504 415 542 q 267 389 300 467 q 249 259 235 308 q 311 193 263 210 l 311 193 z "},"å":{"ha":797,"x_min":50,"x_max":722,"o":"m 346 -1 q 238 18 296 -1 q 117 100 165 46 q 58 221 69 156 q 50 304 50 264 q 86 479 50 397 q 226 665 136 594 q 432 736 317 736 q 522 725 474 736 q 585 696 554 717 l 592 696 l 606 697 q 667 672 640 697 q 699 611 694 647 l 708 515 q 715 307 711 454 l 718 232 q 722 141 721 163 q 719 100 722 119 q 690 31 714 60 q 626 1 665 3 q 569 17 594 0 q 532 81 543 35 q 454 24 500 42 q 346 -1 400 1 l 346 -1 m 347 194 q 433 221 389 194 q 458 242 444 228 l 479 261 l 503 294 q 522 308 511 304 q 515 506 522 425 l 501 515 l 482 531 l 469 539 q 435 544 447 544 q 338 506 385 544 q 264 397 292 467 q 242 300 242 343 q 259 238 242 263 q 308 201 276 213 q 347 194 329 194 l 347 194 z "},"ǻ":{"ha":800,"x_min":49,"x_max":732,"o":"m 638 -7 q 580 9 606 -8 q 543 56 554 26 q 247 10 399 -44 q 119 92 168 38 q 60 213 72 147 q 56 342 49 278 q 88 465 63 407 q 154 575 114 524 q 252 667 194 626 q 378 719 310 707 q 525 711 446 731 q 588 682 557 703 l 594 682 q 666 663 635 688 q 701 597 697 638 q 711 501 707 550 q 718 393 715 453 q 722 299 721 333 l 726 190 q 731 94 729 117 q 704 24 732 54 q 638 -7 676 -6 l 638 -7 m 311 193 q 436 218 372 171 q 456 233 447 225 l 478 258 l 510 292 q 529 306 518 300 q 518 492 525 411 l 504 501 l 485 517 l 472 525 q 358 504 415 542 q 267 389 300 467 q 249 259 235 308 q 311 193 263 210 l 311 193 m 429 717 q 349 728 382 719 q 282 763 317 738 q 224 858 238 794 q 230 983 210 921 q 296 1072 250 1046 q 350 1092 304 1078 q 413 1070 390 1093 q 430 1016 436 1047 q 389 965 424 985 q 351 925 357 954 q 367 872 346 896 q 424 850 388 849 q 473 875 463 853 q 467 922 483 897 q 424 956 451 947 q 399 962 411 960 q 374 965 386 964 q 328 1013 336 982 q 340 1069 319 1044 q 400 1094 360 1093 q 512 1060 464 1085 q 585 983 560 1035 q 605 860 614 924 q 549 756 596 796 q 429 717 503 715 l 429 717 m 424 1026 q 354 1051 385 1025 q 322 1117 324 1078 q 346 1188 319 1157 l 454 1307 q 521 1340 481 1338 q 590 1315 560 1342 q 623 1249 621 1289 q 599 1179 625 1210 l 490 1060 q 424 1026 464 1029 l 424 1026 z "},"ã":{"ha":797,"x_min":50,"x_max":722,"o":"m 346 -1 q 238 18 296 -1 q 117 100 165 46 q 58 221 69 156 q 50 304 50 264 q 86 479 50 397 q 226 665 136 594 q 432 736 317 736 q 522 725 474 736 q 585 696 554 717 l 592 696 l 606 697 q 667 672 640 697 q 699 611 694 647 l 708 515 q 715 307 711 454 l 718 232 q 722 141 721 163 q 719 100 722 119 q 690 31 714 60 q 626 1 665 3 q 569 17 594 0 q 532 81 543 35 q 454 24 500 42 q 346 -1 400 1 l 346 -1 m 347 194 q 433 221 389 194 q 458 242 444 228 l 479 261 l 503 294 q 522 308 511 304 q 515 506 522 425 l 501 515 l 482 531 l 469 539 q 435 544 447 544 q 338 506 385 544 q 264 397 292 467 q 242 300 242 343 q 259 238 242 263 q 308 201 276 213 q 347 194 329 194 l 347 194 z "},"æ":{"ha":1243,"x_min":31,"x_max":1206,"o":"m 853 -15 q 597 104 696 -4 q 510 53 546 71 q 314 -12 421 -4 q 178 10 229 -11 q 86 76 128 31 q 39 188 44 125 q 76 318 33 251 q 361 456 156 432 q 499 465 421 464 q 510 496 503 479 l 506 504 l 493 524 l 483 535 q 405 572 454 558 q 296 575 356 585 q 238 549 265 568 l 214 528 q 175 494 192 506 q 108 474 144 474 q 51 498 71 475 q 34 553 31 521 q 65 618 38 586 q 113 663 83 638 l 143 686 q 235 726 197 717 q 350 738 274 735 q 490 723 426 740 q 604 669 554 706 l 621 654 q 903 726 738 763 q 914 723 904 725 q 929 721 924 721 q 947 718 935 721 q 967 713 958 715 l 986 704 q 1007 696 997 700 q 1028 685 1017 692 q 1047 672 1039 678 q 1164 547 1132 610 q 1178 515 1171 532 q 1190 485 1186 497 l 1200 451 l 1204 424 q 1206 379 1204 401 q 1179 330 1201 350 q 1128 307 1157 310 q 906 292 1036 292 q 688 299 776 292 q 726 203 692 238 q 864 153 768 161 q 899 154 882 151 q 928 160 915 157 q 953 170 940 164 q 989 190 967 176 l 1029 215 q 1101 226 1065 232 q 1156 189 1138 219 q 1164 123 1174 158 q 1119 64 1154 88 q 1076 40 1097 51 q 1031 17 1056 28 q 980 -1 1006 7 q 921 -13 954 -10 q 853 -15 888 -17 l 853 -15 m 311 156 q 417 185 353 156 q 501 254 475 215 q 492 299 496 281 q 364 285 433 296 q 243 239 269 271 q 240 178 219 204 q 311 156 261 151 l 311 156 m 1000 461 q 981 499 997 478 q 939 542 967 524 q 860 568 908 563 q 761 549 803 574 q 696 464 719 524 q 772 460 719 463 q 867 458 825 458 q 938 458 908 457 q 1000 461 968 460 l 1000 461 z "},"ǽ":{"ha":1243,"x_min":31,"x_max":1206,"o":"m 853 -15 q 597 104 696 -4 q 510 53 546 71 q 314 -12 421 -4 q 178 10 229 -11 q 86 76 128 31 q 39 188 44 125 q 76 318 33 251 q 361 456 156 432 q 499 465 421 464 q 510 496 503 479 l 506 504 l 493 524 l 483 535 q 405 572 454 558 q 296 575 356 585 q 238 549 265 568 l 214 528 q 175 494 192 506 q 108 474 144 474 q 51 498 71 475 q 34 553 31 521 q 65 618 38 586 q 113 663 83 638 l 143 686 q 235 726 197 717 q 350 738 274 735 q 490 723 426 740 q 604 669 554 706 l 621 654 q 903 726 738 763 q 914 723 904 725 q 929 721 924 721 q 947 718 935 721 q 967 713 958 715 l 986 704 q 1007 696 997 700 q 1028 685 1017 692 q 1047 672 1039 678 q 1164 547 1132 610 q 1178 515 1171 532 q 1190 485 1186 497 l 1200 451 l 1204 424 q 1206 379 1204 401 q 1179 330 1201 350 q 1128 307 1157 310 q 906 292 1036 292 q 688 299 776 292 q 726 203 692 238 q 864 153 768 161 q 899 154 882 151 q 928 160 915 157 q 953 170 940 164 q 989 190 967 176 l 1029 215 q 1101 226 1065 232 q 1156 189 1138 219 q 1164 123 1174 158 q 1119 64 1154 88 q 1076 40 1097 51 q 1031 17 1056 28 q 980 -1 1006 7 q 921 -13 954 -10 q 853 -15 888 -17 l 853 -15 m 311 156 q 417 185 353 156 q 501 254 475 215 q 492 299 496 281 q 364 285 433 296 q 243 239 269 271 q 240 178 219 204 q 311 156 261 151 l 311 156 m 1000 461 q 981 499 997 478 q 939 542 967 524 q 860 568 908 563 q 761 549 803 574 q 696 464 719 524 q 772 460 719 463 q 867 458 825 458 q 938 458 908 457 q 1000 461 968 460 l 1000 461 z "},"ć":{"ha":778,"x_min":47,"x_max":743,"o":"m 303 7 q 151 108 211 36 q 69 263 90 181 q 54 429 47 344 q 90 570 61 503 q 178 691 119 638 q 318 763 238 744 q 394 769 350 775 l 401 769 q 607 706 518 765 q 683 622 649 678 l 704 589 q 719 565 713 574 q 738 494 743 533 q 700 430 732 454 q 628 411 668 406 q 564 449 589 417 q 539 488 553 464 l 519 518 q 499 544 506 539 q 396 575 456 574 q 294 533 333 576 q 247 413 254 490 q 273 270 240 332 q 361 190 306 208 q 469 186 429 169 q 482 201 474 190 q 491 219 482 203 q 510 251 500 235 q 531 278 521 267 q 595 313 556 308 q 666 292 635 318 q 702 227 697 267 q 681 156 707 188 q 672 143 676 150 l 661 125 l 646 97 q 549 8 604 32 q 303 7 440 -37 l 303 7 m 411 807 q 342 832 372 806 q 309 898 311 858 q 333 968 307 938 l 442 1088 q 508 1121 468 1118 q 578 1096 547 1122 q 610 1030 608 1069 q 586 960 613 990 l 478 840 q 411 807 451 810 l 411 807 z "},"č":{"ha":778,"x_min":47,"x_max":743,"o":"m 303 7 q 151 108 211 36 q 69 263 90 181 q 54 429 47 344 q 83 552 60 493 q 149 662 107 611 q 256 742 190 713 q 401 769 321 771 q 607 706 518 765 q 683 622 649 678 l 704 589 q 719 565 713 574 q 738 494 743 533 q 700 430 732 454 q 628 411 668 406 q 564 449 589 417 q 539 488 553 464 l 519 518 q 499 544 506 539 q 396 575 456 574 q 294 533 333 576 q 247 413 254 490 q 273 270 240 332 q 361 190 306 208 q 469 186 429 169 q 482 201 474 190 q 491 219 482 203 q 510 251 500 235 q 531 278 521 267 q 595 313 556 308 q 666 292 635 318 q 702 227 697 267 q 681 156 707 188 q 672 143 676 150 l 661 125 l 646 97 q 549 8 604 32 q 303 7 440 -37 l 303 7 m 378 818 q 364 821 371 819 q 335 833 349 825 l 201 925 q 165 980 172 946 q 177 1044 157 1014 q 232 1081 197 1074 q 297 1067 267 1088 l 388 1003 l 475 1068 q 538 1081 504 1088 q 594 1046 572 1075 q 608 983 615 1017 q 572 928 603 947 l 442 831 q 378 818 413 811 l 378 818 z "},"ç":{"ha":760,"x_min":49,"x_max":728,"o":"m 406 -335 q 295 -306 340 -335 q 250 -231 250 -278 q 267 -186 250 -203 q 306 -169 283 -169 q 360 -196 336 -169 q 383 -214 371 -208 q 414 -219 394 -219 q 444 -208 432 -219 q 456 -183 456 -197 q 448 -162 456 -171 q 428 -150 440 -153 q 397 -145 415 -146 q 360 -143 378 -144 q 316 -127 332 -140 q 300 -90 300 -114 q 340 -18 300 -57 q 428 54 379 21 q 511 11 479 51 q 422 -81 422 -37 l 389 -58 q 426 -53 401 -53 q 538 -91 493 -53 q 583 -186 583 -129 q 558 -262 583 -228 q 490 -315 532 -296 q 406 -335 449 -335 l 406 -335 m 519 6 q 394 -11 456 -17 q 276 17 333 -6 q 125 135 188 53 q 54 315 63 217 q 81 483 49 397 q 174 629 114 568 q 270 701 217 674 q 392 735 324 728 q 529 711 460 742 q 608 661 567 696 q 626 644 611 658 l 651 624 q 688 560 683 599 q 668 491 693 522 q 603 455 643 460 q 532 475 564 450 q 479 519 529 476 q 454 538 463 533 q 315 500 379 568 q 263 418 282 465 q 249 329 244 371 q 279 249 251 290 q 353 190 307 208 q 435 177 401 172 q 490 203 469 182 q 507 232 497 210 q 538 299 536 296 q 594 345 556 333 q 668 340 632 357 q 716 285 704 322 q 710 213 728 247 q 701 195 706 204 q 693 175 697 186 q 685 157 689 164 q 632 74 663 104 q 519 6 585 25 l 519 6 l 519 6 z "},"ĉ":{"ha":760,"x_min":49,"x_max":728,"o":"m 519 6 q 394 -11 456 -17 q 276 17 333 -6 q 125 135 188 53 q 54 315 63 217 q 81 483 49 397 q 174 629 114 568 q 270 701 217 674 q 392 735 324 728 q 529 711 460 742 q 608 661 567 696 q 626 644 611 658 l 651 624 q 688 560 683 599 q 668 491 693 522 q 603 455 643 460 q 532 475 564 450 q 479 519 529 476 q 454 538 463 533 q 315 500 379 568 q 263 418 282 465 q 249 329 244 371 q 279 249 251 290 q 353 190 307 208 q 435 177 401 172 q 490 203 469 182 q 507 232 497 210 q 538 299 536 296 q 594 345 556 333 q 668 340 632 357 q 716 285 704 322 q 710 213 728 247 q 701 195 706 204 q 693 175 697 186 q 685 157 689 164 q 632 74 663 104 q 519 6 585 25 l 519 6 z "},"ċ":{"ha":760,"x_min":49,"x_max":728,"o":"m 519 6 q 394 -11 456 -17 q 276 17 333 -6 q 125 135 188 53 q 54 315 63 217 q 81 483 49 397 q 174 629 114 568 q 270 701 217 674 q 392 735 324 728 q 529 711 460 742 q 608 661 567 696 q 626 644 611 658 l 651 624 q 688 560 683 599 q 668 491 693 522 q 603 455 643 460 q 532 475 564 450 q 479 519 529 476 q 454 538 463 533 q 315 500 379 568 q 263 418 282 465 q 249 329 244 371 q 279 249 251 290 q 353 190 307 208 q 435 177 401 172 q 490 203 469 182 q 507 232 497 210 q 538 299 536 296 q 594 345 556 333 q 668 340 632 357 q 716 285 704 322 q 710 213 728 247 q 701 195 706 204 q 693 175 697 186 q 685 157 689 164 q 632 74 663 104 q 519 6 585 25 l 519 6 z "},"ď":{"ha":978,"x_min":53,"x_max":1007,"o":"m 372 -14 q 219 28 293 -14 q 99 149 146 69 q 53 335 53 228 q 97 538 53 444 q 222 685 142 631 q 400 740 301 740 q 536 715 471 740 q 533 899 535 878 q 563 970 533 944 q 631 996 592 996 q 697 971 668 996 q 728 901 726 946 q 735 94 735 219 q 712 17 735 44 q 647 -10 689 -10 q 585 13 610 -10 q 557 83 561 36 q 483 13 526 39 q 372 -14 439 -14 l 372 -14 m 407 171 q 481 200 451 171 q 525 281 506 225 q 542 313 535 306 q 539 488 539 432 q 523 502 536 490 q 489 529 510 514 q 399 553 453 553 q 287 493 328 553 q 246 350 246 433 q 290 222 246 272 q 407 171 335 171 l 407 171 m 976 710 q 934 667 967 679 q 868 664 901 654 q 821 702 835 674 q 818 761 807 731 q 835 844 833 810 q 824 932 838 881 q 823 992 810 964 q 869 1031 836 1019 q 935 1030 903 1042 q 982 986 968 1018 q 1005 887 1003 931 q 1001 808 1007 843 q 976 710 996 772 l 976 710 z "},"đ":{"ha":843,"x_min":53,"x_max":868,"o":"m 367 -14 q 217 28 290 -14 q 99 149 144 69 q 53 335 53 228 q 97 537 53 444 q 222 684 142 629 q 400 739 301 739 q 472 728 440 739 q 536 700 504 718 l 533 951 q 563 1023 533 997 q 631 1049 592 1049 q 698 1024 669 1049 q 728 954 726 999 q 735 140 735 626 l 735 94 q 712 17 735 44 q 647 -10 689 -10 q 586 15 611 -10 q 557 83 561 39 q 481 13 528 40 q 367 -14 433 -14 l 367 -14 m 401 171 q 446 178 429 171 q 481 200 463 185 q 500 223 493 210 q 518 263 507 236 q 538 306 536 303 l 542 313 q 539 488 539 432 q 522 502 535 490 q 489 529 510 514 q 399 553 453 553 q 287 493 328 553 q 246 350 246 433 q 288 217 246 263 q 401 171 331 171 l 401 171 m 451 783 q 390 806 414 782 q 365 861 367 829 q 385 916 364 893 q 442 940 407 939 l 788 950 q 847 928 825 951 q 868 869 868 904 q 846 817 868 839 q 788 793 824 794 l 451 783 l 451 783 z "},"é":{"ha":824,"x_min":56,"x_max":796,"o":"m 567 -15 q 393 -17 468 -28 q 260 30 318 -7 q 159 129 203 67 q 88 308 115 192 q 56 368 57 322 q 90 436 60 429 q 446 750 153 744 q 781 449 713 749 q 771 346 796 386 q 663 290 739 296 q 553 284 625 286 q 278 296 482 282 q 443 142 292 163 q 564 169 529 136 q 652 227 615 225 q 713 212 689 229 q 748 170 738 194 q 750 121 758 146 q 717 65 744 99 q 659 18 689 38 q 567 -15 629 -1 l 567 -15 m 276 436 q 381 433 326 435 q 512 433 435 432 q 610 443 589 433 q 591 501 608 465 q 514 568 574 536 q 363 563 446 601 q 276 436 285 524 l 276 436 m 397 792 q 328 816 358 789 q 294 883 297 843 q 319 953 292 922 l 428 1072 q 494 1106 456 1103 q 564 1081 533 1107 q 597 1015 594 1054 q 572 944 600 975 l 464 825 q 397 792 436 794 l 397 792 z "},"ĕ":{"ha":799,"x_min":56,"x_max":757,"o":"m 421 -12 q 226 35 310 -12 q 99 161 143 82 q 56 336 56 240 q 100 545 56 457 q 228 685 144 633 q 417 736 311 736 q 602 692 525 736 q 718 572 679 647 q 757 403 757 496 q 726 329 757 356 q 644 299 696 303 q 460 289 540 289 q 296 293 383 289 l 247 294 q 301 188 256 226 q 438 153 346 150 q 504 163 479 154 q 549 190 529 172 q 572 214 560 201 q 600 233 585 226 q 638 240 615 240 q 698 216 674 240 q 722 160 722 192 q 678 75 722 115 q 563 11 633 35 q 421 -12 493 -12 l 421 -12 m 250 436 q 432 428 332 425 q 572 440 528 429 q 537 536 569 500 q 419 571 504 572 q 304 539 349 569 q 250 436 260 508 l 250 436 z "},"ě":{"ha":817,"x_min":49,"x_max":789,"o":"m 560 -15 q 386 -17 461 -28 q 253 30 311 -7 q 152 129 196 67 q 81 308 108 192 q 49 368 50 322 q 83 436 53 429 q 439 750 146 744 q 774 449 706 749 q 764 346 789 386 q 656 290 732 296 q 547 284 618 286 q 271 296 475 282 q 436 142 285 163 q 557 169 522 136 q 645 227 608 225 q 706 212 682 229 q 741 170 731 194 q 743 121 751 146 q 710 65 738 99 q 652 18 682 38 q 560 -15 622 -1 l 560 -15 m 269 436 q 374 433 319 435 q 505 433 428 432 q 603 443 582 433 q 584 501 601 465 q 507 568 567 536 q 356 563 439 601 q 269 436 278 524 l 269 436 m 417 806 q 403 808 410 807 q 374 821 388 811 l 240 913 q 203 967 211 933 q 216 1031 196 1001 q 271 1068 236 1061 q 336 1054 306 1075 l 426 990 l 514 1056 q 576 1069 542 1076 q 632 1033 611 1063 q 647 971 653 1004 q 611 915 642 935 l 481 818 q 417 806 453 797 l 417 806 z "},"ê":{"ha":817,"x_min":49,"x_max":789,"o":"m 560 -15 q 386 -17 461 -28 q 253 30 311 -7 q 152 129 196 67 q 81 308 108 192 q 49 368 50 322 q 83 436 53 429 q 439 750 146 744 q 774 449 706 749 q 764 346 789 386 q 656 290 732 296 q 547 284 618 286 q 271 296 475 282 q 436 142 285 163 q 557 169 522 136 q 645 227 608 225 q 706 212 682 229 q 741 170 731 194 q 743 121 751 146 q 710 65 738 99 q 652 18 682 38 q 560 -15 622 -1 l 560 -15 m 269 436 q 374 433 319 435 q 505 433 428 432 q 603 443 582 433 q 584 501 601 465 q 507 568 567 536 q 356 563 439 601 q 269 436 278 524 l 269 436 m 278 804 q 223 841 243 811 q 210 905 203 871 q 247 960 218 939 l 381 1051 q 410 1064 394 1060 q 424 1067 417 1065 q 488 1054 458 1074 l 618 957 q 654 901 649 938 q 640 839 661 868 q 584 803 618 810 q 521 817 550 797 l 433 882 l 343 818 q 278 804 313 797 l 278 804 z "},"ë":{"ha":799,"x_min":56,"x_max":757,"o":"m 421 -12 q 226 35 310 -12 q 99 161 143 82 q 56 336 56 240 q 100 545 56 457 q 228 685 144 633 q 417 736 311 736 q 602 692 525 736 q 718 572 679 647 q 757 403 757 496 q 726 329 757 356 q 644 299 696 303 q 460 289 540 289 q 296 293 383 289 l 247 294 q 301 188 256 226 q 438 153 346 150 q 504 163 479 154 q 549 190 529 172 q 572 214 560 201 q 600 233 585 226 q 638 240 615 240 q 698 216 674 240 q 722 160 722 192 q 678 75 722 115 q 563 11 633 35 q 421 -12 493 -12 l 421 -12 m 250 436 q 432 428 332 425 q 572 440 528 429 q 537 536 569 500 q 419 571 504 572 q 304 539 349 569 q 250 436 260 508 l 250 436 z "},"ė":{"ha":818,"x_min":50,"x_max":790,"o":"m 561 -15 q 388 -17 463 -28 q 255 30 313 -7 q 153 129 197 67 q 82 308 110 192 q 50 368 51 322 q 85 436 54 429 q 440 750 147 744 q 775 449 707 749 q 765 346 790 386 q 657 290 733 296 q 548 284 619 286 q 272 296 476 282 q 438 142 286 163 q 558 169 524 136 q 647 227 610 225 q 708 212 683 229 q 742 170 732 194 q 744 121 753 146 q 711 65 739 99 q 653 18 683 38 q 561 -15 624 -1 l 561 -15 m 271 436 q 375 433 321 435 q 506 433 429 432 q 604 443 583 433 q 585 501 603 465 q 508 568 568 536 q 357 563 440 601 q 271 436 279 524 l 271 436 m 526 901 q 495 838 521 863 q 423 810 469 813 q 336 833 376 808 q 288 907 296 857 q 301 991 281 957 q 361 1036 321 1025 q 500 1003 454 1063 q 526 901 538 956 l 526 901 z "},"è":{"ha":817,"x_min":49,"x_max":789,"o":"m 560 -15 q 386 -17 461 -28 q 253 30 311 -7 q 152 129 196 67 q 81 308 108 192 q 49 368 50 322 q 83 436 53 429 q 439 750 146 744 q 774 449 706 749 q 764 346 789 386 q 656 290 732 296 q 547 284 618 286 q 271 296 475 282 q 436 142 285 163 q 557 169 522 136 q 645 227 608 225 q 706 212 682 229 q 741 170 731 194 q 743 121 751 146 q 710 65 738 99 q 652 18 682 38 q 560 -15 622 -1 l 560 -15 m 269 436 q 374 433 319 435 q 505 433 428 432 q 603 443 582 433 q 584 501 601 465 q 507 568 567 536 q 356 563 439 601 q 269 436 278 524 l 269 436 m 460 789 q 393 822 419 792 l 285 942 q 260 1012 258 972 q 293 1078 263 1051 q 363 1103 324 1104 q 429 1069 403 1100 l 538 950 q 562 880 564 919 q 529 814 560 840 q 460 789 499 788 l 460 789 z "},"ē":{"ha":817,"x_min":49,"x_max":789,"o":"m 560 -15 q 386 -17 461 -28 q 253 30 311 -7 q 152 129 196 67 q 81 308 108 192 q 49 368 50 322 q 83 436 53 429 q 439 750 146 744 q 774 449 706 749 q 764 346 789 386 q 656 290 732 296 q 547 284 618 286 q 271 296 475 282 q 436 142 285 163 q 557 169 522 136 q 645 227 608 225 q 706 212 682 229 q 741 170 731 194 q 743 121 751 146 q 710 65 738 99 q 652 18 682 38 q 560 -15 622 -1 l 560 -15 m 269 436 q 374 433 319 435 q 505 433 428 432 q 603 443 582 433 q 584 501 601 465 q 507 568 567 536 q 356 563 439 601 q 269 436 278 524 l 269 436 m 321 842 q 258 846 294 842 q 190 870 219 844 q 160 934 161 896 q 186 999 158 972 q 253 1028 214 1026 q 428 1024 328 1024 q 615 1029 529 1025 q 683 1005 654 1029 q 712 942 711 981 q 685 876 713 904 q 618 847 657 849 q 444 842 531 840 l 321 842 l 321 842 z "},"ę":{"ha":799,"x_min":56,"x_max":757,"o":"m 474 -265 q 395 -249 433 -265 q 333 -206 357 -233 q 292 -97 292 -158 q 340 35 289 -25 q 412 91 369 68 q 494 118 454 114 q 592 89 568 128 q 597 40 607 64 q 561 4 586 15 q 542 -2 551 0 q 522 -7 532 -4 q 463 -29 486 -15 q 425 -96 421 -54 q 442 -128 426 -115 q 482 -140 458 -140 q 510 -135 499 -140 q 538 -118 522 -129 q 562 -102 550 -107 q 589 -97 574 -97 q 632 -117 617 -97 q 647 -161 647 -137 q 599 -233 647 -203 q 541 -256 569 -247 q 474 -265 513 -265 l 474 -265 m 421 -12 q 226 35 310 -12 q 99 161 143 82 q 56 336 56 240 q 100 545 56 457 q 228 685 144 633 q 417 736 311 736 q 602 692 525 736 q 718 572 679 647 q 757 403 757 496 q 726 329 757 356 q 644 299 696 303 q 460 289 540 289 q 296 293 383 289 l 247 294 q 301 188 256 226 q 438 153 346 150 q 504 163 479 154 q 549 190 529 172 q 572 214 560 201 q 600 233 585 226 q 638 240 615 240 q 698 216 674 240 q 722 160 722 192 q 678 75 722 115 q 563 11 633 35 q 421 -12 493 -12 l 421 -12 l 421 -12 m 250 436 q 432 428 332 425 q 572 440 528 429 q 537 536 569 500 q 419 571 504 572 q 304 539 349 569 q 250 436 260 508 l 250 436 l 250 436 z "},"ð":{"ha":868,"x_min":71,"x_max":799,"o":"m 428 -14 q 240 34 321 -14 q 115 164 158 82 q 71 346 71 246 q 179 636 71 528 q 388 729 269 729 q 441 726 411 729 q 485 717 471 722 q 408 817 449 774 q 306 921 368 861 q 227 1000 251 971 q 203 1057 203 1029 q 231 1128 203 1100 q 301 1156 260 1156 q 340 1147 322 1156 q 389 1113 358 1139 q 513 990 460 1050 q 636 835 565 931 q 760 628 721 732 q 799 424 799 524 q 750 197 799 297 q 617 42 701 97 q 428 -14 532 -14 l 428 -14 m 440 169 q 560 235 517 169 q 604 390 604 301 q 588 511 604 463 q 576 510 581 511 q 567 510 571 510 q 549 514 558 510 l 494 539 q 451 553 469 550 q 407 556 432 556 q 372 549 390 556 q 339 532 354 543 q 284 460 303 507 q 265 351 265 414 q 314 218 265 267 q 440 169 363 169 l 440 169 m 233 764 q 173 786 196 764 q 149 843 150 808 q 192 922 149 892 q 381 1053 315 1011 q 517 1129 446 1096 q 563 1139 540 1139 q 623 1116 601 1139 q 646 1057 644 1093 q 593 974 646 1008 l 454 889 l 290 785 q 233 764 260 764 l 233 764 z "},"ğ":{"ha":788,"x_min":50,"x_max":715,"o":"m 374 -286 q 255 -263 307 -286 q 150 -193 203 -240 q 106 -143 119 -167 q 93 -94 93 -119 q 119 -28 93 -54 q 185 -1 146 -1 q 257 -37 231 -1 q 318 -95 288 -78 q 383 -112 349 -112 q 489 -57 450 -112 q 540 83 528 -1 q 460 18 513 39 q 349 -3 408 -3 q 200 41 268 -3 q 91 165 132 85 q 50 347 50 244 q 92 549 50 461 q 210 687 133 638 q 385 736 286 736 q 539 692 457 736 q 570 723 547 711 q 626 735 593 735 q 687 709 664 735 q 711 638 710 683 q 711 94 715 376 q 674 -65 708 11 q 581 -203 640 -140 q 489 -265 539 -244 q 374 -286 439 -286 l 374 -286 m 371 178 q 479 229 428 178 q 506 265 494 244 q 525 303 518 286 q 524 510 525 478 q 461 545 492 535 q 385 556 431 556 q 270 500 307 556 q 233 347 233 444 q 271 224 233 271 q 371 178 308 178 l 371 178 z "},"ǧ":{"ha":788,"x_min":50,"x_max":715,"o":"m 374 -286 q 265 -272 313 -286 q 160 -233 217 -258 q 81 -144 93 -196 q 90 -75 71 -107 q 147 -33 110 -43 q 226 -50 192 -21 q 306 -97 265 -82 q 383 -112 347 -112 q 489 -57 450 -112 q 540 83 528 -1 q 460 20 513 40 q 349 0 408 0 q 202 46 271 0 q 92 172 133 92 q 50 347 50 251 q 92 549 50 461 q 210 687 133 638 q 385 736 286 736 q 539 692 457 736 q 570 723 547 711 q 626 735 593 735 q 687 709 664 735 q 711 638 710 683 q 711 94 715 388 q 677 -64 710 10 q 590 -194 644 -137 q 492 -264 544 -242 q 374 -286 440 -286 l 374 -286 m 371 178 q 483 225 436 178 q 506 262 496 238 q 525 303 517 286 q 524 510 525 478 q 499 515 513 513 q 471 526 486 518 q 422 550 433 547 q 385 556 407 556 q 271 500 310 556 q 242 438 251 474 q 233 347 233 401 q 271 224 233 271 q 371 178 308 178 l 371 178 m 396 810 q 336 833 369 810 l 210 919 q 181 951 190 932 q 171 992 171 971 q 194 1051 171 1025 q 257 1078 218 1076 q 306 1061 286 1075 l 396 997 l 474 1056 q 501 1073 489 1068 q 529 1078 513 1078 q 590 1053 564 1078 q 617 994 617 1029 q 581 922 617 950 l 463 835 q 396 810 431 810 l 396 810 z "},"ĝ":{"ha":788,"x_min":50,"x_max":715,"o":"m 374 -286 q 255 -263 307 -286 q 150 -193 203 -240 q 106 -143 119 -167 q 93 -94 93 -119 q 119 -28 93 -54 q 185 -1 146 -1 q 257 -37 231 -1 q 318 -95 288 -78 q 383 -112 349 -112 q 489 -57 450 -112 q 540 83 528 -1 q 460 18 513 39 q 349 -3 408 -3 q 200 41 268 -3 q 91 165 132 85 q 50 347 50 244 q 92 549 50 461 q 210 687 133 638 q 385 736 286 736 q 539 692 457 736 q 570 723 547 711 q 626 735 593 735 q 687 709 664 735 q 711 638 710 683 q 711 94 715 376 q 674 -65 708 11 q 581 -203 640 -140 q 489 -265 539 -244 q 374 -286 439 -286 l 374 -286 m 371 178 q 479 229 428 178 q 506 265 494 244 q 525 303 518 286 q 524 510 525 478 q 461 545 492 535 q 385 556 431 556 q 270 500 307 556 q 233 347 233 444 q 271 224 233 271 q 371 178 308 178 l 371 178 z "},"ģ":{"ha":788,"x_min":50,"x_max":715,"o":"m 374 -286 q 272 -272 314 -286 q 160 -228 229 -258 q 105 -189 124 -208 q 81 -144 86 -169 q 90 -75 71 -107 q 147 -33 110 -43 q 226 -50 192 -21 q 306 -97 265 -82 q 383 -112 347 -112 q 489 -57 450 -112 q 540 83 528 -1 q 460 20 513 40 q 349 0 408 0 q 202 44 271 0 q 92 167 133 88 q 50 347 50 246 q 92 549 50 461 q 210 687 133 638 q 385 736 286 736 q 539 692 457 736 q 570 723 547 711 q 626 735 593 735 q 687 709 664 735 q 711 638 710 683 q 711 94 715 388 q 675 -65 710 11 q 581 -203 640 -140 q 489 -265 539 -244 q 374 -286 439 -286 l 374 -286 m 371 178 q 483 225 436 178 q 506 262 496 238 q 525 303 517 286 q 524 510 525 478 q 499 515 513 513 q 471 526 486 518 q 422 550 433 547 q 385 556 407 556 q 271 500 310 556 q 242 438 251 474 q 233 347 233 401 q 271 224 233 271 q 371 178 308 178 l 371 178 m 401 797 q 310 833 344 797 q 275 925 275 869 q 358 1117 275 1019 q 400 1154 381 1143 q 442 1165 419 1165 q 488 1148 469 1165 q 507 1103 507 1131 q 499 1070 507 1083 q 478 1042 492 1057 q 442 986 453 1014 q 496 953 476 975 q 515 900 515 932 q 484 826 515 856 q 401 797 453 797 l 401 797 z "},"ġ":{"ha":788,"x_min":46,"x_max":757,"o":"m 385 -287 q 227 -258 306 -287 q 97 -175 149 -228 q 46 -57 46 -122 q 78 9 46 -19 q 149 38 110 38 q 225 -4 196 38 q 240 -29 226 -7 q 271 -69 256 -57 q 321 -97 290 -87 q 407 -107 351 -107 q 485 -88 450 -107 q 539 -39 521 -69 q 558 17 551 -18 q 568 103 564 51 q 466 33 510 54 q 371 11 422 11 q 203 61 276 11 q 90 197 131 111 q 50 386 50 283 q 94 567 50 486 q 220 695 139 649 q 407 742 301 742 q 492 728 449 742 q 572 692 535 715 q 654 750 610 750 q 722 725 693 750 q 753 663 751 700 q 756 521 756 592 q 756 392 756 450 q 755 314 756 353 q 756 236 754 275 q 740 26 757 119 q 688 -121 722 -67 q 556 -242 639 -197 q 385 -287 474 -287 l 385 -287 m 371 190 q 434 206 404 190 q 488 247 464 221 q 542 294 508 271 l 568 315 q 569 475 569 339 q 513 529 521 519 q 472 553 496 546 q 400 561 447 561 q 284 518 322 561 q 246 385 246 475 q 280 240 246 290 q 371 190 314 190 l 371 190 m 542 915 q 510 851 536 876 q 438 824 485 826 q 351 847 392 822 q 303 921 311 871 q 316 1005 296 971 q 376 1050 336 1039 q 515 1017 469 1076 q 542 915 553 969 l 542 915 z "},"ħ":{"ha":788,"x_min":-15,"x_max":718,"o":"m 68 763 q 10 783 33 761 q -14 836 -14 804 q 6 891 -15 868 q 63 915 28 914 l 426 928 q 483 909 461 929 q 504 854 504 889 q 485 798 506 819 q 431 775 465 776 l 68 763 l 68 763 m 214 -6 q 146 19 175 -6 q 117 90 117 44 q 111 486 117 219 q 106 915 106 753 q 135 986 106 961 q 203 1011 164 1011 q 271 986 242 1011 q 300 915 300 961 q 301 681 300 751 q 360 717 329 701 q 461 739 404 739 q 608 697 542 739 q 697 588 674 656 q 717 458 714 538 q 718 371 718 435 l 718 317 l 710 85 q 682 21 708 43 q 619 -1 656 -1 q 553 24 581 -1 q 526 93 525 49 l 535 319 l 536 394 l 535 451 q 528 511 532 500 q 456 553 514 553 q 372 535 413 553 q 306 488 329 514 q 311 90 311 219 q 282 19 311 44 q 214 -6 253 -6 l 214 -6 l 214 -6 z "},"ĥ":{"ha":758,"x_min":-46,"x_max":689,"o":"m 185 -6 q 117 19 146 -6 q 88 90 88 44 q 82 486 88 219 q 76 915 76 753 q 106 986 76 961 q 174 1011 135 1011 q 242 986 213 1011 q 271 915 271 961 q 272 681 271 751 q 331 717 300 701 q 432 739 375 739 q 578 697 513 739 q 668 588 644 656 q 688 458 685 538 q 689 371 689 435 l 689 317 l 681 85 q 653 21 679 43 q 590 -1 626 -1 q 524 24 551 -1 q 497 93 496 49 l 506 319 l 507 394 l 506 451 q 499 511 503 500 q 426 553 485 553 q 343 535 383 553 q 276 488 300 514 q 282 90 282 219 q 253 19 282 44 q 185 -6 224 -6 l 185 -6 z "},"í":{"ha":343,"x_min":58,"x_max":364,"o":"m 274 85 q 244 17 272 44 q 175 -10 215 -11 q 107 19 135 -10 q 79 88 79 47 q 69 622 83 447 q 94 692 68 663 q 161 724 121 722 q 231 700 201 726 q 264 633 261 674 q 274 85 276 453 l 274 85 z "},"ĭ":{"ha":343,"x_min":-47,"x_max":368,"o":"m 161 813 q 66 839 115 811 q -15 912 17 867 q -47 1007 -47 957 q -24 1069 -47 1046 q 26 1093 0 1093 q 82 1063 65 1093 q 94 1037 88 1054 q 104 1013 100 1019 q 169 978 129 978 q 201 989 185 978 q 226 1019 217 1000 q 255 1069 240 1053 q 299 1086 269 1086 q 349 1063 331 1086 q 368 1004 368 1040 q 337 910 368 954 q 256 840 306 867 q 161 813 207 814 l 161 813 m 274 85 q 244 17 272 44 q 175 -10 215 -11 q 107 19 135 -10 q 79 88 79 47 q 69 622 83 447 q 94 692 68 663 q 161 724 121 722 q 231 700 201 726 q 264 633 261 674 q 274 85 276 453 l 274 85 z "},"î":{"ha":343,"x_min":-54,"x_max":379,"o":"m 17 817 q -35 853 -15 824 q -47 917 -54 883 q -12 972 -39 951 l 114 1064 q 142 1076 126 1072 q 154 1079 149 1078 q 215 1067 188 1086 l 338 969 q 372 914 367 950 q 358 851 379 881 q 306 816 338 822 q 246 829 274 810 l 164 894 l 79 831 q 17 817 50 810 l 17 817 m 274 85 q 244 17 272 44 q 175 -10 215 -11 q 107 19 135 -10 q 79 88 79 47 q 69 622 83 447 q 94 692 68 663 q 161 724 121 722 q 231 700 201 726 q 264 633 261 674 q 274 85 276 453 l 274 85 z "},"ï":{"ha":343,"x_min":-33,"x_max":383,"o":"m 153 901 q 122 850 146 871 q 56 833 99 829 q -9 861 13 836 q -32 914 -31 886 q -22 968 -33 942 q 29 1011 -10 994 q 57 1016 44 1015 q 81 1015 69 1017 q 111 1007 96 1014 q 150 965 142 994 q 153 901 160 933 l 153 901 m 379 901 q 350 849 375 869 q 282 833 325 829 q 219 860 239 836 q 199 913 200 885 q 204 961 197 940 q 236 1001 211 982 q 289 1015 256 1017 q 326 1011 311 1015 q 354 993 340 1006 q 376 956 368 983 q 379 901 383 933 l 379 901 m 274 85 q 244 17 272 44 q 175 -10 215 -11 q 107 19 135 -10 q 79 88 79 47 q 69 622 83 447 q 94 692 68 663 q 161 724 121 722 q 231 700 201 726 q 264 633 261 674 q 274 85 276 453 l 274 85 z "},"ı":{"ha":343,"x_min":68,"x_max":276,"o":"m 274 85 q 244 17 272 44 q 175 -10 215 -11 q 107 19 135 -10 q 79 88 79 47 q 69 622 83 447 q 94 692 68 663 q 161 724 121 722 q 231 700 201 726 q 264 633 261 674 q 274 85 276 453 l 274 85 z "},"ì":{"ha":343,"x_min":-33,"x_max":276,"o":"m 274 85 q 244 17 272 44 q 175 -10 215 -11 q 107 19 135 -10 q 79 88 79 47 q 69 622 83 447 q 94 692 68 663 q 161 724 121 722 q 231 700 201 726 q 264 633 261 674 q 274 85 276 453 l 274 85 z "},"ī":{"ha":333,"x_min":-32,"x_max":364,"o":"m 117 839 q 60 842 93 839 q -3 865 24 842 q -31 924 -29 889 q -7 985 -32 960 q 54 1011 18 1010 q 172 1010 124 1008 q 275 1013 219 1013 q 337 990 311 1013 q 363 933 363 968 q 339 871 364 897 q 278 843 314 844 q 182 839 221 839 l 117 839 l 117 839 m 274 85 q 244 17 272 44 q 175 -10 215 -11 q 107 19 135 -10 q 79 88 79 47 q 69 622 83 447 q 94 692 68 663 q 161 724 121 722 q 231 700 201 726 q 264 633 261 674 q 274 85 276 453 l 274 85 l 274 85 z "},"į":{"ha":331,"x_min":-81,"x_max":286,"o":"m 93 -283 q -47 -215 -4 -281 q -77 -135 -74 -176 q -65 -58 -81 -94 q -34 0 -49 -22 q -1 43 -19 22 q 79 118 28 76 q 69 614 83 468 q 94 684 68 654 q 161 716 121 714 q 231 692 201 718 q 264 625 261 665 q 274 113 274 449 q 272 97 274 106 q 243 1 286 40 q 202 -32 240 -1 q 143 -86 164 -62 l 140 -89 q 193 -94 175 -90 q 256 -135 233 -101 q 270 -208 278 -168 q 229 -269 263 -247 q 157 -283 196 -292 l 143 -283 q 127 -284 138 -283 q 93 -283 117 -285 l 93 -283 m 231 972 q 260 904 260 944 q 231 835 260 864 q 163 807 203 807 q 94 835 122 807 q 65 904 65 864 q 94 973 65 944 q 163 1001 122 1001 q 231 972 203 1001 l 231 972 z "},"ĩ":{"ha":343,"x_min":-67,"x_max":400,"o":"m 240 824 q 164 853 211 824 q 126 874 140 867 q 97 881 111 881 q 49 860 69 881 q -10 832 21 832 q -50 849 -33 832 q -67 889 -67 867 q -57 928 -67 910 q -26 967 -47 946 q 92 1036 40 1036 q 131 1029 113 1036 q 178 1007 150 1022 q 213 990 194 997 q 244 982 231 982 q 265 987 257 982 q 283 1003 272 992 q 312 1028 299 1019 q 344 1038 325 1038 q 384 1022 368 1038 q 400 981 400 1006 q 358 896 400 940 q 299 842 325 860 q 240 824 274 824 l 240 824 m 274 85 q 244 17 272 44 q 175 -10 215 -11 q 107 19 135 -10 q 79 88 79 47 q 69 622 83 447 q 94 692 68 663 q 161 724 121 722 q 231 700 201 726 q 264 633 261 674 q 274 85 276 453 l 274 85 l 274 85 z "},"ĵ":{"ha":382,"x_min":-47,"x_max":422,"o":"m 90 -282 q 16 -278 53 -294 q -34 -224 -21 -261 q -31 -149 -47 -186 q 24 -99 -14 -112 q 99 -82 47 -90 q 104 -3 103 -53 q 106 213 108 93 q 94 610 104 450 q 120 679 93 650 q 188 710 147 708 q 257 685 228 713 q 289 618 286 658 q 300 214 297 456 q 297 -10 301 90 q 290 -110 296 -72 q 283 -150 288 -133 q 261 -203 276 -182 q 147 -269 224 -253 q 118 -276 131 -274 q 101 -278 106 -278 q 90 -282 96 -279 l 90 -282 m 39 807 q -16 844 4 814 q -28 908 -36 874 q 8 963 -21 942 l 142 1054 q 171 1067 156 1063 q 185 1069 178 1068 q 249 1057 219 1076 l 379 960 q 415 904 410 940 q 401 842 422 871 q 345 806 379 813 q 282 819 311 800 l 194 885 l 104 821 q 39 807 74 800 l 39 807 z "},"ȷ":{"ha":371,"x_min":-71,"x_max":301,"o":"m 42 -283 q -30 -264 1 -289 q -66 -199 -61 -239 q -46 -127 -71 -158 q 19 -92 -21 -96 q 93 -90 43 -89 q 100 -36 97 -68 q 108 190 108 47 q 104 365 107 267 q 98 547 101 464 q 93 639 94 629 q 119 708 92 678 q 187 739 147 738 q 256 713 226 740 q 288 644 286 685 q 291 552 288 636 q 298 368 294 468 q 301 192 301 268 q 293 -56 301 24 q 276 -156 288 -117 q 214 -253 257 -224 q 99 -283 168 -283 q 62 -283 82 -283 q 42 -283 42 -282 l 42 -283 z "},"ķ":{"ha":718,"x_min":69,"x_max":711,"o":"m 483 92 q 446 135 454 125 q 425 160 438 146 q 405 186 413 174 q 387 213 397 199 q 356 260 376 226 l 310 326 l 267 285 q 269 101 268 169 q 242 32 269 61 q 174 3 214 3 q 104 31 133 3 q 75 99 75 58 q 73 312 75 168 q 70 541 71 456 q 70 748 69 626 q 74 957 71 869 q 104 1025 75 997 q 174 1051 133 1053 q 242 1021 214 1050 q 268 951 269 992 q 264 554 263 790 l 443 733 q 512 761 472 761 q 580 732 551 761 q 608 663 608 703 q 579 594 608 624 l 450 465 l 511 375 q 546 323 542 331 q 567 292 550 315 q 588 266 585 269 q 624 225 592 263 l 685 154 q 708 85 711 125 q 674 18 704 44 q 604 -5 644 -8 q 538 29 564 -1 l 483 92 m 388 -358 q 344 -381 369 -378 q 297 -368 318 -385 q 274 -325 276 -351 q 293 -275 272 -299 q 342 -203 311 -256 q 300 -186 317 -199 q 277 -157 285 -174 q 269 -115 269 -140 q 281 -71 269 -90 q 318 -37 292 -51 l 343 -28 q 373 -26 364 -25 q 397 -29 382 -26 q 464 -75 438 -37 q 485 -178 492 -114 q 453 -267 475 -225 q 388 -358 428 -321 l 388 -358 z "},"ĸ":{"ha":697,"x_min":69,"x_max":693,"o":"m 468 86 l 318 301 l 267 249 q 264 85 265 146 q 234 17 263 44 q 165 -10 206 -11 q 97 19 125 -10 q 69 88 69 47 q 74 369 72 172 q 76 650 75 565 q 106 718 78 690 q 175 745 135 746 q 243 716 215 744 q 271 647 271 688 q 268 525 269 600 l 454 713 q 523 742 483 742 q 592 713 563 742 q 621 645 621 685 q 593 576 621 606 l 457 440 l 667 157 q 691 86 693 126 q 659 19 689 46 q 589 -5 629 -7 q 522 26 549 -3 l 468 86 z "},"ĺ":{"ha":428,"x_min":60,"x_max":365,"o":"m 107 100 q 106 331 107 189 q 104 608 104 474 q 107 860 104 742 q 138 928 108 900 l 142 931 q 242 947 194 971 q 275 924 260 939 q 301 854 303 894 q 297 603 297 733 q 299 330 297 471 q 301 100 301 189 q 273 31 301 60 q 204 3 244 3 q 135 31 164 3 q 107 100 107 60 l 107 100 m 164 975 q 94 1000 125 974 q 62 1066 64 1026 q 86 1136 60 1106 l 194 1256 q 261 1289 221 1286 q 331 1264 300 1290 q 363 1198 361 1238 q 339 1128 365 1158 l 231 1008 q 164 975 204 978 l 164 975 z "},"ľ":{"ha":532,"x_min":76,"x_max":550,"o":"m 271 79 q 241 11 269 39 q 172 -16 213 -17 q 104 13 132 -15 q 76 82 76 42 q 78 482 79 82 l 76 907 q 105 976 76 947 q 174 1004 133 1004 q 242 976 214 1004 q 271 907 271 947 q 272 631 271 796 q 272 331 272 465 q 271 79 272 197 l 271 79 m 519 699 q 477 656 510 668 q 411 653 444 643 q 364 691 378 663 q 361 750 350 719 q 378 833 376 799 q 367 921 381 869 q 366 981 353 953 q 413 1019 379 1008 q 478 1019 446 1031 q 525 975 511 1007 q 548 876 546 919 q 544 797 550 832 q 519 699 539 761 l 519 699 z "},"ļ":{"ha":349,"x_min":72,"x_max":282,"o":"m 271 79 q 241 11 269 39 q 172 -16 213 -17 q 104 13 132 -15 q 76 82 76 42 q 78 482 79 82 l 76 907 q 105 976 76 947 q 174 1004 133 1004 q 242 976 214 1004 q 271 907 271 947 q 272 631 271 796 q 272 331 272 465 q 271 79 272 197 l 271 79 m 185 -371 q 142 -397 167 -390 q 99 -385 118 -404 q 77 -340 79 -365 q 94 -293 75 -315 q 140 -225 113 -275 q 101 -208 117 -221 q 80 -181 88 -197 q 72 -142 72 -165 q 83 -100 72 -118 q 118 -69 94 -82 l 142 -60 q 171 -58 163 -57 q 193 -61 179 -58 q 256 -104 232 -69 q 276 -201 282 -140 q 246 -285 267 -246 q 185 -371 222 -336 l 185 -371 z "},"ŀ":{"ha":560,"x_min":71,"x_max":538,"o":"m 72 92 q 72 339 72 186 q 71 633 71 492 q 72 901 71 775 q 102 969 74 942 q 171 997 131 997 q 239 967 211 996 q 267 899 267 939 q 265 474 263 897 l 267 92 q 238 23 267 51 q 169 -6 210 -6 q 101 23 129 -6 q 72 92 72 51 l 72 92 m 528 549 q 499 492 522 514 q 435 467 476 469 q 356 487 393 465 q 313 553 319 508 q 324 629 306 599 q 379 669 343 660 q 504 640 463 694 q 528 549 538 597 l 528 549 z "},"ł":{"ha":536,"x_min":19,"x_max":519,"o":"m 111 311 q 46 338 72 311 q 19 411 19 364 q 30 458 19 439 q 67 493 40 476 l 233 599 l 357 672 q 429 700 404 700 q 493 672 467 700 q 519 603 519 644 q 506 553 519 576 q 471 518 493 531 l 193 349 q 145 321 164 331 q 111 311 126 311 l 111 311 m 364 79 q 334 11 363 39 q 265 -16 306 -17 q 197 13 225 -15 q 169 82 169 42 q 171 482 172 82 l 169 907 q 198 976 169 947 q 267 1004 226 1004 q 335 976 307 1004 q 364 907 364 947 q 365 631 364 796 q 365 331 365 465 q 364 79 365 197 l 364 79 l 364 79 z "},"ń":{"ha":797,"x_min":74,"x_max":728,"o":"m 147 10 q 85 79 101 29 q 78 161 74 111 q 83 206 81 185 l 88 238 q 88 256 89 249 q 82 664 75 361 q 113 732 83 704 q 182 758 142 760 q 239 738 214 757 q 272 688 264 718 q 342 729 306 714 q 493 749 408 765 q 565 719 532 740 q 688 557 644 671 q 728 260 726 454 q 724 160 728 204 q 721 94 721 117 q 691 26 719 54 q 622 -1 663 -1 q 554 28 582 0 q 526 97 526 57 q 530 161 526 119 q 533 258 533 203 q 507 488 533 418 q 463 556 486 540 q 436 558 451 563 q 374 520 408 551 q 317 443 340 489 q 297 299 293 399 q 299 227 297 272 q 301 164 301 182 q 300 113 301 131 q 296 82 299 94 q 239 13 282 33 q 147 10 192 -8 l 147 10 m 463 822 q 399 783 439 790 q 327 800 360 776 q 288 863 294 824 q 304 936 281 903 l 392 1058 q 455 1097 415 1090 q 527 1081 494 1104 q 567 1017 560 1057 q 550 944 574 978 l 463 822 l 463 822 z "},"ň":{"ha":840,"x_min":75,"x_max":783,"o":"m 204 -7 q 143 4 168 -11 q 107 39 118 19 q 92 75 96 56 q 88 144 88 99 q 84 343 86 163 q 76 644 82 524 q 102 714 75 685 q 169 745 129 743 q 239 720 210 747 q 271 653 268 693 l 271 644 q 413 728 336 718 q 363 750 386 733 q 308 790 349 758 q 243 840 267 822 q 208 905 213 865 q 229 976 204 944 q 294 1011 254 1007 q 365 990 333 1015 q 436 929 400 963 l 504 988 q 576 1008 536 1013 q 640 973 615 1004 q 661 902 665 942 q 626 838 657 863 q 557 786 594 815 q 507 747 519 757 q 468 729 488 735 q 667 636 589 725 q 768 417 753 554 q 778 228 775 350 q 782 94 782 106 q 756 25 783 54 q 688 -6 728 -4 q 618 21 647 -7 q 588 89 589 49 q 588 204 586 149 q 586 333 590 260 q 576 420 586 363 q 528 508 565 478 q 436 536 493 540 q 404 531 438 536 q 338 497 371 526 q 303 401 306 468 q 300 197 301 333 q 285 56 306 115 q 269 31 278 42 q 204 -7 243 -1 l 204 -7 z "},"ņ":{"ha":775,"x_min":68,"x_max":706,"o":"m 697 88 q 668 24 696 50 q 603 -1 640 -3 q 539 28 565 0 q 514 93 513 56 q 517 185 514 108 q 522 303 521 261 q 518 399 522 344 q 503 488 514 454 q 469 531 494 514 q 407 551 444 549 q 335 542 368 556 q 288 506 303 529 q 281 481 282 488 q 281 463 281 475 q 282 288 281 414 q 283 97 283 163 q 255 28 283 57 q 186 0 226 0 q 117 28 146 0 q 89 97 89 57 q 87 336 89 156 q 75 613 85 517 q 94 692 68 663 q 163 722 121 722 q 250 650 238 718 q 426 735 314 731 q 588 681 525 733 q 678 543 650 629 q 699 424 693 496 q 705 302 706 351 q 701 171 704 253 q 697 88 697 89 l 697 88 m 408 -371 q 366 -397 390 -390 q 322 -385 342 -404 q 301 -340 303 -365 q 318 -293 299 -315 q 364 -225 336 -275 q 325 -208 340 -221 q 303 -181 311 -197 q 296 -142 296 -165 q 307 -100 296 -118 q 342 -69 318 -82 l 365 -60 q 394 -58 386 -57 q 417 -61 403 -58 q 479 -104 456 -69 q 500 -201 506 -140 q 469 -285 490 -246 q 408 -371 446 -336 l 408 -371 z "},"ñ":{"ha":775,"x_min":68,"x_max":706,"o":"m 697 88 q 668 24 696 50 q 603 -1 640 -3 q 539 28 565 0 q 514 93 513 56 q 517 185 514 108 q 522 303 521 261 q 518 399 522 344 q 503 488 514 454 q 469 531 494 514 q 407 551 444 549 q 335 542 368 556 q 288 506 303 529 q 281 481 282 488 q 281 463 281 475 q 282 288 281 414 q 283 97 283 163 q 255 28 283 57 q 186 0 226 0 q 117 28 146 0 q 89 97 89 57 q 87 336 89 156 q 75 613 85 517 q 94 692 68 663 q 163 722 121 722 q 250 650 238 718 q 426 735 314 731 q 588 681 525 733 q 678 543 650 629 q 699 424 693 496 q 705 302 706 351 q 701 171 704 253 q 697 88 697 89 l 697 88 z "},"ŋ":{"ha":803,"x_min":72,"x_max":740,"o":"m 513 -301 q 441 -319 481 -325 q 377 -282 401 -314 q 358 -210 353 -250 q 396 -146 364 -171 q 451 -111 418 -131 q 470 -100 453 -110 q 496 -85 488 -90 q 539 -49 531 -64 q 538 -24 540 -42 q 535 -1 538 -22 l 529 40 q 526 76 526 61 l 526 176 q 527 255 526 215 q 526 338 528 294 q 523 421 525 382 q 515 497 521 460 q 500 563 508 535 q 483 594 492 586 q 338 490 436 588 q 283 418 318 471 q 289 89 283 282 q 261 21 289 50 q 194 -9 233 -8 q 125 18 154 -10 q 94 86 96 46 q 90 369 90 246 q 72 424 72 394 q 89 479 72 454 q 90 671 89 581 q 120 739 92 711 q 189 767 149 767 q 246 747 221 765 q 281 699 271 728 q 489 789 394 790 q 564 772 531 788 q 620 731 597 757 q 658 680 643 706 q 682 625 672 654 q 704 539 696 588 q 716 434 713 490 q 720 341 719 378 q 721 247 721 304 l 721 76 q 722 58 721 67 q 726 33 724 49 q 731 -1 728 17 q 708 -143 740 -86 q 597 -250 675 -203 l 549 -278 q 513 -301 525 -292 l 513 -301 z "},"ó":{"ha":792,"x_min":43,"x_max":743,"o":"m 328 -8 q 139 103 207 15 q 56 303 69 190 q 79 512 43 407 q 196 685 115 617 q 278 728 228 713 q 307 736 279 728 q 324 742 318 739 q 401 739 363 757 q 576 696 532 718 q 664 626 628 671 q 715 533 700 582 q 736 428 729 483 q 735 329 743 374 q 704 198 728 261 q 632 78 681 135 q 518 -3 583 21 q 328 -8 439 -31 l 328 -8 m 364 181 q 454 181 424 169 q 508 235 481 190 q 542 350 535 281 q 533 465 550 419 q 493 521 517 510 q 460 533 475 529 q 416 540 444 536 q 360 550 388 543 q 335 543 336 543 l 321 538 q 261 446 282 504 q 249 325 240 388 q 285 228 256 265 q 364 181 315 190 l 364 181 m 356 764 q 286 789 317 763 q 253 855 256 815 q 278 925 251 894 l 386 1044 q 453 1078 413 1075 q 522 1053 492 1079 q 555 987 553 1026 q 531 917 557 947 l 422 797 q 356 764 396 767 l 356 764 z "},"ŏ":{"ha":818,"x_min":38,"x_max":768,"o":"m 415 -12 q 278 15 342 -11 q 172 85 215 42 q 101 183 129 129 q 61 296 74 236 q 81 535 38 415 q 236 725 124 656 q 506 733 349 786 q 535 717 513 725 q 685 583 643 656 q 749 467 729 532 q 764 338 768 401 q 738 214 760 274 q 616 51 700 117 q 415 -12 532 -14 l 415 -12 m 418 172 q 499 198 463 171 q 556 276 535 225 q 569 382 575 329 q 535 468 563 435 q 497 502 517 488 q 443 538 478 517 q 381 579 408 558 q 369 578 375 579 q 339 569 347 574 q 261 469 285 536 q 251 329 238 403 q 311 214 267 256 q 418 172 356 172 l 418 172 m 490 822 q 349 815 428 796 q 214 886 271 833 q 153 1008 157 939 q 197 1078 163 1058 q 268 1081 232 1097 q 318 1015 304 1064 q 320 1007 319 1013 q 319 1004 321 1001 q 318 1015 301 1047 q 380 978 361 986 q 417 978 399 971 q 464 1015 435 986 q 458 990 461 999 l 460 999 q 513 1072 471 1054 q 590 1063 554 1090 q 624 978 626 1036 q 578 893 619 935 q 490 822 535 840 l 490 822 z "},"ô":{"ha":792,"x_min":43,"x_max":743,"o":"m 328 -12 q 139 99 207 11 q 56 299 69 186 q 79 508 43 403 q 196 681 115 613 q 278 724 228 708 q 307 732 279 724 q 324 738 318 735 q 401 735 363 753 q 576 692 532 714 q 664 622 628 667 q 715 528 700 578 q 736 424 729 479 q 735 325 743 369 q 704 194 728 257 q 632 74 681 131 q 518 -7 583 17 q 328 -12 439 -35 l 328 -12 m 364 176 q 454 176 424 165 q 508 231 481 186 q 542 346 535 276 q 533 460 550 415 q 493 517 517 506 q 460 528 475 525 q 416 535 444 532 q 360 546 388 539 q 335 539 336 539 l 321 533 q 261 442 282 500 q 249 321 240 383 q 285 224 256 261 q 364 176 315 186 l 364 176 m 282 774 q 227 810 247 781 q 215 874 207 840 q 251 929 222 908 l 385 1021 q 414 1033 399 1029 q 428 1036 421 1035 q 492 1024 463 1043 l 622 926 q 658 871 653 907 q 644 808 665 838 q 588 773 622 779 q 525 786 554 767 l 438 851 l 347 788 q 282 774 317 767 l 282 774 z "},"ö":{"ha":792,"x_min":43,"x_max":743,"o":"m 328 -10 q 139 101 207 14 q 56 301 69 189 q 79 510 43 406 q 196 683 115 615 q 278 726 228 711 q 307 735 279 726 q 324 740 318 738 q 401 738 363 756 q 576 694 532 717 q 664 625 628 669 q 715 531 700 581 q 736 427 729 482 q 735 328 743 372 q 704 197 728 260 q 632 76 681 133 q 518 -4 583 19 q 328 -10 439 -32 l 328 -10 m 364 179 q 454 179 424 168 q 508 234 481 189 q 542 349 535 279 q 533 463 550 418 q 493 519 517 508 q 460 531 475 528 q 416 538 444 535 q 360 549 388 542 q 335 542 336 542 l 321 536 q 261 444 282 503 q 249 324 240 386 q 285 226 256 264 q 364 179 315 189 l 364 179 z "},"ò":{"ha":792,"x_min":43,"x_max":743,"o":"m 328 -3 q 139 108 207 21 q 56 308 69 196 q 79 517 43 413 q 196 690 115 622 q 278 733 228 718 q 307 742 279 733 q 324 747 318 744 q 401 744 363 763 q 576 701 532 724 q 664 632 628 676 q 715 538 700 588 q 736 434 729 489 q 735 335 743 379 q 704 203 728 267 q 632 83 681 140 q 518 3 583 26 q 328 -3 439 -25 l 328 -3 m 364 186 q 454 186 424 175 q 508 241 481 196 q 542 356 535 286 q 533 470 550 425 q 493 526 517 515 q 460 538 475 535 q 416 545 444 542 q 360 556 388 549 q 335 549 336 549 l 321 543 q 261 451 282 510 q 249 331 240 393 q 285 233 256 271 q 364 186 315 196 l 364 186 m 397 778 q 331 811 357 781 l 222 931 q 198 1001 196 961 q 231 1067 200 1040 q 300 1092 261 1093 q 367 1058 340 1089 l 475 939 q 499 869 501 908 q 467 803 497 829 q 397 778 436 776 l 397 778 z "},"ő":{"ha":781,"x_min":40,"x_max":728,"o":"m 414 -11 q 165 69 265 -29 q 61 283 83 149 q 72 498 40 400 q 178 671 103 596 q 272 726 211 706 l 307 739 q 329 746 321 742 q 385 752 356 758 q 433 725 414 746 q 529 713 492 722 q 636 648 593 694 q 710 525 679 601 q 722 482 718 504 q 727 437 726 460 q 727 424 728 414 q 725 415 726 435 q 724 392 724 396 q 712 296 721 343 q 681 195 703 249 q 627 100 660 142 q 539 28 594 58 q 414 -11 483 -3 l 414 -11 m 392 174 q 536 400 528 189 q 539 415 538 419 q 541 419 540 411 q 540 438 542 428 q 536 456 539 449 q 511 507 525 489 q 492 528 497 525 q 479 532 488 531 q 418 539 461 538 q 318 546 346 543 q 310 540 313 542 q 251 447 271 500 q 246 315 231 393 q 296 201 257 239 q 392 174 331 167 l 392 174 m 326 831 q 272 791 307 799 q 205 802 236 783 q 166 857 174 821 q 178 924 158 893 l 263 1057 q 317 1095 281 1088 q 383 1084 353 1103 q 422 1029 414 1065 q 411 964 429 993 l 326 831 l 326 831 m 581 819 q 522 787 557 792 q 457 805 486 782 q 424 864 428 828 q 442 928 419 900 l 525 1033 q 583 1067 547 1063 q 648 1049 619 1072 q 681 990 676 1026 q 663 926 686 954 l 581 819 l 581 819 z "},"ō":{"ha":792,"x_min":43,"x_max":743,"o":"m 328 -10 q 139 101 207 14 q 56 301 69 189 q 79 510 43 406 q 196 683 115 615 q 278 726 228 711 q 307 735 279 726 q 324 740 318 738 q 401 738 363 756 q 576 694 532 717 q 664 625 628 669 q 715 531 700 581 q 736 427 729 482 q 735 328 743 372 q 704 197 728 260 q 632 76 681 133 q 518 -4 583 19 q 328 -10 439 -32 l 328 -10 m 364 179 q 454 179 424 168 q 508 234 481 189 q 542 349 535 279 q 533 463 550 418 q 493 519 517 508 q 460 531 475 528 q 416 538 444 535 q 360 549 388 542 q 335 542 336 542 l 321 536 q 261 444 282 503 q 249 324 240 386 q 285 226 256 264 q 364 179 315 189 l 364 179 z "},"ǫ":{"ha":792,"x_min":43,"x_max":743,"o":"m 401 -276 q 323 -260 361 -276 q 261 -217 285 -244 q 219 -108 219 -169 q 268 24 217 -36 q 340 80 297 57 q 422 107 382 103 q 519 78 496 117 q 524 28 535 53 q 489 -7 514 4 q 469 -13 479 -11 q 450 -18 460 -15 q 390 -40 414 -26 q 353 -107 349 -65 q 370 -139 354 -126 q 410 -151 386 -151 q 438 -146 426 -151 q 465 -129 450 -140 q 490 -113 478 -118 q 517 -108 501 -108 q 560 -128 544 -108 q 575 -172 575 -149 q 526 -244 575 -214 q 469 -267 497 -258 q 401 -276 440 -276 l 401 -276 m 328 -10 q 139 101 207 14 q 56 301 69 189 q 79 510 43 406 q 196 683 115 615 q 278 726 228 711 q 307 735 279 726 q 324 740 318 738 q 401 738 363 756 q 576 694 532 717 q 664 625 628 669 q 715 531 700 581 q 736 427 729 482 q 735 328 743 372 q 704 197 728 260 q 632 76 681 133 q 518 -4 583 19 q 328 -10 439 -32 l 328 -10 l 328 -10 m 364 179 q 454 179 424 168 q 508 234 481 189 q 542 349 535 279 q 533 463 550 418 q 493 519 517 508 q 460 531 475 528 q 416 538 444 535 q 360 549 388 542 q 335 542 336 542 l 321 536 q 261 444 282 503 q 249 324 240 386 q 285 226 256 264 q 364 179 315 189 l 364 179 l 364 179 z "},"ø":{"ha":788,"x_min":43,"x_max":776,"o":"m 154 -37 q 113 -60 138 -58 q 69 -46 88 -61 q 48 -5 50 -31 q 60 40 46 21 l 188 186 l 538 619 l 665 768 q 703 792 679 789 q 747 781 728 796 q 772 742 767 767 q 761 700 776 718 l 626 543 l 464 335 l 281 117 l 154 -37 l 154 -37 m 328 -10 q 139 101 207 14 q 56 301 69 189 q 79 510 43 406 q 196 683 115 615 q 278 726 228 711 q 307 735 279 726 q 324 740 318 738 q 401 738 363 756 q 576 694 532 717 q 664 625 628 669 q 715 531 700 581 q 736 427 729 482 q 735 328 743 372 q 704 197 728 260 q 632 76 681 133 q 518 -4 583 19 q 328 -10 439 -32 l 328 -10 l 328 -10 m 364 179 q 454 179 424 168 q 508 234 481 189 q 542 349 535 279 q 533 463 550 418 q 493 519 517 508 q 460 531 475 528 q 416 538 444 535 q 360 549 388 542 q 335 542 336 542 l 321 536 q 261 444 282 503 q 249 324 240 386 q 285 226 256 264 q 364 179 315 189 l 364 179 l 364 179 z "},"ǿ":{"ha":788,"x_min":43,"x_max":776,"o":"m 154 -37 q 113 -60 138 -58 q 69 -46 88 -61 q 48 -5 50 -31 q 60 40 46 21 l 188 186 l 538 619 l 665 768 q 703 792 679 789 q 747 781 728 796 q 772 742 767 767 q 761 700 776 718 l 626 543 l 464 335 l 281 117 l 154 -37 l 154 -37 m 328 -10 q 139 101 207 14 q 56 301 69 189 q 79 510 43 406 q 196 683 115 615 q 278 726 228 711 q 307 735 279 726 q 324 740 318 738 q 401 738 363 756 q 576 694 532 717 q 664 625 628 669 q 715 531 700 581 q 736 427 729 482 q 735 328 743 372 q 704 197 728 260 q 632 76 681 133 q 518 -4 583 19 q 328 -10 439 -32 l 328 -10 l 328 -10 m 364 179 q 454 179 424 168 q 508 234 481 189 q 542 349 535 279 q 533 463 550 418 q 493 519 517 508 q 460 531 475 528 q 416 538 444 535 q 360 549 388 542 q 335 542 336 542 l 321 536 q 261 444 282 503 q 249 324 240 386 q 285 226 256 264 q 364 179 315 189 l 364 179 l 364 179 z "},"õ":{"ha":792,"x_min":43,"x_max":743,"o":"m 328 -4 q 139 107 207 19 q 56 307 69 194 q 79 516 43 411 q 196 689 115 621 q 278 732 228 717 q 307 740 279 732 q 324 746 318 743 q 401 743 363 761 q 576 700 532 722 q 664 631 628 675 q 715 537 700 586 q 736 433 729 488 q 735 333 743 378 q 704 202 728 265 q 632 82 681 139 q 518 1 583 25 q 328 -4 439 -26 l 328 -4 m 364 185 q 454 185 424 174 q 508 240 481 194 q 542 354 535 285 q 533 469 550 424 q 493 525 517 514 q 460 537 475 533 q 416 544 444 540 q 360 554 388 547 q 335 547 336 547 l 321 542 q 261 450 282 508 q 249 329 240 392 q 285 232 256 269 q 364 185 315 194 l 364 185 m 168 814 q 121 833 138 814 q 104 888 104 853 q 131 963 104 925 q 198 1026 157 1001 q 279 1050 239 1050 q 340 1040 315 1050 q 396 1010 365 1031 q 440 985 424 992 q 481 978 457 978 q 531 1011 510 978 q 558 1044 546 1035 q 597 1053 571 1053 q 645 1033 628 1053 q 663 982 663 1014 q 639 900 663 939 q 575 838 615 861 q 489 814 535 814 q 436 823 460 814 q 375 853 413 832 q 326 877 346 869 q 286 885 306 885 q 252 876 268 885 q 226 851 236 867 q 201 822 213 829 q 168 814 190 814 l 168 814 z "},"œ":{"ha":1278,"x_min":51,"x_max":1256,"o":"m 943 -21 q 718 25 833 -24 q 613 94 656 56 q 518 4 571 33 q 306 0 436 -44 q 161 93 221 28 q 76 234 101 158 q 53 389 51 310 q 75 507 56 450 q 131 613 94 564 q 226 694 167 661 q 361 732 286 726 q 571 694 488 742 q 626 650 601 678 q 661 688 643 671 q 791 753 718 738 q 925 756 864 768 q 1047 713 989 743 q 1189 596 1138 668 q 1235 414 1256 506 q 1169 331 1221 361 q 1094 300 1139 313 q 929 281 1031 285 q 708 281 858 278 q 717 251 710 261 q 796 189 736 218 q 911 158 861 158 q 999 175 960 161 l 1038 194 q 1093 224 1068 213 q 1163 222 1128 238 q 1211 172 1197 207 q 1210 103 1225 138 q 1161 56 1196 69 q 1119 35 1144 49 l 1071 11 q 943 -21 1011 -15 l 943 -21 m 428 160 q 472 207 447 171 l 500 251 q 524 286 513 272 q 535 442 517 358 q 538 456 536 450 q 518 486 529 469 q 511 499 517 488 l 500 515 q 483 536 489 533 q 376 551 447 557 q 273 501 310 546 q 235 385 236 456 q 267 251 232 311 q 363 171 303 192 q 428 160 415 153 l 428 160 m 728 461 q 922 461 844 457 q 1050 475 1006 465 l 1051 476 q 1043 489 1049 482 q 964 553 1017 525 q 860 580 908 581 q 781 553 811 579 q 728 461 751 526 l 728 461 z "},"ŕ":{"ha":556,"x_min":69,"x_max":544,"o":"m 118 85 q 90 363 103 204 q 71 678 78 522 q 94 744 69 715 q 156 778 118 774 q 235 753 203 783 q 265 686 264 725 l 265 672 q 399 738 289 686 q 473 741 435 754 q 528 692 511 728 q 531 617 544 656 q 482 563 518 579 q 365 506 390 519 q 329 481 340 493 q 283 357 311 460 q 310 107 294 217 q 290 35 315 67 q 225 -1 265 4 q 153 19 185 -6 q 118 85 122 44 l 118 85 m 265 839 q 196 864 226 838 q 163 930 165 890 q 188 1000 161 969 l 296 1119 q 363 1153 322 1150 q 432 1128 401 1154 q 465 1062 463 1101 q 440 992 467 1022 l 332 872 q 265 839 306 842 l 265 839 z "},"ř":{"ha":554,"x_min":57,"x_max":558,"o":"m 108 29 q 79 96 79 57 q 78 313 78 233 q 78 344 75 329 q 76 624 76 499 q 105 706 76 678 q 174 735 133 735 q 227 719 203 735 q 263 663 251 703 q 429 732 318 693 q 499 728 465 744 q 546 676 533 713 q 542 606 558 640 q 490 560 526 572 q 272 472 363 515 q 271 346 267 428 q 274 99 272 258 q 245 29 274 58 q 177 0 217 0 q 108 29 138 0 l 108 29 z "},"ŗ":{"ha":554,"x_min":75,"x_max":558,"o":"m 108 29 q 79 96 79 57 q 78 313 78 233 q 78 344 75 329 q 76 624 76 499 q 105 706 76 678 q 174 735 133 735 q 227 719 203 735 q 263 663 251 703 q 429 732 318 693 q 499 728 465 744 q 546 676 533 713 q 542 606 558 640 q 490 560 526 572 q 272 472 363 515 q 271 346 267 428 q 274 99 272 258 q 245 29 274 58 q 177 0 217 0 q 108 29 138 0 l 108 29 m 197 -371 q 155 -397 179 -390 q 111 -385 131 -404 q 90 -340 92 -365 q 107 -293 88 -315 q 153 -225 125 -275 q 114 -208 129 -221 q 92 -181 100 -197 q 85 -142 85 -165 q 96 -100 85 -118 q 131 -69 107 -82 l 154 -60 q 183 -58 175 -57 q 206 -61 192 -58 q 268 -104 244 -69 q 289 -201 294 -140 q 258 -285 279 -246 q 197 -371 235 -336 l 197 -371 z "},"ś":{"ha":757,"x_min":36,"x_max":715,"o":"m 508 13 q 349 -12 438 -12 q 197 18 260 -11 q 104 90 147 39 l 81 122 q 63 143 69 135 q 38 204 36 168 q 70 263 40 240 q 140 285 100 286 q 207 256 181 283 q 239 219 222 242 l 261 192 q 283 169 276 174 q 351 159 307 160 q 442 174 394 158 q 492 201 479 185 q 496 232 501 213 q 440 278 492 251 q 283 343 415 290 q 119 436 163 390 q 79 540 75 485 q 131 646 83 594 q 267 719 179 700 q 383 732 317 736 l 382 731 q 557 694 483 728 q 642 632 600 675 l 668 607 q 686 589 679 594 q 715 528 715 563 q 687 467 715 493 q 619 442 658 442 q 550 465 579 442 q 519 496 536 478 l 496 519 q 471 542 479 538 q 358 558 426 561 q 281 538 299 558 q 364 499 301 524 q 539 425 506 442 q 685 274 660 361 q 650 101 711 178 q 508 13 601 42 l 508 13 m 321 786 q 251 811 282 785 q 219 877 221 838 q 243 947 217 917 l 351 1067 q 418 1100 378 1097 q 488 1075 457 1101 q 520 1009 518 1049 q 496 939 522 969 l 388 819 q 321 786 361 789 l 321 786 z "},"š":{"ha":683,"x_min":38,"x_max":642,"o":"m 340 -10 q 222 6 279 -10 q 125 49 164 21 q 72 111 96 72 l 63 128 l 50 150 q 38 193 38 174 q 67 256 38 229 q 135 283 97 283 q 210 242 182 283 l 226 214 l 235 197 q 267 171 243 181 q 329 160 303 160 q 378 164 349 160 q 454 210 451 179 l 454 215 q 439 247 454 232 q 356 290 421 264 l 294 314 q 221 343 243 332 q 89 451 119 388 q 68 533 68 493 q 82 596 68 567 q 211 706 110 664 q 349 732 278 732 q 390 729 363 732 q 604 633 513 717 q 633 569 633 608 q 608 504 633 533 q 544 475 582 475 q 486 494 515 475 l 453 519 q 418 540 429 536 q 339 554 376 554 q 279 547 304 554 q 261 528 261 540 q 270 514 261 519 q 300 499 279 508 q 372 472 325 488 q 438 447 404 463 q 487 426 460 438 q 543 393 514 414 q 615 317 589 363 q 642 217 642 272 q 640 189 642 199 q 562 56 628 103 q 404 -6 496 8 q 340 -10 374 -10 l 340 -10 z "},"ş":{"ha":683,"x_min":38,"x_max":642,"o":"m 349 -335 q 238 -306 283 -335 q 193 -231 193 -278 q 210 -186 193 -203 q 249 -169 226 -169 q 303 -196 279 -169 q 326 -214 314 -208 q 357 -219 338 -219 q 387 -208 375 -219 q 399 -183 399 -197 q 391 -162 399 -171 q 371 -150 383 -153 q 340 -145 358 -146 q 303 -143 321 -144 q 259 -127 275 -140 q 243 -90 243 -114 q 283 -18 243 -57 q 371 54 322 21 q 454 11 422 51 q 365 -81 365 -37 l 332 -58 q 369 -53 344 -53 q 481 -91 436 -53 q 526 -186 526 -129 q 501 -262 526 -228 q 433 -315 475 -296 q 349 -335 392 -335 l 349 -335 m 340 -10 q 222 6 279 -10 q 125 49 164 21 q 72 111 96 72 l 63 128 l 50 150 q 38 193 38 174 q 67 256 38 229 q 135 283 97 283 q 210 242 182 283 l 226 214 l 235 197 q 267 171 243 181 q 329 160 303 160 q 378 164 349 160 q 454 210 451 179 l 454 215 q 439 247 454 232 q 356 290 421 264 l 294 314 q 221 343 243 332 q 89 451 119 388 q 68 533 68 493 q 82 596 68 567 q 211 706 110 664 q 349 732 278 732 q 390 729 363 732 q 604 633 513 717 q 633 569 633 608 q 608 504 633 533 q 544 475 582 475 q 486 494 515 475 l 453 519 q 418 540 429 536 q 339 554 376 554 q 279 547 304 554 q 261 528 261 540 q 270 514 261 519 q 300 499 279 508 q 372 472 325 488 q 438 447 404 463 q 487 426 460 438 q 543 393 514 414 q 615 317 589 363 q 642 217 642 272 q 640 189 642 199 q 562 56 628 103 q 404 -6 496 8 q 340 -10 374 -10 l 340 -10 l 340 -10 z "},"ŝ":{"ha":775,"x_min":69,"x_max":676,"o":"m 438 -18 q 289 -14 365 -28 q 161 39 213 0 q 108 104 132 63 l 97 128 q 90 140 93 136 q 77 209 69 172 q 117 267 85 246 q 185 280 149 288 q 243 240 222 272 q 260 211 251 228 l 269 192 q 275 182 274 186 q 331 164 292 171 q 411 164 369 157 q 488 207 485 175 q 472 246 490 228 q 389 290 454 264 q 328 315 379 294 q 254 346 276 335 q 125 458 157 392 q 118 610 88 538 q 206 706 142 669 q 308 742 251 732 q 410 746 364 753 q 542 703 493 735 q 567 682 553 694 l 600 653 q 624 632 618 638 q 656 569 653 607 q 633 502 658 531 q 570 471 608 474 q 504 493 532 468 q 472 522 486 508 q 452 540 458 535 q 440 550 446 544 q 385 565 425 558 q 342 563 368 567 q 297 547 315 558 l 289 542 l 292 536 l 293 535 q 305 526 294 533 q 332 511 315 519 q 400 483 354 500 q 458 461 446 465 q 515 435 490 447 q 574 399 539 424 q 629 347 608 374 q 663 276 650 319 q 671 185 676 233 q 640 98 664 136 q 581 37 615 60 q 510 1 546 14 q 438 -18 475 -12 l 438 -18 m 226 807 q 172 844 192 814 q 159 908 151 874 q 196 963 167 942 l 329 1054 q 358 1067 343 1063 q 372 1069 365 1068 q 436 1057 407 1076 l 567 960 q 603 904 597 940 q 588 842 610 871 q 533 806 567 813 q 469 819 499 800 l 382 885 l 292 821 q 226 807 261 800 l 226 807 z "},"ș":{"ha":683,"x_min":38,"x_max":642,"o":"m 340 -10 q 222 6 279 -10 q 125 49 164 21 q 72 111 96 72 l 63 128 l 50 150 q 38 193 38 174 q 67 256 38 229 q 135 283 97 283 q 210 242 182 283 l 226 214 l 235 197 q 267 171 243 181 q 329 160 303 160 q 378 164 349 160 q 454 210 451 179 l 454 215 q 439 247 454 232 q 356 290 421 264 l 294 314 q 221 343 243 332 q 89 451 119 388 q 68 533 68 493 q 82 596 68 567 q 211 706 110 664 q 349 732 278 732 q 390 729 363 732 q 604 633 513 717 q 633 569 633 608 q 608 504 633 533 q 544 475 582 475 q 486 494 515 475 l 453 519 q 418 540 429 536 q 339 554 376 554 q 279 547 304 554 q 261 528 261 540 q 270 514 261 519 q 300 499 279 508 q 372 472 325 488 q 438 447 404 463 q 487 426 460 438 q 543 393 514 414 q 615 317 589 363 q 642 217 642 272 q 640 189 642 199 q 562 56 628 103 q 404 -6 496 8 q 340 -10 374 -10 l 340 -10 m 351 -371 q 309 -397 333 -390 q 265 -385 285 -404 q 244 -340 246 -365 q 261 -293 242 -315 q 307 -225 279 -275 q 268 -208 283 -221 q 247 -181 254 -197 q 239 -142 239 -165 q 250 -100 239 -118 q 285 -69 261 -82 l 308 -60 q 338 -58 329 -57 q 360 -61 346 -58 q 422 -104 399 -69 q 443 -201 449 -140 q 413 -285 433 -246 q 351 -371 389 -336 l 351 -371 z "},"ŧ":{"ha":464,"x_min":-39,"x_max":481,"o":"m 40 285 q -17 307 6 285 q -39 361 -39 329 q -17 415 -39 393 q 40 438 6 438 l 404 438 q 460 417 439 438 q 481 361 481 396 q 460 306 481 326 q 404 285 439 285 l 40 285 l 40 285 m 338 -3 q 283 15 310 -3 q 254 29 268 21 l 218 50 q 135 110 163 82 q 106 170 111 140 q 99 258 100 200 l 99 286 q 97 474 97 326 q 99 564 97 533 l 72 564 q 12 588 38 564 q -14 650 -14 613 q 13 715 -14 689 q 74 740 39 740 l 99 740 l 100 800 l 100 843 q 130 912 101 888 q 196 936 158 936 q 265 910 235 936 q 294 838 294 883 l 292 743 l 343 743 q 418 717 393 743 q 443 650 443 690 q 417 584 443 611 q 339 557 390 557 l 288 557 q 286 472 288 500 q 285 389 285 443 q 290 235 285 300 q 297 229 296 229 l 311 219 l 322 214 l 335 207 l 346 201 q 389 176 371 190 q 432 99 432 147 q 404 28 432 60 q 338 -3 376 -3 l 338 -3 l 338 -3 z "},"ť":{"ha":464,"x_min":-14,"x_max":553,"o":"m 338 -3 q 283 15 310 -3 q 254 29 268 21 l 218 50 q 135 110 163 82 q 106 170 111 140 q 99 258 100 200 l 99 286 q 97 474 97 326 q 99 564 97 533 l 72 564 q 12 588 38 564 q -14 650 -14 613 q 13 715 -14 689 q 74 740 39 740 l 99 740 l 100 800 l 100 843 q 130 912 101 888 q 196 936 158 936 q 265 910 235 936 q 294 838 294 883 l 292 743 l 343 743 q 418 717 393 743 q 443 650 443 690 q 417 584 443 611 q 339 557 390 557 l 288 557 q 286 472 288 500 q 285 389 285 443 q 290 235 285 300 q 297 229 296 229 l 311 219 l 322 214 l 335 207 l 346 201 q 389 176 371 190 q 432 99 432 147 q 404 28 432 60 q 338 -3 376 -3 l 338 -3 m 522 838 q 480 794 513 807 q 414 792 447 782 q 367 830 381 801 q 364 889 353 858 q 381 972 379 938 q 369 1060 383 1008 q 369 1119 356 1092 q 415 1158 382 1147 q 481 1158 449 1169 q 528 1114 514 1146 q 551 1015 549 1058 q 547 935 553 971 q 522 838 542 900 l 522 838 z "},"ţ":{"ha":464,"x_min":-14,"x_max":447,"o":"m 269 -335 q 159 -306 204 -335 q 114 -231 114 -278 q 131 -186 114 -203 q 169 -169 147 -169 q 224 -196 200 -169 q 247 -214 235 -208 q 278 -219 258 -219 q 308 -208 296 -219 q 319 -183 319 -197 q 312 -162 319 -171 q 292 -150 304 -153 q 260 -145 279 -146 q 224 -143 242 -144 q 180 -127 196 -140 q 164 -90 164 -114 q 203 -18 164 -57 q 292 54 243 21 q 375 11 343 51 q 286 -81 286 -37 l 253 -58 q 290 -53 265 -53 q 402 -91 357 -53 q 447 -186 447 -129 q 422 -262 447 -228 q 354 -315 396 -296 q 269 -335 313 -335 l 269 -335 m 338 -3 q 283 15 310 -3 q 254 29 268 21 l 218 50 q 135 110 163 82 q 106 170 111 140 q 99 258 100 200 l 99 286 q 97 474 97 326 q 99 564 97 533 l 72 564 q 12 588 38 564 q -14 650 -14 613 q 13 715 -14 689 q 74 740 39 740 l 99 740 l 100 800 l 100 843 q 130 912 101 888 q 196 936 158 936 q 265 910 235 936 q 294 838 294 883 l 292 743 l 343 743 q 418 717 393 743 q 443 650 443 690 q 417 584 443 611 q 339 557 390 557 l 288 557 q 286 472 288 500 q 285 389 285 443 q 290 235 285 300 q 297 229 296 229 l 311 219 l 322 214 l 335 207 l 346 201 q 389 176 371 190 q 432 99 432 147 q 404 28 432 60 q 338 -3 376 -3 l 338 -3 l 338 -3 z "},"ț":{"ha":508,"x_min":-37,"x_max":531,"o":"m 428 -21 q 300 -4 360 -24 q 231 46 257 18 l 214 60 q 125 253 151 119 q 103 460 107 347 l 103 515 q 61 514 82 514 q -8 542 21 514 q -37 610 -37 571 q -9 679 -37 650 q 58 708 19 708 l 106 708 q 107 765 106 732 q 109 822 108 799 q 110 860 110 844 q 140 928 111 900 q 208 955 168 956 q 276 926 249 954 q 304 857 304 897 q 303 818 304 840 q 301 763 301 796 q 299 707 300 731 l 389 704 q 457 673 429 703 q 483 603 485 643 q 452 536 482 564 q 383 510 422 508 l 296 514 q 297 465 296 489 q 315 290 300 368 q 347 201 331 217 q 374 190 351 196 q 386 188 381 189 q 399 185 392 186 q 411 182 407 183 q 460 167 440 175 q 514 117 497 153 q 517 43 531 81 q 483 -3 507 14 q 428 -21 458 -19 l 428 -21 m 369 -387 q 327 -414 351 -407 q 283 -401 303 -421 q 262 -357 264 -382 q 279 -310 260 -332 q 325 -242 297 -292 q 286 -225 301 -237 q 265 -198 272 -214 q 257 -158 257 -182 q 268 -117 257 -135 q 303 -86 279 -99 l 326 -76 q 356 -74 347 -74 q 378 -78 364 -75 q 440 -121 417 -86 q 461 -218 467 -157 q 431 -301 451 -262 q 369 -387 407 -353 l 369 -387 z "},"þ":{"ha":799,"x_min":76,"x_max":758,"o":"m 82 -186 q 79 173 82 -46 q 76 567 76 392 q 83 906 78 739 q 115 973 85 946 q 185 999 144 1000 q 252 967 225 997 q 278 897 279 938 q 274 758 274 782 q 294 768 285 764 q 532 750 413 814 q 697 572 636 693 q 749 307 758 450 q 689 130 742 207 q 554 17 636 53 q 415 -10 489 -14 q 275 33 342 -6 q 276 -186 276 -75 q 248 -255 276 -226 q 179 -283 219 -283 q 110 -255 139 -283 q 82 -186 82 -226 l 82 -186 m 486 168 q 551 225 525 186 q 582 318 578 264 q 550 494 589 417 q 451 604 511 572 q 356 614 401 631 q 271 532 308 594 q 272 300 271 435 q 322 206 288 238 q 486 168 401 131 l 486 168 z "},"ú":{"ha":768,"x_min":61,"x_max":696,"o":"m 294 7 q 189 57 233 24 q 119 135 144 90 q 82 225 94 181 q 65 321 69 269 q 65 412 61 349 q 72 503 69 475 q 82 584 75 531 q 90 650 89 638 q 126 711 96 688 q 193 730 156 735 q 254 695 231 725 q 274 628 278 665 l 264 556 q 254 482 257 506 q 248 407 251 458 q 249 333 244 356 q 276 231 254 265 q 342 185 297 196 q 399 195 372 176 q 483 279 426 214 q 500 293 492 288 q 499 633 501 478 q 526 702 499 674 q 594 731 554 731 q 663 704 635 732 q 693 636 692 676 q 693 107 696 436 q 664 39 693 68 q 594 11 635 11 q 517 53 544 13 q 294 7 413 -24 l 294 7 m 364 764 q 294 789 325 763 q 262 855 264 815 q 286 925 260 894 l 394 1044 q 461 1078 421 1075 q 531 1053 500 1079 q 563 987 561 1026 q 539 917 565 947 l 431 797 q 364 764 404 767 l 364 764 z "},"ŭ":{"ha":825,"x_min":69,"x_max":799,"o":"m 418 7 q 297 7 358 -10 q 192 61 236 24 q 77 288 85 151 q 72 524 69 425 q 75 644 75 624 q 104 712 75 683 q 173 740 133 740 q 241 711 213 740 q 269 642 269 682 q 265 558 269 621 q 259 464 260 494 q 259 378 258 433 q 270 274 260 324 q 329 199 281 225 q 401 190 350 185 q 515 336 483 199 q 528 649 518 425 q 553 718 526 689 q 621 749 581 747 q 690 724 661 751 q 722 657 719 697 q 790 117 743 328 q 777 44 799 78 q 716 3 756 11 q 643 16 676 -6 q 601 78 610 38 l 588 133 q 418 7 518 35 l 418 7 m 397 808 q 291 835 346 807 q 200 908 236 863 q 164 1003 164 953 q 190 1065 164 1042 q 247 1089 217 1089 q 310 1058 290 1089 q 322 1033 315 1050 q 335 1008 329 1015 q 407 974 363 974 q 443 985 425 974 q 471 1015 461 996 q 503 1065 488 1049 q 553 1082 519 1082 q 610 1059 589 1082 q 631 1000 631 1036 q 595 906 631 950 q 505 836 560 863 q 397 808 450 810 l 397 808 z "},"û":{"ha":779,"x_min":64,"x_max":704,"o":"m 603 -14 q 524 88 524 17 q 299 0 444 -24 q 192 50 238 17 q 122 129 147 83 q 85 220 97 175 q 68 317 72 265 q 68 408 64 344 q 75 503 72 472 q 85 587 78 533 q 93 653 92 640 q 128 715 99 692 q 197 734 158 739 q 258 699 235 729 q 278 631 282 669 l 268 558 q 258 481 261 507 q 252 403 256 456 q 253 329 249 351 q 280 226 258 261 q 347 179 301 190 q 415 184 378 171 q 490 257 453 197 q 507 271 499 265 q 506 636 508 475 q 533 706 506 678 q 602 735 561 735 q 672 708 643 736 q 701 639 700 681 q 701 82 704 433 q 672 14 701 43 q 603 -14 643 -14 l 603 -14 z "},"ü":{"ha":779,"x_min":64,"x_max":704,"o":"m 603 -14 q 524 88 524 17 q 299 0 444 -24 q 192 50 238 17 q 122 129 147 83 q 85 220 97 175 q 68 317 72 265 q 68 408 64 344 q 75 503 72 472 q 85 587 78 533 q 93 653 92 640 q 128 715 99 692 q 197 734 158 739 q 258 699 235 729 q 278 631 282 669 l 268 558 q 258 481 261 507 q 252 403 256 456 q 253 329 249 351 q 280 226 258 261 q 347 179 301 190 q 415 184 378 171 q 490 257 453 197 q 507 271 499 265 q 506 636 508 475 q 533 706 506 678 q 602 735 561 735 q 672 708 643 736 q 701 639 700 681 q 701 82 704 433 q 672 14 701 43 q 603 -14 643 -14 l 603 -14 z "},"ù":{"ha":779,"x_min":64,"x_max":704,"o":"m 603 -14 q 524 88 524 17 q 299 0 444 -24 q 192 50 238 17 q 122 129 147 83 q 85 220 97 175 q 68 317 72 265 q 68 408 64 344 q 75 503 72 472 q 85 587 78 533 q 93 653 92 640 q 128 715 99 692 q 197 734 158 739 q 258 699 235 729 q 278 631 282 669 l 268 558 q 258 481 261 507 q 252 403 256 456 q 253 329 249 351 q 280 226 258 261 q 347 179 301 190 q 415 184 378 171 q 490 257 453 197 q 507 271 499 265 q 506 636 508 475 q 533 706 506 678 q 602 735 561 735 q 672 708 643 736 q 701 639 700 681 q 701 82 704 433 q 672 14 701 43 q 603 -14 643 -14 l 603 -14 z "},"ű":{"ha":779,"x_min":64,"x_max":704,"o":"m 603 -14 q 524 88 524 17 q 299 0 444 -24 q 192 50 238 17 q 122 129 147 83 q 85 220 97 175 q 68 317 72 265 q 68 408 64 344 q 75 503 72 472 q 85 587 78 533 q 93 653 92 640 q 128 715 99 692 q 197 734 158 739 q 258 699 235 729 q 278 631 282 669 l 268 558 q 258 481 261 507 q 252 403 256 456 q 253 329 249 351 q 280 226 258 261 q 347 179 301 190 q 415 184 378 171 q 490 257 453 197 q 507 271 499 265 q 506 636 508 475 q 533 706 506 678 q 602 735 561 735 q 672 708 643 736 q 701 639 700 681 q 701 82 704 433 q 672 14 701 43 q 603 -14 643 -14 l 603 -14 z "},"ū":{"ha":814,"x_min":69,"x_max":704,"o":"m 303 -7 q 197 43 242 10 q 128 122 153 76 q 90 211 103 167 q 74 307 78 256 q 74 398 69 335 q 81 498 78 461 q 90 588 83 535 q 99 654 97 642 q 134 715 104 692 q 201 734 164 739 q 263 699 239 729 q 282 632 286 669 l 272 560 q 263 470 265 496 q 256 393 260 444 q 257 319 253 342 q 284 217 263 251 q 350 171 306 182 q 408 181 381 163 q 492 265 435 200 q 508 279 500 274 q 507 638 510 464 q 535 706 507 678 q 603 735 563 735 q 672 708 643 736 q 701 640 700 681 q 701 93 704 422 q 672 25 701 54 q 603 -3 643 -3 q 525 39 553 -1 q 303 -7 421 -37 l 303 -7 m 289 817 q 228 821 263 817 q 160 844 189 819 q 131 907 132 869 q 156 971 129 944 q 222 999 183 997 q 394 995 296 994 q 578 1000 493 996 q 643 976 615 1000 q 672 915 671 953 q 645 851 672 878 q 579 822 618 824 q 410 817 494 815 l 289 817 l 289 817 z "},"ų":{"ha":774,"x_min":64,"x_max":764,"o":"m 611 -17 q 519 96 536 -1 q 297 -1 415 -10 q 183 51 224 17 q 119 133 142 86 q 85 225 97 181 q 68 321 72 269 q 68 412 64 349 q 75 505 72 475 q 85 588 78 535 q 93 654 92 642 q 128 715 99 692 q 196 734 158 739 q 257 699 233 729 q 276 632 281 669 l 267 560 q 257 484 260 510 q 251 407 254 458 q 251 333 247 356 q 278 231 257 265 q 344 185 300 196 q 410 187 375 176 q 479 238 446 197 q 503 293 501 258 q 501 638 504 478 q 529 706 501 678 q 597 735 557 735 q 666 708 638 736 q 696 640 694 681 q 696 79 699 436 q 674 4 696 25 q 611 -17 651 -17 l 611 -17 m 593 -322 q 514 -310 553 -324 q 450 -269 475 -296 q 403 -164 407 -225 q 444 -29 397 -92 q 514 31 472 6 q 594 63 556 56 q 693 38 667 75 q 700 -11 710 14 q 667 -47 690 -36 q 648 -56 658 -53 q 629 -62 638 -58 q 571 -86 593 -72 q 536 -154 531 -114 q 556 -186 539 -175 q 594 -196 572 -197 q 624 -189 613 -194 q 649 -171 635 -183 q 674 -155 663 -160 q 699 -149 685 -150 q 744 -166 728 -147 q 763 -208 761 -185 q 717 -283 764 -250 q 661 -309 689 -299 q 593 -322 633 -319 l 593 -322 z "},"ů":{"ha":779,"x_min":64,"x_max":704,"o":"m 603 -14 q 524 88 524 17 q 299 0 444 -24 q 192 50 238 17 q 122 129 147 83 q 85 220 97 175 q 68 317 72 265 q 68 408 64 344 q 75 503 72 472 q 85 587 78 533 q 93 653 92 640 q 128 715 99 692 q 197 734 158 739 q 258 699 235 729 q 278 631 282 669 l 268 558 q 258 481 261 507 q 252 403 256 456 q 253 329 249 351 q 280 226 258 261 q 347 179 301 190 q 415 184 378 171 q 490 257 453 197 q 507 271 499 265 q 506 636 508 475 q 533 706 506 678 q 602 735 561 735 q 672 708 643 736 q 701 639 700 681 q 701 82 704 433 q 672 14 701 43 q 603 -14 643 -14 l 603 -14 z "},"ũ":{"ha":828,"x_min":71,"x_max":800,"o":"m 419 -7 q 299 -7 360 -24 q 193 47 238 10 q 74 404 86 138 q 72 484 71 481 q 74 556 72 488 q 76 644 76 624 q 94 699 76 675 q 140 735 113 724 q 210 740 171 753 l 199 736 q 251 702 231 728 q 271 642 271 676 q 268 557 271 621 q 265 491 265 493 q 267 413 264 489 q 285 266 271 322 q 318 194 300 210 q 344 181 329 185 q 367 179 360 178 q 489 369 442 200 q 533 574 519 481 l 529 649 q 555 718 528 689 q 622 749 582 747 q 692 724 663 751 q 724 657 721 697 q 792 89 744 314 q 778 17 800 50 q 717 -25 757 -17 q 644 -12 678 -33 q 603 50 611 10 q 589 119 594 85 q 419 -7 519 21 l 419 -7 m 168 815 q 121 835 138 815 q 104 889 104 854 q 131 965 104 926 q 198 1027 157 1003 q 279 1051 239 1051 q 340 1042 315 1051 q 396 1011 365 1032 q 440 986 424 993 q 481 979 457 979 q 531 1013 510 979 q 558 1045 546 1036 q 597 1054 571 1054 q 645 1035 628 1054 q 663 983 663 1015 q 639 901 663 940 q 575 839 615 863 q 489 815 535 815 q 436 824 460 815 q 375 854 413 833 q 326 878 346 871 q 286 886 306 886 q 252 877 268 886 q 226 853 236 868 q 201 823 213 831 q 168 815 190 815 l 168 815 z "}}}
